<svg xmlns="http://www.w3.org/2000/svg" xmlns:xlink="http://www.w3.org/1999/xlink" viewBox="0 0 512 512"><defs><style>.cls-1{fill:url(#linear-gradient);}.cls-2{fill:url(#linear-gradient-2);}.cls-3{fill:url(#linear-gradient-3);}.cls-4{opacity:0.5;fill:url(#linear-gradient-4);}.cls-5{fill:url(#linear-gradient-5);}.cls-6{fill:url(#linear-gradient-6);}.cls-7{fill:url(#linear-gradient-7);}.cls-8{fill:url(#linear-gradient-8);}.cls-9{fill:url(#linear-gradient-9);}.cls-10{fill:url(#linear-gradient-10);}.cls-11{fill:url(#linear-gradient-11);}.cls-12{fill:url(#linear-gradient-12);}.cls-13{fill:url(#linear-gradient-13);}.cls-14{fill:url(#linear-gradient-14);}.cls-15{fill:url(#linear-gradient-15);}.cls-16{fill:url(#linear-gradient-16);}.cls-17{fill:url(#linear-gradient-17);}.cls-18{fill:url(#linear-gradient-18);}.cls-19{fill:url(#linear-gradient-19);}.cls-20{fill:url(#linear-gradient-20);}.cls-21{fill:url(#linear-gradient-21);}.cls-22{fill:url(#linear-gradient-22);}</style><linearGradient id="linear-gradient" x1="338.954" y1="386.472" x2="338.954" y2="141.907" gradientUnits="userSpaceOnUse"><stop offset="0" stop-color="#ea6c88"/><stop offset="0.245" stop-color="#e66582"/><stop offset="0.601" stop-color="#d95270"/><stop offset="1" stop-color="#c63454"/></linearGradient><linearGradient id="linear-gradient-2" x1="173.045" y1="386.472" x2="173.045" y2="141.907" xlink:href="#linear-gradient"/><linearGradient id="linear-gradient-3" x1="255.998" y1="386.472" x2="255.998" y2="158.688" xlink:href="#linear-gradient"/><linearGradient id="linear-gradient-4" x1="338.089" y1="354.992" x2="114.419" y2="75.611" gradientUnits="userSpaceOnUse"><stop offset="0" stop-opacity="0"/><stop offset="1"/></linearGradient><linearGradient id="linear-gradient-5" x1="331.352" y1="141.871" x2="331.352" y2="360.903" gradientUnits="userSpaceOnUse"><stop offset="0" stop-color="#f5faff"/><stop offset="1" stop-color="#b6d1f1"/></linearGradient><linearGradient id="linear-gradient-6" x1="180.697" y1="141.871" x2="180.697" y2="360.903" xlink:href="#linear-gradient-5"/><linearGradient id="linear-gradient-7" x1="256.025" y1="157.106" x2="256.025" y2="360.903" gradientTransform="translate(515.029 2.98) rotate(90)" xlink:href="#linear-gradient-5"/><linearGradient id="linear-gradient-8" x1="119.816" y1="226.672" x2="256.283" y2="226.672" xlink:href="#linear-gradient-5"/><linearGradient id="linear-gradient-9" x1="256.283" y1="226.672" x2="392.75" y2="226.672" xlink:href="#linear-gradient-5"/><linearGradient id="linear-gradient-10" x1="143.351" y1="154.932" x2="225.579" y2="154.932" gradientUnits="userSpaceOnUse"><stop offset="0" stop-color="#93c2ff"/><stop offset="1" stop-color="#6a8fff"/></linearGradient><linearGradient id="linear-gradient-11" x1="286.982" y1="154.928" x2="369.21" y2="154.928" xlink:href="#linear-gradient-10"/><linearGradient id="linear-gradient-12" x1="143.351" y1="186.492" x2="225.579" y2="186.492" xlink:href="#linear-gradient-10"/><linearGradient id="linear-gradient-13" x1="286.982" y1="186.487" x2="369.21" y2="186.487" xlink:href="#linear-gradient-10"/><linearGradient id="linear-gradient-14" x1="143.351" y1="218.051" x2="225.579" y2="218.051" xlink:href="#linear-gradient-10"/><linearGradient id="linear-gradient-15" x1="286.982" y1="218.046" x2="369.21" y2="218.046" xlink:href="#linear-gradient-10"/><linearGradient id="linear-gradient-16" x1="143.351" y1="249.611" x2="225.579" y2="249.611" xlink:href="#linear-gradient-10"/><linearGradient id="linear-gradient-17" x1="286.982" y1="249.606" x2="369.21" y2="249.606" xlink:href="#linear-gradient-10"/><linearGradient id="linear-gradient-18" x1="143.351" y1="281.17" x2="225.579" y2="281.17" xlink:href="#linear-gradient-10"/><linearGradient id="linear-gradient-19" x1="286.982" y1="281.165" x2="369.21" y2="281.165" xlink:href="#linear-gradient-10"/><linearGradient id="linear-gradient-20" x1="338.954" y1="343.286" x2="338.954" y2="419.95" gradientUnits="userSpaceOnUse"><stop offset="0" stop-color="#c63454"/><stop offset="0.399" stop-color="#d95270"/><stop offset="0.755" stop-color="#e66582"/><stop offset="1" stop-color="#ea6c88"/></linearGradient><linearGradient id="linear-gradient-21" x1="173.047" y1="341.998" x2="173.047" y2="419.272" xlink:href="#linear-gradient-20"/><linearGradient id="linear-gradient-22" x1="255.998" y1="358.135" x2="255.998" y2="427.687" xlink:href="#linear-gradient-20"/></defs><g id="Layer_2" data-name="Layer 2"><path class="cls-1" d="M406,162.6c0-.013,0-.025,0-.038v-.52h0l-.038-.019a6.419,6.419,0,0,0-3.524-5.173,142.324,142.324,0,0,0-130.527,1.839v3.353h0V386.472h0a142.347,142.347,0,0,1,134.089,0h0V162.642C406,162.628,406,162.614,406,162.6Z"/><path class="cls-2" d="M240.09,162.041h0v-3.353a142.3,142.3,0,0,0-130.517-1.839,6.42,6.42,0,0,0-3.524,5.169l-.047.023h0V386.472h0a142.349,142.349,0,0,1,134.09,0h0V162.041Z"/><polygon class="cls-3" points="271.908 158.688 240.088 158.688 240.088 172.855 240.09 172.855 240.09 386.472 271.908 386.472 271.908 172.855 271.908 172.855 271.908 158.688"/><path class="cls-4" d="M406,162.038V386.47a142.319,142.319,0,0,0-134.092,0h-31.82a142.291,142.291,0,0,0-106.741-11.131L119.809,361.8,240.085,241.527l31.82-31.81,67.808-67.807a142.353,142.353,0,0,1,62.717,14.938,6.407,6.407,0,0,1,3.527,5.17A.076.076,0,0,0,406,162.038Z"/><path class="cls-5" d="M392.234,157.106V360.9h0a129.271,129.271,0,0,0-121.763,0h0v-203.8h0a129.265,129.265,0,0,1,121.763,0Z"/><path class="cls-6" d="M241.578,157.106V360.9h0a129.269,129.269,0,0,0-121.762,0h0v-203.8h0a129.263,129.263,0,0,1,121.762,0Z"/><rect class="cls-7" x="154.126" y="244.558" width="203.798" height="28.893" transform="translate(-2.98 515.029) rotate(-90)"/><path class="cls-8" d="M256.283,132.39v203.8h0a160.42,160.42,0,0,0-136.467,0h0V132.39h0a160.427,160.427,0,0,1,136.467,0Z"/><path class="cls-9" d="M392.75,132.39v203.8h0a160.417,160.417,0,0,0-136.466,0h0V132.39h0a160.425,160.425,0,0,1,136.466,0Z"/><path class="cls-10" d="M149.359,163.294a6.012,6.012,0,0,1-1.441-11.848,167.778,167.778,0,0,1,72.823-1.663,6.012,6.012,0,0,1-2.349,11.792,155.72,155.72,0,0,0-67.582,1.542A6.038,6.038,0,0,1,149.359,163.294Z"/><path class="cls-11" d="M363.2,163.284a6.019,6.019,0,0,1-1.448-.177,155.928,155.928,0,0,0-67.587-1.532,6.011,6.011,0,0,1-2.345-11.792,167.921,167.921,0,0,1,72.818,1.654,6.011,6.011,0,0,1-1.438,11.847Z"/><path class="cls-12" d="M149.359,194.853a6.012,6.012,0,0,1-1.441-11.847,167.759,167.759,0,0,1,72.823-1.664,6.012,6.012,0,0,1-2.349,11.792,155.72,155.72,0,0,0-67.582,1.542A6.038,6.038,0,0,1,149.359,194.853Z"/><path class="cls-13" d="M363.2,194.843a5.97,5.97,0,0,1-1.448-.177,155.928,155.928,0,0,0-67.587-1.532,6.011,6.011,0,0,1-2.345-11.792A167.921,167.921,0,0,1,364.64,183a6.011,6.011,0,0,1-1.438,11.847Z"/><path class="cls-14" d="M149.359,226.413a6.012,6.012,0,0,1-1.441-11.848,167.778,167.778,0,0,1,72.823-1.663,6.012,6.012,0,0,1-2.349,11.792,155.7,155.7,0,0,0-67.582,1.541A5.989,5.989,0,0,1,149.359,226.413Z"/><path class="cls-15" d="M363.2,226.4a6.019,6.019,0,0,1-1.448-.177,155.887,155.887,0,0,0-67.587-1.532,6.011,6.011,0,0,1-2.345-11.792,167.94,167.94,0,0,1,72.818,1.653A6.012,6.012,0,0,1,363.2,226.4Z"/><path class="cls-16" d="M149.359,257.972a6.012,6.012,0,0,1-1.441-11.848,167.778,167.778,0,0,1,72.823-1.663,6.012,6.012,0,0,1-2.349,11.792A155.72,155.72,0,0,0,150.81,257.8,6.038,6.038,0,0,1,149.359,257.972Z"/><path class="cls-17" d="M363.2,257.962a6.019,6.019,0,0,1-1.448-.177,155.928,155.928,0,0,0-67.587-1.532,6.011,6.011,0,0,1-2.345-11.792,167.921,167.921,0,0,1,72.818,1.654,6.011,6.011,0,0,1-1.438,11.847Z"/><path class="cls-18" d="M149.359,289.531a6.012,6.012,0,0,1-1.441-11.847,167.736,167.736,0,0,1,72.823-1.663,6.011,6.011,0,0,1-2.349,11.791,155.72,155.72,0,0,0-67.582,1.542A5.988,5.988,0,0,1,149.359,289.531Z"/><path class="cls-19" d="M363.2,289.522a5.971,5.971,0,0,1-1.448-.178,155.928,155.928,0,0,0-67.587-1.532,6.011,6.011,0,1,1-2.345-11.791,167.9,167.9,0,0,1,72.818,1.653,6.012,6.012,0,0,1-1.438,11.848Z"/><path class="cls-20" d="M406,384.589h0a6.4,6.4,0,0,1-9,5.849,142.4,142.4,0,0,0-125.088,4.406V380.677a142.319,142.319,0,0,1,130.527-1.838A6.427,6.427,0,0,1,406,384.589Z"/><path class="cls-21" d="M240.088,380.677v14.167a142.383,142.383,0,0,0-125.078-4.406,6.4,6.4,0,0,1-9-5.849h0a6.428,6.428,0,0,1,3.565-5.751,142.3,142.3,0,0,1,130.517,1.839Z"/><rect class="cls-22" x="240.088" y="380.677" width="31.82" height="14.167"/></g></svg>