<svg xmlns="http://www.w3.org/2000/svg" xmlns:xlink="http://www.w3.org/1999/xlink" viewBox="0 0 512 512"><defs><style>.cls-1{fill:url(#linear-gradient);}.cls-2,.cls-5,.cls-6{opacity:0.5;}.cls-2{fill:url(#linear-gradient-2);}.cls-3{fill:url(#linear-gradient-3);}.cls-4{fill:url(#linear-gradient-4);}.cls-5{fill:url(#linear-gradient-5);}.cls-6{fill:url(#linear-gradient-6);}.cls-7{fill:url(#linear-gradient-7);}</style><linearGradient id="linear-gradient" x1="220.381" y1="420.247" x2="220.381" y2="45.333" gradientUnits="userSpaceOnUse"><stop offset="0" stop-color="#c63454"/><stop offset="0.399" stop-color="#d95270"/><stop offset="0.755" stop-color="#e66582"/><stop offset="1" stop-color="#ea6c88"/></linearGradient><linearGradient id="linear-gradient-2" x1="220.377" y1="427.771" x2="220.377" y2="324.134" gradientUnits="userSpaceOnUse"><stop offset="0"/><stop offset="1" stop-opacity="0"/></linearGradient><linearGradient id="linear-gradient-3" x1="330.644" y1="216.349" x2="330.644" y2="367.056" gradientUnits="userSpaceOnUse"><stop offset="0" stop-color="#f5faff"/><stop offset="1" stop-color="#b6d1f1"/></linearGradient><linearGradient id="linear-gradient-4" x1="265.621" y1="291.702" x2="395.667" y2="291.702" gradientUnits="userSpaceOnUse"><stop offset="0" stop-color="#b6d1f1"/><stop offset="1" stop-color="#f5faff"/></linearGradient><linearGradient id="linear-gradient-5" x1="366.342" y1="333.659" x2="292.586" y2="263.097" gradientUnits="userSpaceOnUse"><stop offset="0" stop-opacity="0"/><stop offset="1"/></linearGradient><linearGradient id="linear-gradient-6" x1="355.188" y1="309.202" x2="269.69" y2="213.725" xlink:href="#linear-gradient-5"/><linearGradient id="linear-gradient-7" x1="284.125" y1="291.702" x2="377.163" y2="291.702" gradientUnits="userSpaceOnUse"><stop offset="0" stop-color="#efbd61"/><stop offset="1" stop-color="#f27a46"/></linearGradient></defs><g id="Layer_2" data-name="Layer 2"><path class="cls-1" d="M298.483,383.786l-64.431-48.923a22.607,22.607,0,0,0-27.342,0l-64.431,48.923a22.606,22.606,0,0,1-36.276-18V124.009A22.606,22.606,0,0,1,128.609,101.4H312.153a22.606,22.606,0,0,1,22.606,22.606V365.782A22.606,22.606,0,0,1,298.483,383.786Z"/><path class="cls-2" d="M334.756,344.606v21.179a22.6,22.6,0,0,1-36.272,18L234.05,334.864a22.6,22.6,0,0,0-27.336,0L142.28,383.781c-14.887,11.3-36.282.692-36.282-18V344.606c0,18.689,21.395,29.3,36.282,18l64.434-48.917a22.6,22.6,0,0,1,27.336,0L298.484,362.6A22.6,22.6,0,0,0,334.756,344.606Z"/><circle class="cls-3" cx="330.644" cy="291.702" r="75.354"/><path class="cls-4" d="M330.645,356.725A65.023,65.023,0,1,1,395.667,291.7,65.1,65.1,0,0,1,330.645,356.725Z"/><path class="cls-5" d="M395.337,298.293a65.114,65.114,0,0,1-64.693,58.432,64.16,64.16,0,0,1-7.49-.434l-21.922-21.923,74.61-55.57Z"/><polygon class="cls-6" points="393.725 307.529 393.198 309.461 355.025 347.644 302.895 295.514 335.996 249.799 393.725 307.529"/><path class="cls-7" d="M336.247,250.637l9.535,19.319a6.248,6.248,0,0,0,4.7,3.418l21.32,3.1a6.248,6.248,0,0,1,3.463,10.658l-15.427,15.038a6.245,6.245,0,0,0-1.8,5.53l3.642,21.234a6.249,6.249,0,0,1-9.066,6.587l-19.069-10.025a6.25,6.25,0,0,0-5.816,0l-19.069,10.025a6.249,6.249,0,0,1-9.066-6.587l3.642-21.234a6.245,6.245,0,0,0-1.8-5.53L286.019,287.13a6.248,6.248,0,0,1,3.463-10.658l21.32-3.1a6.248,6.248,0,0,0,4.7-3.418l9.535-19.319A6.248,6.248,0,0,1,336.247,250.637Z"/></g></svg>