<svg xmlns="http://www.w3.org/2000/svg" xmlns:xlink="http://www.w3.org/1999/xlink" viewBox="0 0 512 512"><defs><style>.cls-1{fill:url(#linear-gradient);}.cls-2{fill:url(#linear-gradient-2);}.cls-3{fill:url(#linear-gradient-3);}.cls-4,.cls-5,.cls-6,.cls-7,.cls-8{opacity:0.5;}.cls-4{fill:url(#linear-gradient-4);}.cls-5{fill:url(#linear-gradient-5);}.cls-6{fill:url(#linear-gradient-6);}.cls-7{fill:url(#linear-gradient-7);}.cls-8{fill:url(#linear-gradient-8);}.cls-9{fill:url(#linear-gradient-9);}.cls-10{fill:url(#linear-gradient-10);}.cls-11{fill:url(#linear-gradient-11);}.cls-12{fill:url(#linear-gradient-12);}</style><linearGradient id="linear-gradient" x1="185.714" y1="308.31" x2="381.094" y2="308.31" gradientTransform="translate(-28.213 -11.687)" gradientUnits="userSpaceOnUse"><stop offset="0" stop-color="#efbd61"/><stop offset="1" stop-color="#f27a46"/></linearGradient><linearGradient id="linear-gradient-2" x1="344.207" y1="176.754" x2="485.714" y2="176.754" gradientTransform="translate(-28.213 -11.687)" gradientUnits="userSpaceOnUse"><stop offset="0" stop-color="#93c2ff"/><stop offset="1" stop-color="#6a8fff"/></linearGradient><linearGradient id="linear-gradient-3" x1="248.635" y1="263.414" x2="407.966" y2="263.414" gradientTransform="translate(249.378 -178.334) rotate(45)" xlink:href="#linear-gradient-2"/><linearGradient id="linear-gradient-4" x1="424.696" y1="177.603" x2="497.54" y2="262.731" gradientTransform="translate(-28.213 -11.687)" gradientUnits="userSpaceOnUse"><stop offset="0" stop-opacity="0"/><stop offset="1"/></linearGradient><linearGradient id="linear-gradient-5" x1="333.006" y1="355.823" x2="389.561" y2="412.378" xlink:href="#linear-gradient-4"/><linearGradient id="linear-gradient-6" x1="371.646" y1="283.439" x2="453.123" y2="365.038" xlink:href="#linear-gradient-4"/><linearGradient id="linear-gradient-7" x1="240.808" y1="303.877" x2="253.19" y2="303.877" gradientTransform="translate(227.787 -117.726) rotate(45)" xlink:href="#linear-gradient"/><linearGradient id="linear-gradient-8" x1="359.414" y1="303.877" x2="370.19" y2="303.877" gradientTransform="translate(227.787 -117.726) rotate(45)" xlink:href="#linear-gradient"/><linearGradient id="linear-gradient-9" x1="297.968" y1="291.822" x2="314.259" y2="291.822" gradientTransform="translate(227.787 -117.726) rotate(45)" xlink:href="#linear-gradient"/><linearGradient id="linear-gradient-10" x1="203.712" y1="368.443" x2="203.712" y2="393.557" gradientUnits="userSpaceOnUse"><stop offset="0" stop-color="#f5faff"/><stop offset="1" stop-color="#b6d1f1"/></linearGradient><linearGradient id="linear-gradient-11" x1="119.892" y1="314.443" x2="119.892" y2="339.557" xlink:href="#linear-gradient-10"/><linearGradient id="linear-gradient-12" x1="104.062" y1="368.443" x2="104.062" y2="393.557" xlink:href="#linear-gradient-10"/></defs><g id="Layer_2" data-name="Layer 2"><path class="cls-1" d="M352.882,331.394l-36.774,55.074a17.639,17.639,0,0,1-27.142,2.678l-126.3-126.3a17.639,17.639,0,0,1,2.678-27.142l55.074-36.774Z"/><path class="cls-2" d="M357.677,235.82l84.937-69.5a40.593,40.593,0,0,0,3-60.12h0a40.593,40.593,0,0,0-60.12,3l-69.5,84.937Z"/><path class="cls-3" d="M276.259,146.407h14.687a56.283,56.283,0,0,1,56.283,56.283v74.762a56.283,56.283,0,0,1-56.283,56.283H276.259a0,0,0,0,1,0,0V146.407A0,0,0,0,1,276.259,146.407Z" transform="translate(-78.448 290.751) rotate(-45)"/><path class="cls-4" d="M442.619,166.322l-84.94,69.5-12.22-12.22,84.94-69.49a40.626,40.626,0,0,0,8.46-53.37,40.66,40.66,0,0,1,3.76,65.58Z"/><path class="cls-5" d="M352.879,331.392l-36.77,55.08a17.637,17.637,0,0,1-27.14,2.67l-16.07-16.07a17.631,17.631,0,0,0,27.14-2.68l36.77-55.07Z"/><path class="cls-6" d="M363.269,321.012l-10.39,10.38-16.07-16.07,10.39-10.39a56.275,56.275,0,0,0,0-79.59l16.07,16.07A56.287,56.287,0,0,1,363.269,321.012Z"/><path class="cls-7" d="M195.559,270.805l-12.467,12.467-6.965-6.965,12.467-12.467a4.925,4.925,0,0,1,6.965,6.965Z"/><path class="cls-8" d="M278.516,353.763,266.05,366.229l-6.965-6.965L271.551,346.8a4.925,4.925,0,1,1,6.965,6.965Z"/><path class="cls-9" d="M254.079,295.243,224.571,324.75l-6.965-6.965,29.508-29.507a4.928,4.928,0,0,1,6.972,0,4.935,4.935,0,0,1-.007,6.965Z"/><rect class="cls-10" x="156.355" y="368.443" width="94.714" height="25.114" rx="12.557"/><rect class="cls-11" x="83.624" y="314.443" width="72.536" height="25.114" rx="12.557"/><rect class="cls-12" x="83.624" y="368.443" width="40.876" height="25.114" rx="12.557"/></g></svg>