<svg xmlns="http://www.w3.org/2000/svg" xmlns:xlink="http://www.w3.org/1999/xlink" viewBox="0 0 512 512"><defs><style>.cls-1{fill:url(#linear-gradient);}.cls-2{fill:url(#linear-gradient-2);}.cls-13,.cls-14,.cls-15,.cls-16,.cls-3,.cls-4,.cls-5{opacity:0.5;}.cls-3{fill:url(#linear-gradient-3);}.cls-4{fill:url(#linear-gradient-4);}.cls-5{fill:url(#linear-gradient-5);}.cls-6{fill:url(#linear-gradient-6);}.cls-7{fill:url(#linear-gradient-7);}.cls-8{fill:url(#linear-gradient-8);}.cls-9{fill:url(#linear-gradient-9);}.cls-10{fill:url(#linear-gradient-10);}.cls-11{fill:url(#linear-gradient-11);}.cls-12{fill:#f5faff;}.cls-13{fill:url(#linear-gradient-12);}.cls-14{fill:url(#linear-gradient-13);}.cls-15{fill:url(#linear-gradient-14);}.cls-16{fill:url(#linear-gradient-15);}</style><linearGradient id="linear-gradient" x1="97.02" y1="76.747" x2="379.096" y2="394.79" gradientUnits="userSpaceOnUse"><stop offset="0" stop-color="#f5faff"/><stop offset="1" stop-color="#b6d1f1"/></linearGradient><linearGradient id="linear-gradient-2" x1="200.282" y1="193.176" x2="467.955" y2="494.98" gradientTransform="translate(0.001 511.999) rotate(-90)" xlink:href="#linear-gradient"/><linearGradient id="linear-gradient-3" x1="-1043.369" y1="-188.447" x2="-1043.369" y2="-296.302" gradientTransform="translate(849.383 442.778) scale(0.587 0.781)" gradientUnits="userSpaceOnUse"><stop offset="0" stop-opacity="0"/><stop offset="1"/></linearGradient><linearGradient id="linear-gradient-4" x1="232.567" y1="368.942" x2="172.605" y2="308.98" gradientTransform="matrix(1, 0, 0, 1, 0, 0)" xlink:href="#linear-gradient-3"/><linearGradient id="linear-gradient-5" x1="389.767" y1="331.953" x2="-23.28" y2="142.993" gradientUnits="userSpaceOnUse"><stop offset="0" stop-opacity="0"/><stop offset="0.759"/></linearGradient><linearGradient id="linear-gradient-6" x1="195.307" y1="384.837" x2="195.307" y2="304.821" gradientUnits="userSpaceOnUse"><stop offset="0" stop-color="#c63454"/><stop offset="0.399" stop-color="#d95270"/><stop offset="0.755" stop-color="#e66582"/><stop offset="1" stop-color="#ea6c88"/></linearGradient><linearGradient id="linear-gradient-7" x1="195.307" y1="211.368" x2="195.307" y2="291.385" gradientUnits="userSpaceOnUse"><stop offset="0" stop-color="#93c2ff"/><stop offset="1" stop-color="#6a8fff"/></linearGradient><linearGradient id="linear-gradient-8" x1="177.526" y1="237.659" x2="213.088" y2="237.659" gradientUnits="userSpaceOnUse"><stop offset="0" stop-color="#19223d"/><stop offset="1" stop-color="#040a21"/></linearGradient><linearGradient id="linear-gradient-9" x1="177.526" y1="331.112" x2="213.088" y2="331.112" gradientTransform="translate(-135.805 526.418) rotate(-90)" xlink:href="#linear-gradient-8"/><linearGradient id="linear-gradient-10" x1="141.437" y1="151.089" x2="370.563" y2="151.089" xlink:href="#linear-gradient-7"/><linearGradient id="linear-gradient-11" x1="307.439" y1="387.264" x2="307.439" y2="170.892" gradientUnits="userSpaceOnUse"><stop offset="0" stop-color="#9cd068"/><stop offset="0.24" stop-color="#a1d26e"/><stop offset="0.571" stop-color="#aed980"/><stop offset="0.952" stop-color="#c3e39d"/><stop offset="1" stop-color="#c6e5a1"/></linearGradient><linearGradient id="linear-gradient-12" x1="256" y1="386.404" x2="256" y2="433.878" gradientTransform="matrix(1, 0, 0, 1, 0, 0)" xlink:href="#linear-gradient-3"/><linearGradient id="linear-gradient-13" x1="195.303" y1="258.175" x2="195.303" y2="304.469" gradientTransform="matrix(1, 0, 0, 1, 0, 0)" xlink:href="#linear-gradient-3"/><linearGradient id="linear-gradient-14" x1="195.303" y1="396.204" x2="195.303" y2="349.91" gradientUnits="userSpaceOnUse"><stop offset="0"/><stop offset="1" stop-opacity="0"/></linearGradient><linearGradient id="linear-gradient-15" x1="307.437" y1="385.685" x2="307.437" y2="356.881" xlink:href="#linear-gradient-14"/></defs><g id="Layer_2" data-name="Layer 2"><rect class="cls-1" x="122.64" y="106" width="266.721" height="299.997" rx="22.023"/><rect class="cls-2" x="115.781" y="132.418" width="280.438" height="247.161" rx="12.244" transform="translate(511.999 -0.001) rotate(90)"/><rect class="cls-3" x="198.115" y="227.963" width="77.191" height="102.652" transform="translate(-128.156 249.181) rotate(-45)"/><polygon class="cls-4" points="295.217 375.229 277 393.437 264.437 406 213.262 406 166.266 359.004 222.624 302.646 267.451 347.464 295.217 375.229"/><polygon class="cls-5" points="389.36 227.039 389.36 381.328 364.689 406 289.562 406 253.324 369.762 267.451 347.464 361.417 199.096 389.36 227.039"/><rect class="cls-6" x="155.299" y="291.103" width="80.016" height="80.016" rx="40.008"/><rect class="cls-7" x="155.299" y="197.651" width="80.016" height="80.016" rx="40.008"/><polygon class="cls-8" points="213.088 231.861 201.105 231.861 201.105 219.878 189.509 219.878 189.509 231.861 177.526 231.861 177.526 243.458 189.509 243.458 189.509 255.441 201.105 255.441 201.105 243.458 213.088 243.458 213.088 231.861"/><rect class="cls-9" x="188.453" y="313.33" width="13.708" height="35.563" transform="translate(526.418 135.805) rotate(90)"/><rect class="cls-10" x="141.437" y="131.37" width="229.126" height="39.437" rx="19.718"/><rect class="cls-11" x="249.681" y="195.193" width="115.516" height="178.385" rx="11.176"/><rect class="cls-12" x="299.954" y="254.05" width="14.97" height="37.099" transform="translate(580.038 -34.84) rotate(90)"/><rect class="cls-12" x="299.954" y="277.622" width="14.97" height="37.099" transform="translate(603.611 -11.267) rotate(90)"/><path class="cls-13" d="M389.36,363.9v20.075A22.022,22.022,0,0,1,367.338,406H144.662a22.022,22.022,0,0,1-22.022-22.022V363.9a22.024,22.024,0,0,0,22.022,22.031H367.338A22.024,22.024,0,0,0,389.36,363.9Z"/><path class="cls-14" d="M235.311,237.664a40.008,40.008,0,1,1-79.518-6.286,40.008,40.008,0,0,0,79.02,0A39.54,39.54,0,0,1,235.311,237.664Z"/><path class="cls-15" d="M235.311,331.114a40.008,40.008,0,1,1-79.518-6.286,40.008,40.008,0,0,0,79.02,0A39.54,39.54,0,0,1,235.311,331.114Z"/><path class="cls-16" d="M365.2,349.829V362.4a11.179,11.179,0,0,1-11.176,11.176H260.854A11.178,11.178,0,0,1,249.679,362.4V349.829A11.177,11.177,0,0,0,260.854,361H354.02A11.178,11.178,0,0,0,365.2,349.829Z"/></g></svg>