<svg xmlns="http://www.w3.org/2000/svg" xmlns:xlink="http://www.w3.org/1999/xlink" viewBox="0 0 512 512"><defs><style>.cls-1{fill:url(#linear-gradient);}.cls-2{fill:url(#linear-gradient-2);}.cls-10,.cls-11,.cls-12,.cls-13,.cls-25,.cls-26,.cls-27,.cls-3,.cls-4,.cls-5,.cls-6,.cls-7,.cls-8,.cls-9{opacity:0.5;}.cls-3{fill:url(#linear-gradient-3);}.cls-4{fill:url(#linear-gradient-4);}.cls-5{fill:url(#linear-gradient-5);}.cls-6{fill:url(#linear-gradient-6);}.cls-7{fill:url(#linear-gradient-7);}.cls-8{fill:url(#linear-gradient-8);}.cls-9{fill:url(#linear-gradient-9);}.cls-10{fill:url(#linear-gradient-10);}.cls-11{fill:url(#linear-gradient-11);}.cls-12{fill:url(#linear-gradient-12);}.cls-13{fill:url(#linear-gradient-13);}.cls-14{fill:url(#linear-gradient-14);}.cls-15{fill:url(#linear-gradient-15);}.cls-16{fill:url(#linear-gradient-16);}.cls-17{fill:url(#linear-gradient-17);}.cls-18{fill:url(#linear-gradient-18);}.cls-19{fill:url(#linear-gradient-19);}.cls-20{fill:url(#linear-gradient-20);}.cls-21{fill:url(#linear-gradient-21);}.cls-22{fill:url(#linear-gradient-22);}.cls-23{fill:url(#linear-gradient-23);}.cls-24{fill:url(#linear-gradient-24);}.cls-25{fill:url(#linear-gradient-25);}.cls-26{fill:url(#linear-gradient-26);}.cls-27{fill:url(#linear-gradient-27);}</style><linearGradient id="linear-gradient" x1="106" y1="298.01" x2="571.324" y2="298.01" gradientTransform="translate(554.008 42.012) rotate(90)" gradientUnits="userSpaceOnUse"><stop offset="0" stop-color="#f5faff"/><stop offset="1" stop-color="#b6d1f1"/></linearGradient><linearGradient id="linear-gradient-2" x1="106" y1="164.871" x2="405.996" y2="164.871" gradientTransform="translate(91.126 420.869) rotate(-90)" gradientUnits="userSpaceOnUse"><stop offset="0" stop-color="#c63454"/><stop offset="0.399" stop-color="#d95270"/><stop offset="0.755" stop-color="#e66582"/><stop offset="1" stop-color="#ea6c88"/></linearGradient><linearGradient id="linear-gradient-3" x1="219.534" y1="199.632" x2="81.226" y2="61.325" gradientUnits="userSpaceOnUse"><stop offset="0" stop-opacity="0"/><stop offset="1"/></linearGradient><linearGradient id="linear-gradient-4" x1="392.73" y1="187.038" x2="309.726" y2="101.83" xlink:href="#linear-gradient-3"/><linearGradient id="linear-gradient-5" x1="383" y1="289.577" x2="290.735" y2="197.312" xlink:href="#linear-gradient-3"/><linearGradient id="linear-gradient-6" x1="-3902.876" y1="1985.211" x2="-3902.876" y2="1715.706" gradientTransform="matrix(0.273, -0.273, 0.655, 0.655, 80.279, -2061.811)" xlink:href="#linear-gradient-3"/><linearGradient id="linear-gradient-7" x1="-4054.375" y1="1921.99" x2="-4054.375" y2="1652.485" gradientTransform="matrix(0.273, -0.273, 0.655, 0.655, 80.279, -2061.811)" xlink:href="#linear-gradient-3"/><linearGradient id="linear-gradient-8" x1="379.844" y1="338.383" x2="281.946" y2="240.485" xlink:href="#linear-gradient-3"/><linearGradient id="linear-gradient-9" x1="-3997.978" y1="2021.951" x2="-3997.978" y2="1752.447" gradientTransform="matrix(0.273, -0.273, 0.655, 0.655, 80.279, -2061.811)" xlink:href="#linear-gradient-3"/><linearGradient id="linear-gradient-10" x1="-4149.477" y1="1958.73" x2="-4149.477" y2="1689.226" gradientTransform="matrix(0.273, -0.273, 0.655, 0.655, 80.279, -2061.811)" xlink:href="#linear-gradient-3"/><linearGradient id="linear-gradient-11" x1="357.311" y1="381.714" x2="357.311" y2="252.946" xlink:href="#linear-gradient-3"/><linearGradient id="linear-gradient-12" x1="287.477" y1="381.714" x2="287.477" y2="252.946" xlink:href="#linear-gradient-3"/><linearGradient id="linear-gradient-13" x1="204.698" y1="381.714" x2="204.698" y2="252.946" xlink:href="#linear-gradient-3"/><linearGradient id="linear-gradient-14" x1="173.125" y1="227.184" x2="173.125" y2="263.888" gradientUnits="userSpaceOnUse"><stop offset="0" stop-color="#efbd61"/><stop offset="1" stop-color="#f27a46"/></linearGradient><linearGradient id="linear-gradient-15" x1="255.998" y1="227.184" x2="255.998" y2="263.888" xlink:href="#linear-gradient-14"/><linearGradient id="linear-gradient-16" x1="338.871" y1="263.888" x2="338.871" y2="227.184" gradientTransform="matrix(1, 0, 0, 1, 0, 0)" xlink:href="#linear-gradient-2"/><linearGradient id="linear-gradient-17" x1="173.125" y1="279.658" x2="173.125" y2="316.362" xlink:href="#linear-gradient-14"/><linearGradient id="linear-gradient-18" x1="255.998" y1="279.658" x2="255.998" y2="316.362" xlink:href="#linear-gradient-14"/><linearGradient id="linear-gradient-19" x1="338.871" y1="316.362" x2="338.871" y2="279.658" gradientTransform="matrix(1, 0, 0, 1, 0, 0)" xlink:href="#linear-gradient-2"/><linearGradient id="linear-gradient-20" x1="173.125" y1="332.132" x2="173.125" y2="368.836" xlink:href="#linear-gradient-14"/><linearGradient id="linear-gradient-21" x1="255.998" y1="332.132" x2="255.998" y2="368.836" xlink:href="#linear-gradient-14"/><linearGradient id="linear-gradient-22" x1="338.871" y1="368.836" x2="338.871" y2="332.132" gradientTransform="matrix(1, 0, 0, 1, 0, 0)" xlink:href="#linear-gradient-2"/><linearGradient id="linear-gradient-23" x1="330.402" y1="142.006" x2="367.219" y2="142.006" gradientTransform="translate(490.816 -206.804) rotate(90)" xlink:href="#linear-gradient"/><linearGradient id="linear-gradient-24" x1="145.197" y1="142.006" x2="182.014" y2="142.006" gradientTransform="translate(305.611 -21.599) rotate(90)" xlink:href="#linear-gradient"/><linearGradient id="linear-gradient-25" x1="256.002" y1="380.974" x2="256.002" y2="429.275" xlink:href="#linear-gradient-3"/><linearGradient id="linear-gradient-26" x1="348.811" y1="163.071" x2="348.811" y2="199.777" xlink:href="#linear-gradient-3"/><linearGradient id="linear-gradient-27" x1="163.603" y1="163.071" x2="163.603" y2="199.777" xlink:href="#linear-gradient-3"/></defs><g id="Layer_2" data-name="Layer 2"><path class="cls-1" d="M173.571,148.012H362.991a0,0,0,0,1,0,0v300a0,0,0,0,1,0,0H173.571A24.566,24.566,0,0,1,149,423.442V172.578A24.566,24.566,0,0,1,173.571,148.012Z" transform="translate(-42.012 554.008) rotate(-90)"/><path class="cls-2" d="M254.419,14.874h27.724a0,0,0,0,1,0,0v300a0,0,0,0,1,0,0H254.419A24.566,24.566,0,0,1,229.853,290.3V39.44A24.566,24.566,0,0,1,254.419,14.874Z" transform="translate(420.869 -91.126) rotate(90)"/><polygon class="cls-3" points="265.812 204.403 224.342 245.735 169.463 191.014 151.504 173.11 160.734 138.726 199.933 138.726 265.812 204.403"/><path class="cls-4" d="M406,163.25v77.73l-50.119-49.966-17.96-17.9,9.24-34.384H381.39a23.813,23.813,0,0,1,5.63.658l18.33,18.274A23.98,23.98,0,0,1,406,163.25Z"/><polygon class="cls-5" points="406 272.163 406 352.703 345.771 292.659 312.481 259.472 367.07 233.353 406 272.163"/><polygon class="cls-6" points="365.827 315.699 325.435 355.967 228.641 259.471 283.23 233.356 365.827 315.699"/><polygon class="cls-7" points="283.051 315.699 242.659 355.967 145.865 259.471 200.454 233.356 283.051 315.699"/><path class="cls-8" d="M406,324.122v56.355a24.364,24.364,0,0,1-7.04,17.167l-54.449-54.282-33.96-33.855,35.22-16.848,19.369-9.271Z"/><polygon class="cls-9" points="363.898 365.732 323.506 406 226.713 309.504 281.301 283.389 363.898 365.732"/><polygon class="cls-10" points="281.123 365.732 240.73 406 143.937 309.504 198.525 283.389 281.123 365.732"/><path class="cls-11" d="M406,377.078v3.4A24.575,24.575,0,0,1,381.39,405H353.231l-44.61-44.472,35.89-17.167,18.7-8.942Z"/><polygon class="cls-12" points="350.171 405.001 269.392 405.001 224.783 360.529 279.372 334.42 350.171 405.001"/><polygon class="cls-13" points="267.392 405.001 186.613 405.001 142.004 360.529 196.593 334.42 267.392 405.001"/><rect class="cls-14" x="140.332" y="227.184" width="65.585" height="36.704" rx="17.514"/><rect class="cls-15" x="223.205" y="227.184" width="65.585" height="36.704" rx="17.514"/><rect class="cls-16" x="306.079" y="227.184" width="65.585" height="36.704" rx="17.514"/><rect class="cls-17" x="140.332" y="279.658" width="65.585" height="36.704" rx="17.514"/><rect class="cls-18" x="223.205" y="279.658" width="65.585" height="36.704" rx="17.514"/><rect class="cls-19" x="306.079" y="279.658" width="65.585" height="36.704" rx="17.514"/><rect class="cls-20" x="140.332" y="332.132" width="65.585" height="36.704" rx="17.514"/><rect class="cls-21" x="223.205" y="332.132" width="65.585" height="36.704" rx="17.514"/><rect class="cls-22" x="306.079" y="332.132" width="65.585" height="36.704" rx="17.514"/><rect class="cls-23" x="312.804" y="123.597" width="72.012" height="36.817" rx="18.38" transform="translate(206.804 490.816) rotate(-90)"/><rect class="cls-24" x="127.599" y="123.597" width="72.012" height="36.817" rx="18.38" transform="translate(21.599 305.611) rotate(-90)"/><path class="cls-25" d="M406,380.018v.459A24.566,24.566,0,0,1,381.39,405H130.6A24.557,24.557,0,0,1,106,380.477v-.459a27.855,27.855,0,0,0,3.68.24H402.31A28.12,28.12,0,0,0,406,380.018Z"/><path class="cls-26" d="M367.221,148.127v11.535a18.41,18.41,0,0,1-36.82,0V148.127a18.41,18.41,0,0,0,36.82,0Z"/><path class="cls-27" d="M182.013,148.127v11.535a18.41,18.41,0,0,1-36.819,0V148.127a18.41,18.41,0,0,0,36.819,0Z"/></g></svg>