<svg xmlns="http://www.w3.org/2000/svg" xmlns:xlink="http://www.w3.org/1999/xlink" viewBox="0 0 512 512"><defs><style>.cls-1{fill:url(#linear-gradient);}.cls-2{fill:url(#linear-gradient-2);}.cls-3{fill:url(#linear-gradient-3);}.cls-4{fill:url(#linear-gradient-4);}.cls-5{fill:url(#linear-gradient-5);}.cls-15,.cls-16,.cls-6,.cls-7{opacity:0.5;}.cls-6{fill:url(#linear-gradient-6);}.cls-7{fill:url(#linear-gradient-7);}.cls-8{fill:url(#linear-gradient-8);}.cls-9{opacity:0.9;fill:url(#linear-gradient-9);}.cls-10{fill:url(#linear-gradient-10);}.cls-11{fill:url(#linear-gradient-11);}.cls-12{fill:url(#linear-gradient-12);}.cls-13{opacity:0.52;fill:url(#radial-gradient);}.cls-14{fill:url(#linear-gradient-13);}.cls-15{fill:url(#linear-gradient-14);}.cls-16{fill:url(#linear-gradient-15);}</style><linearGradient id="linear-gradient" x1="256.002" y1="240.381" x2="256.002" y2="375.065" gradientUnits="userSpaceOnUse"><stop offset="0" stop-color="#19223d"/><stop offset="1" stop-color="#040a21"/></linearGradient><linearGradient id="linear-gradient-2" x1="256.002" y1="145.326" x2="256.002" y2="166.474" gradientUnits="userSpaceOnUse"><stop offset="0" stop-color="#f5faff"/><stop offset="1" stop-color="#b6d1f1"/></linearGradient><linearGradient id="linear-gradient-3" x1="230.257" y1="151.836" x2="281.747" y2="151.836" gradientUnits="userSpaceOnUse"><stop offset="0" stop-color="#efbd61"/><stop offset="1" stop-color="#f27a46"/></linearGradient><linearGradient id="linear-gradient-4" x1="255.999" y1="181.438" x2="255.999" y2="209.668" xlink:href="#linear-gradient-2"/><linearGradient id="linear-gradient-5" x1="255.999" y1="346.103" x2="255.999" y2="374.333" xlink:href="#linear-gradient-2"/><linearGradient id="linear-gradient-6" x1="255.999" y1="353.797" x2="255.999" y2="407.007" gradientUnits="userSpaceOnUse"><stop offset="0" stop-opacity="0"/><stop offset="1"/></linearGradient><linearGradient id="linear-gradient-7" x1="338.999" y1="368.742" x2="272.647" y2="267.359" xlink:href="#linear-gradient-6"/><linearGradient id="linear-gradient-8" x1="256.002" y1="199.841" x2="256.002" y2="359.242" xlink:href="#linear-gradient-2"/><linearGradient id="linear-gradient-9" x1="256.002" y1="269.973" x2="256.002" y2="390.007" xlink:href="#linear-gradient"/><linearGradient id="linear-gradient-10" x1="325.872" y1="188.727" x2="377.362" y2="188.727" xlink:href="#linear-gradient-3"/><linearGradient id="linear-gradient-11" x1="129.973" y1="350.43" x2="145.394" y2="350.43" gradientUnits="userSpaceOnUse"><stop offset="0" stop-color="#c63454"/><stop offset="0.399" stop-color="#d95270"/><stop offset="0.755" stop-color="#e66582"/><stop offset="1" stop-color="#ea6c88"/></linearGradient><linearGradient id="linear-gradient-12" x1="256.002" y1="269.973" x2="256.002" y2="322.724" xlink:href="#linear-gradient"/><radialGradient id="radial-gradient" cx="230.257" cy="241.565" r="48.666" gradientUnits="userSpaceOnUse"><stop offset="0" stop-color="#f5faff"/><stop offset="1" stop-color="#b6d1f1" stop-opacity="0"/></radialGradient><linearGradient id="linear-gradient-13" x1="153.384" y1="156.867" x2="192.84" y2="156.867" xlink:href="#linear-gradient-3"/><linearGradient id="linear-gradient-14" x1="173.112" y1="161.305" x2="173.112" y2="177.614" xlink:href="#linear-gradient-6"/><linearGradient id="linear-gradient-15" x1="255.999" y1="320.467" x2="255.999" y2="402.542" xlink:href="#linear-gradient-6"/></defs><g id="Layer_2" data-name="Layer 2"><rect class="cls-1" x="106.004" y="165.81" width="299.996" height="208.327" rx="35.149"/><path class="cls-2" d="M280.688,137.862H231.316a20.6,20.6,0,0,0-17.257,9.348l-12.13,18.6H310.075l-12.13-18.6A20.6,20.6,0,0,0,280.688,137.862Z"/><rect class="cls-3" x="230.257" y="146.287" width="51.49" height="11.097" rx="5.548"/><path class="cls-4" d="M406,200.957v8.516H106v-8.516a35.157,35.157,0,0,1,35.15-35.15h229.7A35.152,35.152,0,0,1,406,200.957Z"/><path class="cls-5" d="M106,330.472H406v8.516a35.146,35.146,0,0,1-35.15,35.15H141.15A35.152,35.152,0,0,1,106,338.988Z"/><path class="cls-6" d="M406,330.472v8.516a35.146,35.146,0,0,1-35.15,35.15H141.15A35.152,35.152,0,0,1,106,338.988v-8.516h.792A35.143,35.143,0,0,0,141.15,358.22h229.7a35.135,35.135,0,0,0,34.358-27.748Z"/><path class="cls-7" d="M406,310.679v28.309a35.146,35.146,0,0,1-35.15,35.15H250.779l-38.344-38.344L321.779,226.459Z"/><circle class="cls-8" cx="256.002" cy="269.973" r="79.701"/><path class="cls-9" d="M256,329.99a60.017,60.017,0,1,1,60.015-60.015A60.085,60.085,0,0,1,256,329.99Z"/><rect class="cls-10" x="325.872" y="181" width="51.49" height="15.454" rx="6.548"/><rect class="cls-11" x="129.973" y="342.704" width="15.421" height="15.454" rx="7.71"/><path class="cls-12" d="M256,296.348a26.375,26.375,0,1,1,26.375-26.374A26.4,26.4,0,0,1,256,296.348Z"/><path class="cls-13" d="M256,329.99a60.017,60.017,0,1,1,60.015-60.015A60.085,60.085,0,0,1,256,329.99Z"/><path class="cls-14" d="M160.437,147.923h25.35a7.053,7.053,0,0,1,7.053,7.053V165.81a0,0,0,0,1,0,0H153.384a0,0,0,0,1,0,0V154.976A7.053,7.053,0,0,1,160.437,147.923Z"/><rect class="cls-15" x="153.384" y="159.76" width="39.456" height="6.05"/><path class="cls-16" d="M335.7,269.977a79.7,79.7,0,1,1-159.4,0c0-.792.009-1.592.037-2.375a79.7,79.7,0,0,0,159.325,0C335.69,268.385,335.7,269.185,335.7,269.977Z"/></g></svg>