<svg xmlns="http://www.w3.org/2000/svg" xmlns:xlink="http://www.w3.org/1999/xlink" viewBox="0 0 512 512"><defs><style>.cls-1{fill:url(#linear-gradient);}.cls-2,.cls-3,.cls-4,.cls-5,.cls-6,.cls-7{opacity:0.3;}.cls-2{fill:url(#linear-gradient-2);}.cls-3{fill:url(#linear-gradient-3);}.cls-4{fill:url(#linear-gradient-4);}.cls-5{fill:url(#linear-gradient-5);}.cls-6{fill:url(#linear-gradient-6);}.cls-7{fill:url(#linear-gradient-7);}.cls-8{fill:url(#linear-gradient-8);}.cls-9{fill:url(#linear-gradient-9);}.cls-10{fill:url(#linear-gradient-10);}.cls-11{fill:url(#linear-gradient-11);}.cls-12{fill:url(#linear-gradient-12);}.cls-13{fill:url(#linear-gradient-13);}.cls-14{opacity:0.5;fill:url(#linear-gradient-14);}</style><linearGradient id="linear-gradient" x1="165.705" y1="182.577" x2="398.465" y2="371.842" gradientUnits="userSpaceOnUse"><stop offset="0" stop-color="#f5faff"/><stop offset="1" stop-color="#b6d1f1"/></linearGradient><linearGradient id="linear-gradient-2" x1="377.664" y1="195.019" x2="248.119" y2="65.474" gradientUnits="userSpaceOnUse"><stop offset="0" stop-opacity="0"/><stop offset="1"/></linearGradient><linearGradient id="linear-gradient-3" x1="345.695" y1="277.409" x2="116.766" y2="48.48" xlink:href="#linear-gradient-2"/><linearGradient id="linear-gradient-4" x1="-5525.94" y1="1717.596" x2="-5525.94" y2="1447.849" gradientTransform="translate(1187.581 -1943.941) scale(0.17 1.322)" gradientUnits="userSpaceOnUse"><stop offset="0.127" stop-opacity="0"/><stop offset="1"/></linearGradient><linearGradient id="linear-gradient-5" x1="373.219" y1="315.149" x2="177.309" y2="119.239" xlink:href="#linear-gradient-2"/><linearGradient id="linear-gradient-6" x1="314.087" y1="350.886" x2="73.897" y2="110.695" xlink:href="#linear-gradient-2"/><linearGradient id="linear-gradient-7" x1="237.971" y1="369.429" x2="48.711" y2="180.168" xlink:href="#linear-gradient-2"/><linearGradient id="linear-gradient-8" x1="179.587" y1="303.898" x2="179.587" y2="388.074" gradientUnits="userSpaceOnUse"><stop offset="0" stop-color="#efbd61"/><stop offset="1" stop-color="#f27a46"/></linearGradient><linearGradient id="linear-gradient-9" x1="256.001" y1="353.079" x2="256.001" y2="236.083" gradientUnits="userSpaceOnUse"><stop offset="0" stop-color="#9cd068"/><stop offset="0.24" stop-color="#a1d26e"/><stop offset="0.571" stop-color="#aed980"/><stop offset="0.952" stop-color="#c3e39d"/><stop offset="1" stop-color="#c6e5a1"/></linearGradient><linearGradient id="linear-gradient-10" x1="332.416" y1="265.538" x2="332.416" y2="361.083" gradientUnits="userSpaceOnUse"><stop offset="0" stop-color="#93c2ff"/><stop offset="1" stop-color="#6a8fff"/></linearGradient><linearGradient id="linear-gradient-11" x1="166.851" y1="224.68" x2="192.323" y2="224.68" gradientUnits="userSpaceOnUse"><stop offset="0" stop-color="#c63454"/><stop offset="0.399" stop-color="#d95270"/><stop offset="0.755" stop-color="#e66582"/><stop offset="1" stop-color="#ea6c88"/></linearGradient><linearGradient id="linear-gradient-12" x1="243.266" y1="187.642" x2="268.737" y2="187.642" xlink:href="#linear-gradient-11"/><linearGradient id="linear-gradient-13" x1="319.68" y1="149.68" x2="345.152" y2="149.68" xlink:href="#linear-gradient-11"/><linearGradient id="linear-gradient-14" x1="255.999" y1="381.303" x2="255.999" y2="417.258" xlink:href="#linear-gradient-2"/></defs><g id="Layer_2" data-name="Layer 2"><rect class="cls-1" x="106.003" y="106.001" width="299.997" height="299.997" rx="20.377"/><polygon class="cls-2" points="405.997 205.568 405.997 241.137 323.358 158.498 341.148 140.718 405.997 205.568"/><polygon class="cls-3" points="405.997 319.926 405.997 355.496 331.358 280.857 246.319 195.818 264.108 178.038 405.997 319.926"/><rect class="cls-4" x="234.956" y="195.028" width="25.153" height="195.4" transform="translate(-134.489 260.77) rotate(-45)"/><path class="cls-5" d="M406,246.147V385.626A20.37,20.37,0,0,1,385.627,406h-23.34L320.9,364.606l10.46-83.749,3.95-31.62,8.19-65.589Z"/><polygon class="cls-6" points="395.937 349.646 339.588 405.996 286.108 405.996 244.879 364.766 266.088 219.808 395.937 349.646"/><polygon class="cls-7" points="333.648 400.496 328.148 405.996 209.929 405.996 165.969 362.036 192.429 259.287 333.648 400.496"/><rect class="cls-8" x="160.483" y="254.302" width="38.207" height="114.622" rx="19.104"/><rect class="cls-9" x="236.898" y="216.378" width="38.207" height="152.546" rx="19.104"/><rect class="cls-10" x="313.312" y="180.152" width="38.207" height="188.772" rx="19.104"/><circle class="cls-11" cx="179.587" cy="224.68" r="12.736"/><circle class="cls-12" cx="256.001" cy="187.642" r="12.736"/><circle class="cls-13" cx="332.416" cy="149.68" r="12.736"/><path class="cls-14" d="M406,382.856v2.77A20.37,20.37,0,0,1,385.627,406H126.38A20.379,20.379,0,0,1,106,385.626v-2.77Z"/></g></svg>