<svg xmlns="http://www.w3.org/2000/svg" xmlns:xlink="http://www.w3.org/1999/xlink" viewBox="0 0 512 512"><defs><style>.cls-1{fill:url(#linear-gradient);}.cls-2{fill:url(#linear-gradient-2);}.cls-3{opacity:0.2;fill:url(#linear-gradient-3);}.cls-4{fill:url(#linear-gradient-4);}.cls-5{fill:url(#linear-gradient-5);}.cls-6{fill:url(#linear-gradient-6);}.cls-7{fill:url(#linear-gradient-7);}.cls-8{fill:url(#linear-gradient-8);}.cls-9{fill:url(#linear-gradient-9);}.cls-10{fill:url(#linear-gradient-10);}.cls-11{fill:url(#linear-gradient-11);}.cls-12{fill:url(#linear-gradient-12);}.cls-13{fill:url(#linear-gradient-13);}.cls-14{fill:url(#linear-gradient-14);}.cls-15{fill:url(#linear-gradient-15);}.cls-16{fill:url(#linear-gradient-16);}</style><linearGradient id="linear-gradient" x1="256.001" y1="89.714" x2="256.001" y2="458.627" gradientUnits="userSpaceOnUse"><stop offset="0" stop-color="#f5faff"/><stop offset="0.685" stop-color="#b6d1f1"/><stop offset="0.941" stop-color="#7badd6"/></linearGradient><linearGradient id="linear-gradient-2" x1="255.999" y1="239.222" x2="255.999" y2="433.75" xlink:href="#linear-gradient"/><linearGradient id="linear-gradient-3" x1="122.539" y1="122.466" x2="491.887" y2="491.813" gradientUnits="userSpaceOnUse"><stop offset="0.442"/><stop offset="0.658" stop-color="#eaf3fd"/></linearGradient><linearGradient id="linear-gradient-4" x1="182.361" y1="329.641" x2="334.262" y2="177.739" gradientTransform="translate(-106.039 256) rotate(-45)" gradientUnits="userSpaceOnUse"><stop offset="0" stop-color="#c7e4f9"/><stop offset="0.16" stop-color="#e1f1ff"/><stop offset="1" stop-color="#f5faff"/></linearGradient><linearGradient id="linear-gradient-5" x1="230.288" y1="256" x2="304.504" y2="256" gradientUnits="userSpaceOnUse"><stop offset="0" stop-color="#93c2ff"/><stop offset="1" stop-color="#6a8fff"/></linearGradient><linearGradient id="linear-gradient-6" x1="256.001" y1="267.5" x2="256.001" y2="216.642" gradientTransform="translate(478.073 -33.93) rotate(90)" xlink:href="#linear-gradient-5"/><linearGradient id="linear-gradient-7" x1="204.534" y1="281.665" x2="255.996" y2="281.665" gradientTransform="translate(193.918 643.654) rotate(-135)" gradientUnits="userSpaceOnUse"><stop offset="0" stop-color="#19223d"/><stop offset="1" stop-color="#0a1030"/></linearGradient><linearGradient id="linear-gradient-8" x1="248.758" y1="248.757" x2="282.65" y2="282.649" gradientUnits="userSpaceOnUse"><stop offset="0" stop-color="#f5faff"/><stop offset="0.402" stop-color="#b6d1f1"/><stop offset="0.658" stop-color="#7badd6"/></linearGradient><linearGradient id="linear-gradient-9" x1="167.663" y1="249.767" x2="167.663" y2="262.232" xlink:href="#linear-gradient-5"/><linearGradient id="linear-gradient-10" x1="344.34" y1="249.767" x2="344.34" y2="264.271" xlink:href="#linear-gradient-5"/><linearGradient id="linear-gradient-11" x1="256.001" y1="161.428" x2="256.001" y2="173.893" gradientTransform="translate(88.341 423.662) rotate(-90)" xlink:href="#linear-gradient-5"/><linearGradient id="linear-gradient-12" x1="256.001" y1="338.106" x2="256.001" y2="350.571" gradientTransform="translate(-88.338 600.34) rotate(-90)" xlink:href="#linear-gradient-5"/><linearGradient id="linear-gradient-13" x1="318.466" y1="187.302" x2="318.466" y2="199.767" gradientTransform="translate(406.804 555.574) rotate(-135)" xlink:href="#linear-gradient-5"/><linearGradient id="linear-gradient-14" x1="193.536" y1="312.232" x2="193.536" y2="324.697" gradientTransform="translate(105.197 680.504) rotate(-135)" xlink:href="#linear-gradient-5"/><linearGradient id="linear-gradient-15" x1="318.466" y1="312.232" x2="318.466" y2="324.697" gradientTransform="translate(768.844 318.462) rotate(135)" xlink:href="#linear-gradient-5"/><linearGradient id="linear-gradient-16" x1="193.536" y1="187.302" x2="193.536" y2="199.767" gradientTransform="translate(467.237 193.532) rotate(135)" xlink:href="#linear-gradient-5"/></defs><g id="Layer_2" data-name="Layer 2"><circle class="cls-1" cx="256.001" cy="256" r="149.999"/><path class="cls-2" d="M406,256a150,150,0,1,1-300,0q0-4.125.22-8.19a150,150,0,0,0,299.557,0Q406,251.875,406,256Z"/><path class="cls-3" d="M406,256A150,150,0,0,1,256,406q-2.6,0-5.18-.09l-72.36-72.36L333.618,178.38,405.9,250.66C405.967,252.43,406,254.21,406,256Z"/><circle class="cls-4" cx="256.001" cy="256" r="109.77"/><path class="cls-5" d="M256,249.767H298.59A6.232,6.232,0,0,1,304.822,256v0a6.232,6.232,0,0,1-6.232,6.232H256a0,0,0,0,1,0,0V249.767A0,0,0,0,1,256,249.767Z"/><path class="cls-6" d="M222.072,215.661h61.447a6.411,6.411,0,0,1,6.411,6.411v0a6.411,6.411,0,0,1-6.411,6.411H222.072a0,0,0,0,1,0,0V215.661A0,0,0,0,1,222.072,215.661Z" transform="translate(33.93 478.073) rotate(-90)"/><rect class="cls-7" x="195.131" y="278.635" width="70.268" height="6.061" rx="3.03" transform="translate(592.255 318.009) rotate(135)"/><path class="cls-8" d="M256,268.558A12.558,12.558,0,1,1,268.559,256,12.727,12.727,0,0,1,256,268.558Z"/><rect class="cls-9" x="161.43" y="249.767" width="12.465" height="12.465" rx="6.232"/><rect class="cls-10" x="338.107" y="249.767" width="12.465" height="12.465" rx="6.232"/><rect class="cls-11" x="249.769" y="161.428" width="12.465" height="12.465" rx="6.232" transform="translate(423.662 -88.341) rotate(90)"/><rect class="cls-12" x="249.769" y="338.107" width="12.465" height="12.465" rx="6.232" transform="translate(600.34 88.338) rotate(90)"/><rect class="cls-13" x="312.233" y="187.302" width="12.465" height="12.465" rx="6.232" transform="translate(680.504 105.193) rotate(135)"/><rect class="cls-14" x="187.304" y="312.233" width="12.465" height="12.465" rx="6.232" transform="translate(555.577 406.801) rotate(135)"/><rect class="cls-15" x="312.233" y="312.233" width="12.465" height="12.465" rx="6.232" transform="translate(318.464 768.843) rotate(-135)"/><rect class="cls-16" x="187.304" y="187.302" width="12.465" height="12.465" rx="6.232" transform="translate(193.537 467.235) rotate(-135)"/></g></svg>