<svg xmlns="http://www.w3.org/2000/svg" xmlns:xlink="http://www.w3.org/1999/xlink" viewBox="0 0 512 512"><defs><style>.cls-1{fill:#f5faff;}.cls-2{fill:url(#linear-gradient);}.cls-3{fill:url(#linear-gradient-2);}.cls-4{opacity:0.3;fill:url(#linear-gradient-3);}</style><linearGradient id="linear-gradient" x1="231.213" y1="200.934" x2="305.623" y2="158.487" gradientUnits="userSpaceOnUse"><stop offset="0" stop-color="#f5faff"/><stop offset="1" stop-color="#b6d1f1"/></linearGradient><linearGradient id="linear-gradient-2" x1="247.073" y1="230.999" x2="280.441" y2="426.431" gradientUnits="userSpaceOnUse"><stop offset="0.173" stop-color="#f5faff"/><stop offset="1" stop-color="#b6d1f1"/></linearGradient><linearGradient id="linear-gradient-3" x1="268.648" y1="280.641" x2="557.667" y2="595.11" gradientUnits="userSpaceOnUse"><stop offset="0" stop-opacity="0"/><stop offset="1"/></linearGradient></defs><g id="Layer_2" data-name="Layer 2"><path class="cls-1" d="M330.251,205.715a75.374,75.374,0,0,0-40.839,11.966,67.61,67.61,0,1,0-132.147,24.357,57.771,57.771,0,0,0,6.51,115.175H330.251a75.749,75.749,0,1,0,0-151.5Z"/><path class="cls-2" d="M289.42,217.669a75.879,75.879,0,0,0-24.72,25.82c.11-1.49.16-3,.16-4.52a64.909,64.909,0,0,0-97.9-55.891,67.621,67.621,0,0,1,122.46,34.591Z"/><path class="cls-3" d="M406,281.469a75.742,75.742,0,0,1-75.75,75.74H163.77a57.78,57.78,0,0,1-52.2-32.99,57.53,57.53,0,0,0,32.28,9.85H310.32a75.751,75.751,0,0,0,66.2-112.57A75.576,75.576,0,0,1,406,281.469Z"/><path class="cls-4" d="M406,281.469a75.742,75.742,0,0,1-75.75,75.74H175.29l151.4-151.4c1.18-.06,2.37-.09,3.56-.09A75.744,75.744,0,0,1,406,281.469Z"/></g></svg>