<svg xmlns="http://www.w3.org/2000/svg" xmlns:xlink="http://www.w3.org/1999/xlink" viewBox="0 0 512 512"><defs><style>.cls-1{fill:url(#linear-gradient);}.cls-2{opacity:0.5;fill:url(#linear-gradient-2);}.cls-3{opacity:0.1;fill:url(#linear-gradient-3);}.cls-4{fill:url(#linear-gradient-4);}.cls-5{fill:#ea6c88;}.cls-6{fill:url(#linear-gradient-5);}.cls-7{fill:url(#linear-gradient-6);}.cls-8{opacity:0.2;fill:url(#linear-gradient-7);}.cls-9{fill:url(#radial-gradient);}</style><linearGradient id="linear-gradient" x1="106.002" y1="256" x2="405.998" y2="256" gradientUnits="userSpaceOnUse"><stop offset="0" stop-color="#f5faff"/><stop offset="1" stop-color="#b6d1f1"/></linearGradient><linearGradient id="linear-gradient-2" x1="341.222" y1="333.532" x2="181.513" y2="194.161" gradientUnits="userSpaceOnUse"><stop offset="0" stop-color="#d9e8f9" stop-opacity="0"/><stop offset="1"/></linearGradient><linearGradient id="linear-gradient-3" x1="237.682" y1="236.827" x2="316.694" y2="317.986" gradientUnits="userSpaceOnUse"><stop offset="0" stop-color="#383a44"/><stop offset="1" stop-color="#19223d"/></linearGradient><linearGradient id="linear-gradient-4" x1="233.505" y1="292.684" x2="278.494" y2="292.684" gradientTransform="matrix(0.815, 0.579, -0.579, 0.815, 195.476, -100.943)" gradientUnits="userSpaceOnUse"><stop offset="0" stop-color="#93c2ff"/><stop offset="1" stop-color="#6a8fff"/></linearGradient><linearGradient id="linear-gradient-5" x1="242.122" y1="256" x2="269.878" y2="256" gradientTransform="matrix(0.815, 0.579, -0.579, 0.815, 195.476, -100.943)" xlink:href="#linear-gradient-3"/><linearGradient id="linear-gradient-6" x1="256.004" y1="133.284" x2="256.004" y2="500.508" gradientTransform="matrix(1, 0, 0, 1, 0, 0)" xlink:href="#linear-gradient-4"/><linearGradient id="linear-gradient-7" x1="256.004" y1="327.321" x2="256.004" y2="431.997" gradientUnits="userSpaceOnUse"><stop offset="0" stop-opacity="0"/><stop offset="1"/></linearGradient><radialGradient id="radial-gradient" cx="118.111" cy="131.604" r="150" gradientTransform="translate(0.004 0.002)" gradientUnits="userSpaceOnUse"><stop offset="0" stop-color="#f5faff"/><stop offset="1" stop-color="#b6d1f1" stop-opacity="0"/></radialGradient></defs><g id="Layer_2" data-name="Layer 2"><circle class="cls-1" cx="256" cy="256" r="149.998"/><path class="cls-2" d="M365.523,263.307A109.909,109.909,0,0,1,263.3,365.516l-49.769-49.769,84.859-119.569Z"/><path class="cls-3" d="M309.356,247.607H264.035V202.286A8.034,8.034,0,0,0,256,194.251h0a8.035,8.035,0,0,0-8.036,8.035v45.321H202.643a8.036,8.036,0,0,0,0,16.071h45.321V309A8.036,8.036,0,0,0,256,317.035h0A8.035,8.035,0,0,0,264.035,309V263.678h45.321a8.036,8.036,0,1,0,0-16.071Z"/><path class="cls-4" d="M274.343,269.021,217.179,315.7a3.015,3.015,0,0,1-4.741-3.365l25.222-69.364Z"/><path class="cls-5" d="M274.343,269.021,237.66,242.975,294.828,196.3a3.014,3.014,0,0,1,4.739,3.366Z"/><path class="cls-6" d="M247.966,267.317a13.879,13.879,0,1,1,19.35-3.282A14.064,14.064,0,0,1,247.966,267.317Z"/><path class="cls-7" d="M256,106A150,150,0,1,0,406,256,149.995,149.995,0,0,0,256,106Zm8.031,259.472V349.178A8.035,8.035,0,0,0,256,341.142h0a8.036,8.036,0,0,0-8.036,8.036V365.47A109.919,109.919,0,0,1,146.346,260.786h13.227a8.036,8.036,0,0,0,0-16.072h-12.76a109.957,109.957,0,0,1,101.151-98.19v9.8A8.036,8.036,0,0,0,256,164.358h0a8.035,8.035,0,0,0,8.035-8.036v-9.8A109.966,109.966,0,0,1,365.2,244.714H352.427a8.036,8.036,0,0,0,0,16.072h13.235A109.925,109.925,0,0,1,264.035,365.471Z"/><path class="cls-8" d="M406,256a150,150,0,1,1-300,0q0-3.69.18-7.35a150,150,0,0,0,299.636,0Q406,252.307,406,256Z"/><circle class="cls-9" cx="256.004" cy="255.997" r="149.998"/></g></svg>