<svg xmlns="http://www.w3.org/2000/svg" xmlns:xlink="http://www.w3.org/1999/xlink" viewBox="0 0 512 512"><defs><style>.cls-1{fill:url(#linear-gradient);}.cls-2{fill:url(#linear-gradient-2);}.cls-3,.cls-4,.cls-5,.cls-6,.cls-7{opacity:0.5;}.cls-3{fill:url(#linear-gradient-3);}.cls-4{fill:url(#linear-gradient-4);}.cls-5{fill:url(#linear-gradient-5);}.cls-6{fill:url(#linear-gradient-6);}.cls-7{fill:url(#linear-gradient-7);}.cls-8{fill:url(#linear-gradient-8);}.cls-9{fill:url(#linear-gradient-9);}.cls-10{fill:url(#linear-gradient-10);}.cls-11{fill:url(#linear-gradient-11);}.cls-12{fill:url(#linear-gradient-12);}.cls-13{fill:url(#linear-gradient-13);}.cls-14{fill:url(#linear-gradient-14);}</style><linearGradient id="linear-gradient" x1="59.714" y1="256" x2="359.714" y2="256" gradientUnits="userSpaceOnUse"><stop offset="0" stop-color="#93c2ff"/><stop offset="1" stop-color="#6a8fff"/></linearGradient><linearGradient id="linear-gradient-2" x1="256" y1="154.429" x2="256" y2="626.097" gradientTransform="translate(-0.001 512) rotate(-90)" xlink:href="#linear-gradient"/><linearGradient id="linear-gradient-3" x1="268.527" y1="339.39" x2="268.527" y2="292.628" gradientUnits="userSpaceOnUse"><stop offset="0" stop-opacity="0"/><stop offset="1"/></linearGradient><linearGradient id="linear-gradient-4" x1="243.142" y1="308.823" x2="114.046" y2="133.385" xlink:href="#linear-gradient-3"/><linearGradient id="linear-gradient-5" x1="210.439" y1="250.475" x2="210.439" y2="196.215" xlink:href="#linear-gradient-3"/><linearGradient id="linear-gradient-6" x1="-657.449" y1="1133.815" x2="-657.449" y2="1008.256" gradientTransform="matrix(0.396, -0.396, 0.569, 0.569, -198.387, -682.296)" xlink:href="#linear-gradient-3"/><linearGradient id="linear-gradient-7" x1="-580.276" y1="1191.003" x2="-580.276" y2="1064.179" gradientTransform="matrix(0.396, -0.396, 0.569, 0.569, -198.387, -682.296)" xlink:href="#linear-gradient-3"/><linearGradient id="linear-gradient-8" x1="344.357" y1="201.407" x2="344.357" y2="352.578" gradientUnits="userSpaceOnUse"><stop offset="0" stop-color="#efbd61"/><stop offset="1" stop-color="#f27a46"/></linearGradient><linearGradient id="linear-gradient-9" x1="340.175" y1="206.424" x2="357.842" y2="248.159" gradientTransform="translate(128.053 560.661) rotate(-90)" xlink:href="#linear-gradient-8"/><linearGradient id="linear-gradient-10" x1="256" y1="319.673" x2="256" y2="307.492" gradientUnits="userSpaceOnUse"><stop offset="0" stop-color="#19223d"/><stop offset="1" stop-color="#0a1030"/></linearGradient><linearGradient id="linear-gradient-11" x1="162.911" y1="192.79" x2="162.911" y2="204.722" gradientUnits="userSpaceOnUse"><stop offset="0" stop-color="#f5faff"/><stop offset="1" stop-color="#b6d1f1"/></linearGradient><linearGradient id="linear-gradient-12" x1="223.071" y1="192.79" x2="223.071" y2="204.722" xlink:href="#linear-gradient-11"/><linearGradient id="linear-gradient-13" x1="189.486" y1="218.784" x2="189.486" y2="230.716" xlink:href="#linear-gradient-11"/><linearGradient id="linear-gradient-14" x1="189.486" y1="244.778" x2="189.486" y2="256.71" xlink:href="#linear-gradient-11"/></defs><g id="Layer_2" data-name="Layer 2"><rect class="cls-1" x="106" y="160.83" width="300" height="190.341" rx="18.442"/><rect class="cls-2" x="171.829" y="117" width="168.341" height="278" rx="7.442" transform="translate(512 0.001) rotate(90)"/><path class="cls-3" d="M402.877,343a18.409,18.409,0,0,1-15.32,8.17H169.877l-35.7-35.7,242.76,1.6Z"/><polygon class="cls-4" points="329.277 332.279 310.387 351.169 230.957 351.169 134.307 254.519 245.147 248.139 329.277 332.279"/><polygon class="cls-5" points="286.571 264.143 169.252 264.034 134.307 229.088 245.147 222.719 286.571 264.143"/><polygon class="cls-6" points="219.429 226.286 158.786 226.5 134.453 202.167 192 198.857 219.429 226.286"/><polygon class="cls-7" points="279.367 231.796 255.688 255.474 200.592 200.377 245.373 197.802 279.367 231.796"/><rect class="cls-8" x="314.812" y="193.358" width="59.091" height="45.892" rx="7.85"/><path class="cls-9" d="M329.262,191.758h30.191a2.85,2.85,0,0,1,2.85,2.85V238a2.851,2.851,0,0,1-2.851,2.851h-30.19A2.851,2.851,0,0,1,326.411,238V194.609A2.851,2.851,0,0,1,329.262,191.758Z" transform="translate(560.661 -128.053) rotate(90)"/><rect class="cls-10" x="133.893" y="307.278" width="244.214" height="11.932" rx="5.698"/><rect class="cls-11" x="132.857" y="192.79" width="60.107" height="11.932" rx="5.966"/><rect class="cls-12" x="200.571" y="192.79" width="45" height="11.932" rx="5.966"/><rect class="cls-13" x="132.857" y="218.784" width="113.257" height="11.932" rx="5.47"/><rect class="cls-14" x="132.857" y="244.778" width="113.257" height="11.932" rx="5.47"/></g></svg>