<svg xmlns="http://www.w3.org/2000/svg" xmlns:xlink="http://www.w3.org/1999/xlink" viewBox="0 0 512 512"><defs><style>.cls-1{fill:url(#linear-gradient);}.cls-10,.cls-11,.cls-2,.cls-4,.cls-5,.cls-6{opacity:0.5;}.cls-2{fill:url(#linear-gradient-2);}.cls-3{fill:url(#linear-gradient-3);}.cls-4{fill:url(#linear-gradient-4);}.cls-5{fill:url(#linear-gradient-5);}.cls-6{fill:url(#linear-gradient-6);}.cls-7{fill:url(#linear-gradient-7);}.cls-8{fill:url(#linear-gradient-8);}.cls-9{fill:url(#linear-gradient-9);}.cls-10{fill:url(#linear-gradient-10);}.cls-11{fill:url(#linear-gradient-11);}</style><linearGradient id="linear-gradient" x1="201.079" y1="288.585" x2="404.822" y2="288.585" gradientUnits="userSpaceOnUse"><stop offset="0" stop-color="#efbd61"/><stop offset="1" stop-color="#f27a46"/></linearGradient><linearGradient id="linear-gradient-2" x1="233.809" y1="225.353" x2="383.14" y2="335.572" gradientUnits="userSpaceOnUse"><stop offset="0"/><stop offset="1" stop-opacity="0"/></linearGradient><linearGradient id="linear-gradient-3" x1="104.826" y1="231.999" x2="372.57" y2="231.999" gradientUnits="userSpaceOnUse"><stop offset="0" stop-color="#93c2ff"/><stop offset="1" stop-color="#6a8fff"/></linearGradient><linearGradient id="linear-gradient-4" x1="-2771.734" y1="387.918" x2="-2771.734" y2="96.577" gradientTransform="translate(1158.3 -43.533) scale(0.316 0.844)" gradientUnits="userSpaceOnUse"><stop offset="0" stop-opacity="0"/><stop offset="1"/></linearGradient><linearGradient id="linear-gradient-5" x1="350.5" y1="259.487" x2="198.832" y2="107.819" gradientUnits="userSpaceOnUse"><stop offset="0" stop-opacity="0"/><stop offset="0.833"/></linearGradient><linearGradient id="linear-gradient-6" x1="-2931.868" y1="327.959" x2="-2931.868" y2="56.082" gradientTransform="translate(1137.33 7.093) scale(0.316 0.844)" xlink:href="#linear-gradient-4"/><linearGradient id="linear-gradient-7" x1="156.067" y1="207.35" x2="188.447" y2="241.853" gradientUnits="userSpaceOnUse"><stop offset="0" stop-color="#f5faff"/><stop offset="1" stop-color="#b6d1f1"/></linearGradient><linearGradient id="linear-gradient-8" x1="229.316" y1="207.582" x2="259.114" y2="244.339" xlink:href="#linear-gradient-7"/><linearGradient id="linear-gradient-9" x1="298.791" y1="207.332" x2="331.722" y2="241.309" xlink:href="#linear-gradient-7"/><linearGradient id="linear-gradient-10" x1="238.702" y1="296.938" x2="238.702" y2="408.528" gradientTransform="matrix(1, 0, 0, 1, 0, 0)" xlink:href="#linear-gradient-4"/><linearGradient id="linear-gradient-11" x1="302.954" y1="321.877" x2="302.954" y2="414.812" gradientUnits="userSpaceOnUse"><stop offset="0.257" stop-opacity="0"/><stop offset="1"/></linearGradient></defs><g id="Layer_2" data-name="Layer 2"><path class="cls-1" d="M394.855,191.869H211.046a9.968,9.968,0,0,0-9.967,9.967V355.787a9.968,9.968,0,0,0,9.967,9.967h145.6a27.922,27.922,0,0,1,17.074,5.828L388.761,383.2a9.966,9.966,0,0,0,16.061-7.886V201.836A9.967,9.967,0,0,0,394.855,191.869Z"/><path class="cls-2" d="M386.685,191.869V320.314a27.239,27.239,0,0,1-27.213,27.2H201.082V201.837a9.964,9.964,0,0,1,9.968-9.968Z"/><path class="cls-3" d="M359.472,104.9H117.924a13.1,13.1,0,0,0-13.1,13.1V345.973a13.1,13.1,0,0,0,21.107,10.364l22.13-17.1a27.923,27.923,0,0,1,17.074-5.829H359.472a13.1,13.1,0,0,0,13.1-13.1V118A13.1,13.1,0,0,0,359.472,104.9Z"/><rect class="cls-4" x="258.464" y="199.692" width="47.113" height="125.827" transform="translate(-103.088 276.334) rotate(-45)"/><polygon class="cls-5" points="372.574 248.24 372.574 314.882 292.477 234.775 325.788 201.464 372.574 248.24"/><rect class="cls-6" x="186.868" y="199.692" width="47.113" height="125.827" transform="translate(-124.058 225.708) rotate(-45)"/><circle class="cls-7" cx="167.146" cy="219.156" r="23.658"/><circle class="cls-8" cx="238.698" cy="219.156" r="23.658"/><circle class="cls-9" cx="310.25" cy="219.156" r="23.658"/><path class="cls-10" d="M372.574,300.872v19.442a13.1,13.1,0,0,1-13.1,13.093H165.141a27.955,27.955,0,0,0-17.073,5.825l-22.134,17.1a13.1,13.1,0,0,1-21.105-10.361V326.533A13.1,13.1,0,0,0,125.934,336.9l22.134-17.1a27.893,27.893,0,0,1,17.073-5.826H359.472A13.1,13.1,0,0,0,372.574,300.872Z"/><path class="cls-11" d="M404.826,357.032v18.282a9.973,9.973,0,0,1-16.065,7.892l-15.038-11.621a27.924,27.924,0,0,0-17.074-5.835H211.05a9.956,9.956,0,0,1-9.968-9.958V337.5a9.964,9.964,0,0,0,9.968,9.967h145.6a27.915,27.915,0,0,1,17.074,5.826l15.038,11.621A9.967,9.967,0,0,0,404.826,357.032Z"/></g></svg>