<svg xmlns="http://www.w3.org/2000/svg" xmlns:xlink="http://www.w3.org/1999/xlink" viewBox="0 0 512 512"><defs><style>.cls-1{fill:url(#linear-gradient);}.cls-13,.cls-2,.cls-4,.cls-6,.cls-7,.cls-8{opacity:0.5;}.cls-2{fill:url(#linear-gradient-2);}.cls-3{fill:url(#linear-gradient-3);}.cls-4{fill:url(#linear-gradient-4);}.cls-5{fill:url(#linear-gradient-5);}.cls-6{fill:url(#linear-gradient-6);}.cls-7{fill:url(#linear-gradient-7);}.cls-8{fill:url(#linear-gradient-8);}.cls-9{fill:url(#linear-gradient-9);}.cls-10{fill:url(#linear-gradient-10);}.cls-11{fill:url(#linear-gradient-11);}.cls-12{fill:url(#linear-gradient-12);}.cls-13{fill:url(#linear-gradient-13);}</style><linearGradient id="linear-gradient" x1="256.001" y1="73.009" x2="256.001" y2="255.389" gradientUnits="userSpaceOnUse"><stop offset="0" stop-color="#9cd068"/><stop offset="1" stop-color="#c6e5a1"/></linearGradient><linearGradient id="linear-gradient-2" x1="255.999" y1="114.431" x2="255.999" y2="278.297" gradientUnits="userSpaceOnUse"><stop offset="0.071" stop-opacity="0"/><stop offset="1"/></linearGradient><linearGradient id="linear-gradient-3" x1="256.001" y1="100.739" x2="256.001" y2="307.074" gradientUnits="userSpaceOnUse"><stop offset="0" stop-color="#93c2ff"/><stop offset="1" stop-color="#6a8fff"/></linearGradient><linearGradient id="linear-gradient-4" x1="255.999" y1="147.602" x2="255.999" y2="332.991" xlink:href="#linear-gradient-2"/><linearGradient id="linear-gradient-5" x1="165.934" y1="201.476" x2="420.683" y2="456.225" gradientUnits="userSpaceOnUse"><stop offset="0" stop-color="#efbd61"/><stop offset="1" stop-color="#f27a46"/></linearGradient><linearGradient id="linear-gradient-6" x1="39.229" y1="254.054" x2="39.229" y2="-35.004" gradientTransform="translate(278.755 174.306) scale(0.316 0.666)" gradientUnits="userSpaceOnUse"><stop offset="0" stop-opacity="0"/><stop offset="1"/></linearGradient><linearGradient id="linear-gradient-7" x1="357.808" y1="322.263" x2="238.871" y2="203.326" gradientUnits="userSpaceOnUse"><stop offset="0" stop-opacity="0"/><stop offset="0.833"/></linearGradient><linearGradient id="linear-gradient-8" x1="-119.65" y1="194.118" x2="-119.65" y2="-75.63" gradientTransform="translate(256.985 210.114) scale(0.316 0.684)" xlink:href="#linear-gradient-6"/><linearGradient id="linear-gradient-9" x1="161.537" y1="291.543" x2="208.483" y2="291.543" gradientUnits="userSpaceOnUse"><stop offset="0" stop-color="#f5faff"/><stop offset="1" stop-color="#b6d1f1"/></linearGradient><linearGradient id="linear-gradient-10" x1="232.528" y1="291.543" x2="279.474" y2="291.543" xlink:href="#linear-gradient-9"/><linearGradient id="linear-gradient-11" x1="303.52" y1="291.543" x2="350.466" y2="291.543" xlink:href="#linear-gradient-9"/><linearGradient id="linear-gradient-12" x1="200.429" y1="146.386" x2="200.429" y2="224.979" xlink:href="#linear-gradient-5"/><linearGradient id="linear-gradient-13" x1="255.999" y1="379.793" x2="255.999" y2="442.497" gradientTransform="matrix(1, 0, 0, 1, 0, 0)" xlink:href="#linear-gradient-6"/></defs><g id="Layer_2" data-name="Layer 2"><rect class="cls-1" x="131.018" y="106.605" width="249.966" height="189.727" rx="12.944"/><path class="cls-2" d="M380.982,125.865V283.384a12.943,12.943,0,0,1-12.941,12.949H143.965a12.95,12.95,0,0,1-12.949-12.949V125.865Z"/><rect class="cls-3" x="114.603" y="138.748" width="282.797" height="214.647" rx="14.645"/><path class="cls-4" d="M397.4,160.537V338.746a14.642,14.642,0,0,1-14.64,14.649H129.25a14.65,14.65,0,0,1-14.65-14.649V160.537Z"/><rect class="cls-5" x="106.003" y="177.692" width="299.997" height="227.702" rx="15.535"/><rect class="cls-6" x="267.785" y="277.45" width="46.744" height="98.401" transform="translate(-145.698 301.553) rotate(-45)"/><polygon class="cls-7" points="371.653 303.049 371.653 369.168 308.843 306.348 341.893 273.298 371.653 303.049"/><rect class="cls-8" x="195.786" y="275.122" width="46.744" height="101.128" transform="translate(-166.105 250.359) rotate(-45)"/><circle class="cls-9" cx="185.01" cy="291.543" r="23.473"/><circle class="cls-10" cx="256.001" cy="291.543" r="23.473"/><circle class="cls-11" cx="326.993" cy="291.543" r="23.473"/><path class="cls-12" d="M245.962,137.844H154.9a20.034,20.034,0,0,0-18.508,12.366L125,177.692H275.855L264.47,150.21A20.034,20.034,0,0,0,245.962,137.844Z"/><path class="cls-13" d="M406,364.785v25.07a15.535,15.535,0,0,1-15.53,15.54H121.54A15.543,15.543,0,0,1,106,389.855v-25.07a15.543,15.543,0,0,0,15.54,15.54H390.467A15.535,15.535,0,0,0,406,364.785Z"/></g></svg>