<svg xmlns="http://www.w3.org/2000/svg" xmlns:xlink="http://www.w3.org/1999/xlink" viewBox="0 0 512 512"><defs><style>.cls-1{fill:url(#linear-gradient);}.cls-2{fill:url(#linear-gradient-2);}.cls-3{opacity:0.2;fill:url(#linear-gradient-3);}.cls-4{fill:url(#linear-gradient-4);}.cls-5,.cls-7,.cls-9{opacity:0.5;}.cls-5{fill:url(#linear-gradient-5);}.cls-6{fill:url(#linear-gradient-6);}.cls-7{fill:url(#linear-gradient-7);}.cls-8{fill:url(#linear-gradient-8);}.cls-9{fill:url(#linear-gradient-9);}.cls-10{fill:url(#linear-gradient-10);}</style><linearGradient id="linear-gradient" x1="171.193" y1="106.129" x2="353.372" y2="442.354" gradientTransform="translate(-6.647 518.647) rotate(-90)" gradientUnits="userSpaceOnUse"><stop offset="0" stop-color="#f5faff"/><stop offset="0.976" stop-color="#9cc1e5"/></linearGradient><linearGradient id="linear-gradient-2" x1="124.683" y1="118.036" x2="395.087" y2="388.44" gradientTransform="translate(6.647 505.353) rotate(-90)" gradientUnits="userSpaceOnUse"><stop offset="0" stop-color="#f5faff"/><stop offset="1" stop-color="#b6d1f1"/></linearGradient><linearGradient id="linear-gradient-3" x1="242.321" y1="235.673" x2="361.85" y2="355.202" gradientUnits="userSpaceOnUse"><stop offset="0"/><stop offset="1" stop-color="#eaf3fd" stop-opacity="0"/></linearGradient><linearGradient id="linear-gradient-4" x1="138.572" y1="131.924" x2="339.218" y2="332.57" gradientUnits="userSpaceOnUse"><stop offset="0" stop-color="#93c2ff"/><stop offset="1" stop-color="#6a8fff"/></linearGradient><linearGradient id="linear-gradient-5" x1="345.42" y1="277.19" x2="262.558" y2="194.328" gradientUnits="userSpaceOnUse"><stop offset="0" stop-opacity="0"/><stop offset="1"/></linearGradient><linearGradient id="linear-gradient-6" x1="214.278" y1="280.233" x2="367.689" y2="280.233" gradientUnits="userSpaceOnUse"><stop offset="0" stop-color="#9cd068"/><stop offset="0.24" stop-color="#a1d26e"/><stop offset="0.571" stop-color="#aed980"/><stop offset="0.952" stop-color="#c3e39d"/><stop offset="1" stop-color="#c6e5a1"/></linearGradient><linearGradient id="linear-gradient-7" x1="230.757" y1="327.588" x2="170.449" y2="268.507" xlink:href="#linear-gradient-5"/><linearGradient id="linear-gradient-8" x1="144.312" y1="305.861" x2="274.401" y2="305.861" xlink:href="#linear-gradient-6"/><linearGradient id="linear-gradient-9" x1="756.568" y1="1805.062" x2="756.568" y2="1676.413" gradientTransform="translate(-35.527 -1173.938) scale(0.415 0.781)" xlink:href="#linear-gradient-5"/><linearGradient id="linear-gradient-10" x1="218.7" y1="178.333" x2="264.596" y2="224.23" gradientUnits="userSpaceOnUse"><stop offset="0" stop-color="#efbd61"/><stop offset="1" stop-color="#f27a46"/></linearGradient></defs><g id="Layer_2" data-name="Layer 2"><path class="cls-1" d="M162.715,119.294h186.57a50.068,50.068,0,0,1,50.068,50.068v186.57A50.067,50.067,0,0,1,349.286,406H162.714a50.067,50.067,0,0,1-50.067-50.067V169.363A50.069,50.069,0,0,1,162.715,119.294Z" transform="translate(518.647 6.647) rotate(90)"/><path class="cls-2" d="M162.715,106h186.57a50.068,50.068,0,0,1,50.068,50.068v186.57a50.067,50.067,0,0,1-50.067,50.067H162.714a50.067,50.067,0,0,1-50.067-50.067V156.069A50.069,50.069,0,0,1,162.715,106Z" transform="translate(505.353 -6.647) rotate(90)"/><path class="cls-3" d="M399.352,185.342V342.633a50.127,50.127,0,0,1-50.066,50.076H192L151.188,351.9,358.544,144.535Z"/><rect class="cls-4" x="144.31" y="137.661" width="223.381" height="223.381" rx="26.389"/><path class="cls-5" d="M367.686,243.213v91.435a26.191,26.191,0,0,1-3.118,12.439l-2.747,2.747-86.578-86.578,56.238-56.248Z"/><path class="cls-6" d="M367.689,275.9v58.756A26.387,26.387,0,0,1,341.3,361.045H214.278L287.4,214.79c10.245-20.492,39.488-20.492,49.733,0Z"/><polygon class="cls-7" points="303.76 344.722 287.439 361.043 207.595 361.043 160.934 314.382 217.182 258.144 303.76 344.722"/><path class="cls-8" d="M274.4,361.045H170.7a26.387,26.387,0,0,1-26.387-26.387V319.473l29.349-54.227a27.8,27.8,0,0,1,48.9,0Z"/><rect class="cls-9" x="245.941" y="177.092" width="65.078" height="122.444" transform="translate(-86.949 266.716) rotate(-45)"/><circle class="cls-10" cx="234.926" cy="194.56" r="32.453"/></g></svg>