<svg xmlns="http://www.w3.org/2000/svg" xmlns:xlink="http://www.w3.org/1999/xlink" viewBox="0 0 512 512"><defs><style>.cls-1{fill:url(#linear-gradient);}.cls-2{fill:url(#radial-gradient);}.cls-3{opacity:0.3;fill:url(#linear-gradient-2);}.cls-4,.cls-5{opacity:0.5;}.cls-4{fill:url(#linear-gradient-3);}.cls-5{fill:url(#linear-gradient-4);}.cls-6{fill:url(#linear-gradient-5);}.cls-7{fill:url(#linear-gradient-6);}</style><linearGradient id="linear-gradient" x1="254.606" y1="399.742" x2="254.606" y2="73.772" gradientUnits="userSpaceOnUse"><stop offset="0" stop-color="#c63454"/><stop offset="0.399" stop-color="#d95270"/><stop offset="0.755" stop-color="#e66582"/><stop offset="1" stop-color="#ea6c88"/></linearGradient><radialGradient id="radial-gradient" cx="203.981" cy="214.415" r="92.277" gradientUnits="userSpaceOnUse"><stop offset="0" stop-color="#f2819e"/><stop offset="0.091" stop-color="#f17f9c" stop-opacity="0.971"/><stop offset="0.224" stop-color="#ed7996" stop-opacity="0.891"/><stop offset="0.382" stop-color="#e76e8c" stop-opacity="0.759"/><stop offset="0.56" stop-color="#df607f" stop-opacity="0.576"/><stop offset="0.755" stop-color="#d54e6d" stop-opacity="0.341"/><stop offset="0.959" stop-color="#c93958" stop-opacity="0.059"/><stop offset="1" stop-color="#c63454" stop-opacity="0"/></radialGradient><linearGradient id="linear-gradient-2" x1="254.604" y1="391.858" x2="254.604" y2="249.453" gradientUnits="userSpaceOnUse"><stop offset="0"/><stop offset="1" stop-color="#eaf3fd" stop-opacity="0"/></linearGradient><linearGradient id="linear-gradient-3" x1="352.998" y1="336.722" x2="352.998" y2="222.993" gradientTransform="translate(101.364 24.254) scale(0.399 0.781)" gradientUnits="userSpaceOnUse"><stop offset="0" stop-color="#e15e7b" stop-opacity="0"/><stop offset="1"/></linearGradient><linearGradient id="linear-gradient-4" x1="469.431" y1="489.274" x2="469.431" y2="375.544" gradientTransform="translate(125.675 165.164) scale(0.399 0.253)" xlink:href="#linear-gradient-3"/><linearGradient id="linear-gradient-5" x1="256" y1="289.991" x2="256" y2="207.556" gradientUnits="userSpaceOnUse"><stop offset="0" stop-color="#f27a46"/><stop offset="1" stop-color="#efbd61"/></linearGradient><linearGradient id="linear-gradient-6" x1="256.049" y1="218.227" x2="256.049" y2="292.477" xlink:href="#linear-gradient-5"/></defs><g id="Layer_2" data-name="Layer 2"><path class="cls-1" d="M371.858,267.419A78.009,78.009,0,1,0,254.606,164.54,78.009,78.009,0,1,0,137.163,267.211L237.7,368.225a23.609,23.609,0,0,0,33.436.029Z"/><path class="cls-2" d="M371.858,267.419A78.009,78.009,0,1,0,254.606,164.54,78.009,78.009,0,1,0,137.163,267.211L237.7,368.225a23.609,23.609,0,0,0,33.436.029Z"/><path class="cls-3" d="M392.235,213.713a77.738,77.738,0,0,1-20.381,53.71L271.138,368.251a23.6,23.6,0,0,1-33.431-.028L137.16,267.207a77.924,77.924,0,0,1-19.059-65.6A77.752,77.752,0,0,0,137.16,240.7L237.707,341.71a23.609,23.609,0,0,0,33.431.028L371.854,240.9A77.761,77.761,0,0,0,391.11,201.62,76.728,76.728,0,0,1,392.235,213.713Z"/><rect class="cls-4" x="214.428" y="215.854" width="55.245" height="108.244" transform="translate(-120.007 250.229) rotate(-45)"/><rect class="cls-5" x="285.142" y="257.498" width="55.245" height="35.134" transform="translate(-102.894 301.722) rotate(-45)"/><path class="cls-6" d="M291.456,288.813a9.369,9.369,0,0,1-6.778-2.9l-61.9-64.772L191.321,252.6a9.378,9.378,0,0,1-6.63,2.746H115.375a9.375,9.375,0,0,1,0-18.75h65.434l35.5-35.5a9.379,9.379,0,0,1,6.63-2.746h.106a9.369,9.369,0,0,1,6.671,2.9l61.662,64.529,26.69-28.6a9.377,9.377,0,0,1,6.853-2.978h71.707a9.375,9.375,0,0,1,0,18.75H328.992l-30.683,32.875a9.373,9.373,0,0,1-6.8,2.978Z"/><path class="cls-7" d="M404.263,249.02a9.357,9.357,0,0,1-7.64,3.937H328.991l-30.684,32.878a9.383,9.383,0,0,1-6.8,2.982h-.056a9.366,9.366,0,0,1-6.778-2.907l-61.894-64.772L191.319,252.6a9.351,9.351,0,0,1-6.628,2.747H115.373a9.356,9.356,0,0,1-7.538-3.806h68.888l37.425-37.425a9.879,9.879,0,0,1,6.993-2.9h.113a9.871,9.871,0,0,1,7.031,3.056L293.3,282.31l28.134-30.15a9.876,9.876,0,0,1,7.228-3.14Z"/></g></svg>