<svg xmlns="http://www.w3.org/2000/svg" xmlns:xlink="http://www.w3.org/1999/xlink" viewBox="0 0 512 512"><defs><style>.cls-1{fill:url(#linear-gradient);}.cls-2{fill:url(#radial-gradient);}</style><linearGradient id="linear-gradient" x1="256.509" y1="359.402" x2="256.509" y2="4.322" gradientUnits="userSpaceOnUse"><stop offset="0" stop-color="#c63454"/><stop offset="0.055" stop-color="#cb3957"/><stop offset="0.445" stop-color="#e75966"/><stop offset="0.774" stop-color="#f96c70"/><stop offset="1" stop-color="#ff7373"/></linearGradient><radialGradient id="radial-gradient" cx="201.23" cy="210.742" r="100.528" gradientUnits="userSpaceOnUse"><stop offset="0" stop-color="#ff7373"/><stop offset="0.088" stop-color="#fd7172" stop-opacity="0.973"/><stop offset="0.216" stop-color="#f96c70" stop-opacity="0.896"/><stop offset="0.369" stop-color="#f2656c" stop-opacity="0.772"/><stop offset="0.541" stop-color="#e85a67" stop-opacity="0.598"/><stop offset="0.729" stop-color="#db4c60" stop-opacity="0.375"/><stop offset="0.926" stop-color="#cc3b57" stop-opacity="0.107"/><stop offset="1" stop-color="#c63454" stop-opacity="0"/></radialGradient></defs><g id="Layer_2" data-name="Layer 2"><path class="cls-1" d="M384.233,268.439a84.684,84.684,0,0,0,22.2-58.507c-.65-45.938-38.322-83.373-84.263-83.751a84.788,84.788,0,0,0-65.657,30.191,84.788,84.788,0,0,0-65.665-30.191c-45.879.382-83.52,37.719-84.252,83.6a84.687,84.687,0,0,0,21.986,58.437L238.1,378.246a25.717,25.717,0,0,0,36.422.033Z"/><path class="cls-2" d="M384.117,268.485a84.7,84.7,0,0,0,22.2-58.513c-.651-45.943-38.326-83.381-84.272-83.759a84.8,84.8,0,0,0-65.663,30.194,84.8,84.8,0,0,0-65.672-30.194c-45.884.382-83.528,37.723-84.26,83.6a84.7,84.7,0,0,0,21.988,58.443L237.967,378.3a25.719,25.719,0,0,0,36.426.032Z"/></g></svg>