<svg xmlns="http://www.w3.org/2000/svg" xmlns:xlink="http://www.w3.org/1999/xlink" viewBox="0 0 512 512"><defs><style>.cls-1{fill:url(#linear-gradient);}.cls-2{fill:url(#linear-gradient-2);}.cls-3{opacity:0.5;fill:url(#linear-gradient-3);}.cls-4{opacity:0.2;fill:url(#linear-gradient-4);}.cls-5{fill:url(#linear-gradient-5);}.cls-6{fill:url(#linear-gradient-6);}.cls-7{fill:#fff;}.cls-8{fill:url(#linear-gradient-7);}</style><linearGradient id="linear-gradient" x1="338.016" y1="128.408" x2="338.016" y2="333.405" gradientTransform="translate(149.42 526.611) rotate(-90)" gradientUnits="userSpaceOnUse"><stop offset="0" stop-color="#383a44"/><stop offset="1" stop-color="#19223d"/></linearGradient><linearGradient id="linear-gradient-2" x1="255.404" y1="390.408" x2="255.404" y2="170.03" gradientUnits="userSpaceOnUse"><stop offset="0" stop-color="#f5faff"/><stop offset="1" stop-color="#b6d1f1"/></linearGradient><linearGradient id="linear-gradient-3" x1="227.255" y1="262.241" x2="34.457" y2="35.36" gradientUnits="userSpaceOnUse"><stop offset="0" stop-opacity="0"/><stop offset="1"/></linearGradient><linearGradient id="linear-gradient-4" x1="254.124" y1="307.224" x2="353.927" y2="407.028" gradientUnits="userSpaceOnUse"><stop offset="0"/><stop offset="1" stop-color="#f1f7fe" stop-opacity="0"/></linearGradient><linearGradient id="linear-gradient-5" x1="256" y1="121.28" x2="256" y2="421.28" gradientUnits="userSpaceOnUse"><stop offset="0" stop-color="#93c2ff"/><stop offset="1" stop-color="#6a8fff"/></linearGradient><linearGradient id="linear-gradient-6" x1="255.999" y1="84.999" x2="255.999" y2="329.629" gradientUnits="userSpaceOnUse"><stop offset="0" stop-color="#6a8fff"/><stop offset="1" stop-color="#93c2ff"/></linearGradient><linearGradient id="linear-gradient-7" x1="255.407" y1="405.307" x2="255.407" y2="364.148" gradientUnits="userSpaceOnUse"><stop offset="0" stop-color="#b6d1f1"/><stop offset="1" stop-color="#f5faff"/></linearGradient></defs><g id="Layer_2" data-name="Layer 2"><path class="cls-1" d="M287.008,161.018h113.13a0,0,0,0,1,0,0v55.155a0,0,0,0,1,0,0H287.008a11.114,11.114,0,0,1-11.114-11.114V172.132A11.114,11.114,0,0,1,287.008,161.018Z" transform="translate(526.611 -149.42) rotate(90)"/><path class="cls-2" d="M342.908,396.241H167.9a22.685,22.685,0,0,1-22.684-22.685V249.471a22.687,22.687,0,0,1,10.143-18.9l87.5-58.057a22.684,22.684,0,0,1,25.083,0l87.5,58.057a22.687,22.687,0,0,1,10.143,18.9V373.556A22.685,22.685,0,0,1,342.908,396.241Z"/><path class="cls-3" d="M365.6,282.18v47.609l-66.453,66.453H232.91l-87.691-87.683V260.935l70.252-70.252,27.39-18.174a22.623,22.623,0,0,1,9.5-3.569Z"/><path class="cls-4" d="M365.6,354.683v18.876a22.685,22.685,0,0,1-22.683,22.683H279.129l-54.678-54.678,64.013-64.012Z"/><path class="cls-5" d="M397.923,246.258,275.5,123.837v0h0a27.578,27.578,0,0,0-39,0h0v0L114.077,246.258a27.578,27.578,0,0,0,0,39h0a27.576,27.576,0,0,0,39,0l99.234-99.233a5.216,5.216,0,0,1,7.378,0l99.233,99.233a27.578,27.578,0,0,0,39,0h0A27.578,27.578,0,0,0,397.923,246.258Z"/><path class="cls-6" d="M401.136,281.39a26.848,26.848,0,0,1-3.215,3.87,27.585,27.585,0,0,1-39,0l-99.229-99.237a5.224,5.224,0,0,0-7.385,0L153.078,285.26a27.59,27.59,0,0,1-39,0,26.783,26.783,0,0,1-3.215-3.87L235.026,157.219h.008a29.649,29.649,0,0,1,41.938,0Z"/><circle class="cls-7" cx="256.999" cy="310.11" r="45.314"/><path class="cls-8" d="M365.6,353.751v19.808a22.685,22.685,0,0,1-22.683,22.683H167.9a22.68,22.68,0,0,1-22.683-22.683V353.751A22.681,22.681,0,0,0,167.9,376.442h175.01A22.687,22.687,0,0,0,365.6,353.751Z"/></g></svg>