<svg xmlns="http://www.w3.org/2000/svg" xmlns:xlink="http://www.w3.org/1999/xlink" viewBox="0 0 512 512"><defs><style>.cls-1{fill:url(#linear-gradient);}.cls-2,.cls-8,.cls-9{opacity:0.5;}.cls-2{fill:url(#linear-gradient-2);}.cls-3{fill:url(#linear-gradient-3);}.cls-4{fill:url(#linear-gradient-4);}.cls-5{fill:url(#linear-gradient-5);}.cls-6{fill:url(#linear-gradient-6);}.cls-7{fill:url(#linear-gradient-7);}.cls-8{fill:url(#radial-gradient);}.cls-9{fill:url(#linear-gradient-8);}.cls-10{fill:url(#linear-gradient-9);}</style><linearGradient id="linear-gradient" x1="183.701" y1="183.702" x2="388.193" y2="388.193" gradientUnits="userSpaceOnUse"><stop offset="0" stop-color="#93c2ff"/><stop offset="1" stop-color="#6a8fff"/></linearGradient><linearGradient id="linear-gradient-2" x1="256.003" y1="354.724" x2="256.003" y2="605.082" gradientUnits="userSpaceOnUse"><stop offset="0" stop-opacity="0"/><stop offset="1"/></linearGradient><linearGradient id="linear-gradient-3" x1="255.993" y1="203.3" x2="255.993" y2="380.805" gradientUnits="userSpaceOnUse"><stop offset="0" stop-color="#f5faff"/><stop offset="1" stop-color="#b6d1f1"/></linearGradient><linearGradient id="linear-gradient-4" x1="256.004" y1="176.32" x2="256.004" y2="227.001" xlink:href="#linear-gradient-3"/><linearGradient id="linear-gradient-5" x1="256.004" y1="312.798" x2="256.004" y2="346.611" xlink:href="#linear-gradient-3"/><linearGradient id="linear-gradient-6" x1="256" y1="241.842" x2="256" y2="286.143" xlink:href="#linear-gradient-3"/><linearGradient id="linear-gradient-7" x1="255.996" y1="256" x2="255.996" y2="383.249" xlink:href="#linear-gradient-3"/><radialGradient id="radial-gradient" cx="205.857" cy="188.5" r="124.288" gradientTransform="translate(9.22 9.222) scale(0.964 0.964)" gradientUnits="userSpaceOnUse"><stop offset="0" stop-color="#f0f4ff"/><stop offset="0.088" stop-color="#ecf1ff" stop-opacity="0.973"/><stop offset="0.216" stop-color="#e2eaff" stop-opacity="0.896"/><stop offset="0.369" stop-color="#d2ddff" stop-opacity="0.772"/><stop offset="0.541" stop-color="#bcf" stop-opacity="0.598"/><stop offset="0.729" stop-color="#9db6ff" stop-opacity="0.375"/><stop offset="0.926" stop-color="#7a9cff" stop-opacity="0.107"/><stop offset="1" stop-color="#6c91ff" stop-opacity="0"/></radialGradient><linearGradient id="linear-gradient-8" x1="319.802" y1="319.798" x2="211.585" y2="211.581" xlink:href="#linear-gradient-2"/><linearGradient id="linear-gradient-9" x1="255.999" y1="149.415" x2="255.999" y2="449.415" xlink:href="#linear-gradient"/></defs><g id="Layer_2" data-name="Layer 2"><circle class="cls-1" cx="256" cy="256" r="144.597"/><path class="cls-2" d="M400.6,256a144.6,144.6,0,0,1-289.2,0q0-2.546.087-5.061a144.6,144.6,0,0,0,289.022,0Q400.6,253.454,400.6,256Z"/><path class="cls-3" d="M344.553,245.926c-1.376-32.661-8.434-65.069-24.153-93.178-10.642-8.922-25.626-13.171-39.545-16.575,58.7,50.057,58.731,189.561,0,239.654A121.5,121.5,0,0,0,319.7,360.483a163.884,163.884,0,0,0,12.741-28.035C341.983,305.191,345.659,275.263,344.553,245.926ZM195.67,195.662c6.073-22,19.2-47.612,35.459-59.481-13.906,3.373-28.887,7.665-39.538,16.566-17.3,30.98-24.234,67.4-24.348,103.253.114,35.853,7.048,72.286,24.348,103.26,10.673,8.891,25.615,13.168,39.538,16.559C184.4,334.854,179.819,253.04,195.67,195.662Z"/><path class="cls-4" d="M360.484,192.31c-53.724-29.757-123.177-32.061-180.932-12.751A164.664,164.664,0,0,0,151.516,192.3a121.422,121.422,0,0,0-15.344,38.844c50.036-58.706,189.6-58.732,239.664.016A121.378,121.378,0,0,0,360.484,192.31Z"/><path class="cls-5" d="M339.341,307.862c-60.853,26.543-156.915,24.818-203.169-27.007,3.375,13.915,7.679,28.878,16.566,39.554,30.982,17.31,67.411,24.222,103.262,24.348,35.85-.126,72.279-7.041,103.252-24.349,8.913-10.665,13.18-25.642,16.584-39.57C367.932,291.3,355.264,300.57,339.341,307.862Z"/><path class="cls-6" d="M378.356,256q0,5.089-.407,10.074h-243.9q-.4-4.98-.407-10.074t.407-10.074h243.9Q378.353,250.906,378.356,256Z"/><path class="cls-7" d="M266.074,134.052v243.9q-4.98.4-10.074.408c-3.393,0-6.762-.139-10.082-.408v-243.9c3.32-.269,6.689-.407,10.082-.407S262.754,133.783,266.074,134.052Z"/><circle class="cls-8" cx="256" cy="256" r="144.597"/><path class="cls-9" d="M400.6,256A144.621,144.621,0,0,1,177.891,377.7L377.706,177.888A143.92,143.92,0,0,1,400.6,256Z"/><path class="cls-10" d="M400.33,111.672c-11.635-11.635-33.469-5.523-70.718,19.848a144.7,144.7,0,0,1,19.367,13.737c20.195-13.043,30.346-16.147,34.6-16.831-.838,5.177-5.263,19.077-26.808,49.2-20.533,28.688-50.089,62.746-83.24,95.9s-67.219,62.716-95.907,83.239c-30.115,21.555-44.025,25.97-49.2,26.818.694-4.261,3.807-14.411,16.86-34.607A141.517,141.517,0,0,1,131.533,329.6c-25.382,37.248-31.5,59.092-19.868,70.727,3.77,3.769,8.59,5.678,14.663,5.678,12.927,0,31.483-8.647,57.366-26.413,31.118-21.362,68.588-53.462,105.508-90.392s69.022-74.39,90.383-105.5C405.709,145.652,412.1,123.442,400.33,111.672Z"/></g></svg>