<svg xmlns="http://www.w3.org/2000/svg" xmlns:xlink="http://www.w3.org/1999/xlink" viewBox="0 0 512 512"><defs><style>.cls-1{fill:url(#linear-gradient);}.cls-2{fill:url(#linear-gradient-2);}.cls-3{fill:url(#linear-gradient-3);}.cls-4{fill:url(#linear-gradient-4);}.cls-5{fill:url(#linear-gradient-5);}.cls-6{fill:url(#linear-gradient-6);}.cls-7{fill:url(#linear-gradient-7);}.cls-10,.cls-11,.cls-12,.cls-13,.cls-14,.cls-15,.cls-16,.cls-31,.cls-32,.cls-8{opacity:0.5;}.cls-8{fill:url(#linear-gradient-8);}.cls-9{fill:url(#linear-gradient-9);}.cls-10{fill:url(#linear-gradient-10);}.cls-11{fill:url(#linear-gradient-11);}.cls-12{fill:url(#linear-gradient-12);}.cls-13{fill:url(#linear-gradient-13);}.cls-14{fill:url(#linear-gradient-14);}.cls-15{fill:url(#linear-gradient-15);}.cls-16{fill:url(#linear-gradient-16);}.cls-17{fill:url(#linear-gradient-17);}.cls-18{fill:url(#linear-gradient-18);}.cls-19{fill:url(#linear-gradient-19);}.cls-20{fill:url(#linear-gradient-20);}.cls-21{fill:url(#linear-gradient-21);}.cls-22{fill:url(#linear-gradient-22);}.cls-23{fill:url(#linear-gradient-23);}.cls-24{fill:url(#linear-gradient-24);}.cls-25{fill:url(#linear-gradient-25);}.cls-26{fill:url(#linear-gradient-26);}.cls-27{fill:url(#linear-gradient-27);}.cls-28{fill:url(#linear-gradient-28);}.cls-29{fill:url(#linear-gradient-29);}.cls-30{fill:url(#linear-gradient-30);}.cls-31{fill:url(#linear-gradient-31);}.cls-32{fill:url(#linear-gradient-32);}</style><linearGradient id="linear-gradient" x1="252.579" y1="123.428" x2="252.579" y2="225.914" gradientUnits="userSpaceOnUse"><stop offset="0" stop-color="#19223d"/><stop offset="1" stop-color="#040a21"/></linearGradient><linearGradient id="linear-gradient-2" x1="255.172" y1="205.838" x2="255.172" y2="225.633" gradientUnits="userSpaceOnUse"><stop offset="0" stop-color="#f5faff"/><stop offset="1" stop-color="#b6d1f1"/></linearGradient><linearGradient id="linear-gradient-3" x1="-804.904" y1="-614.185" x2="-656.99" y2="-573.375" gradientTransform="matrix(0.203, 0.645, -0.954, 0.3, -74.628, 1000.027)" xlink:href="#linear-gradient-2"/><linearGradient id="linear-gradient-4" x1="-1720.795" y1="1360.915" x2="-1570.821" y2="1393.345" gradientTransform="matrix(-0.203, 0.645, 0.954, 0.3, -1482.6, 1000.027)" xlink:href="#linear-gradient-2"/><linearGradient id="linear-gradient-5" x1="255.172" y1="265.91" x2="420.728" y2="265.91" xlink:href="#linear-gradient-2"/><linearGradient id="linear-gradient-6" x1="255.172" y1="236.249" x2="255.172" y2="381.277" xlink:href="#linear-gradient-2"/><linearGradient id="linear-gradient-7" x1="-2394.317" y1="304.975" x2="-2394.317" y2="321.99" gradientTransform="translate(2231.659 -339.551) scale(0.796 1.892)" xlink:href="#linear-gradient-2"/><linearGradient id="linear-gradient-8" x1="-7932.873" y1="1268.551" x2="-7932.873" y2="998.801" gradientTransform="translate(1200.262 101.512) scale(0.108 0.115)" gradientUnits="userSpaceOnUse"><stop offset="0" stop-opacity="0"/><stop offset="1"/></linearGradient><linearGradient id="linear-gradient-9" x1="-2394.317" y1="291.573" x2="-2394.317" y2="308.588" gradientTransform="translate(2249.587 -296.271) scale(0.796 1.892)" xlink:href="#linear-gradient-2"/><linearGradient id="linear-gradient-10" x1="-7933.922" y1="1537.17" x2="-7933.922" y2="1267.42" gradientTransform="translate(1222.889 -53.057) scale(0.108 0.214)" gradientUnits="userSpaceOnUse"><stop offset="0.138" stop-opacity="0"/><stop offset="1"/></linearGradient><linearGradient id="linear-gradient-11" x1="332.552" y1="336.847" x2="261.781" y2="266.076" gradientUnits="userSpaceOnUse"><stop offset="0.179" stop-opacity="0"/><stop offset="1"/></linearGradient><linearGradient id="linear-gradient-12" x1="242.902" y1="322.921" x2="212.031" y2="292.051" gradientTransform="matrix(1, 0, 0, 1, 0, 0)" xlink:href="#linear-gradient-8"/><linearGradient id="linear-gradient-13" x1="-8780.594" y1="1108.133" x2="-8780.594" y2="838.383" gradientTransform="translate(2377.936 -14.811) scale(0.249 0.274)" xlink:href="#linear-gradient-10"/><linearGradient id="linear-gradient-14" x1="-8780.594" y1="1042.845" x2="-8780.594" y2="773.095" gradientTransform="translate(2361.103 65.477) scale(0.249 0.194)" xlink:href="#linear-gradient-10"/><linearGradient id="linear-gradient-15" x1="-8160.426" y1="1532.219" x2="-8160.426" y2="1262.468" gradientTransform="translate(1229.597 -30.579) scale(0.108 0.211)" gradientUnits="userSpaceOnUse"><stop offset="0.157" stop-opacity="0"/><stop offset="1"/></linearGradient><linearGradient id="linear-gradient-16" x1="-8160.426" y1="1264.838" x2="-8160.426" y2="995.088" gradientTransform="translate(1207.472 114.093) scale(0.108 0.12)" xlink:href="#linear-gradient-8"/><linearGradient id="linear-gradient-17" x1="172.769" y1="239.136" x2="172.769" y2="279.516" xlink:href="#linear-gradient"/><linearGradient id="linear-gradient-18" x1="218.47" y1="289.082" x2="218.47" y2="359.863" xlink:href="#linear-gradient-2"/><linearGradient id="linear-gradient-19" x1="218.47" y1="293.28" x2="218.47" y2="343.533" xlink:href="#linear-gradient"/><linearGradient id="linear-gradient-20" x1="227.791" y1="303.558" x2="190.028" y2="303.558" xlink:href="#linear-gradient"/><linearGradient id="linear-gradient-21" x1="296.484" y1="289.082" x2="296.484" y2="359.863" xlink:href="#linear-gradient-2"/><linearGradient id="linear-gradient-22" x1="296.484" y1="293.28" x2="296.484" y2="343.533" xlink:href="#linear-gradient"/><linearGradient id="linear-gradient-23" x1="305.163" y1="303.558" x2="267.4" y2="303.558" xlink:href="#linear-gradient"/><linearGradient id="linear-gradient-24" x1="255.172" y1="254.754" x2="255.172" y2="273.118" xlink:href="#linear-gradient-2"/><linearGradient id="linear-gradient-25" x1="334.516" y1="240.696" x2="334.516" y2="215.617" gradientUnits="userSpaceOnUse"><stop offset="0" stop-color="#9cd068"/><stop offset="0.24" stop-color="#a1d26e"/><stop offset="0.571" stop-color="#aed980"/><stop offset="0.952" stop-color="#c3e39d"/><stop offset="1" stop-color="#c6e5a1"/></linearGradient><linearGradient id="linear-gradient-26" x1="334.516" y1="262.664" x2="334.516" y2="287.743" gradientUnits="userSpaceOnUse"><stop offset="0" stop-color="#93c2ff"/><stop offset="1" stop-color="#6a8fff"/></linearGradient><linearGradient id="linear-gradient-27" x1="-1200.349" y1="-434.122" x2="-1225.428" y2="-434.122" gradientTransform="translate(-82.207 1462.315) rotate(90)" gradientUnits="userSpaceOnUse"><stop offset="0" stop-color="#c63454"/><stop offset="0.399" stop-color="#d95270"/><stop offset="0.755" stop-color="#e66582"/><stop offset="1" stop-color="#ea6c88"/></linearGradient><linearGradient id="linear-gradient-28" x1="-1215.777" y1="-399.325" x2="-1190.698" y2="-399.325" gradientTransform="translate(-82.207 1462.315) rotate(90)" gradientUnits="userSpaceOnUse"><stop offset="0" stop-color="#efbd61"/><stop offset="1" stop-color="#f27a46"/></linearGradient><linearGradient id="linear-gradient-29" x1="271.819" y1="256.758" x2="271.819" y2="266.756" xlink:href="#linear-gradient"/><linearGradient id="linear-gradient-30" x1="238.525" y1="256.758" x2="238.525" y2="266.756" xlink:href="#linear-gradient"/><linearGradient id="linear-gradient-31" x1="-8626.21" y1="1248.393" x2="-8626.21" y2="978.642" gradientTransform="matrix(0.087, -0.087, 0.206, 0.206, 753.794, -726.059)" xlink:href="#linear-gradient-10"/><linearGradient id="linear-gradient-32" x1="-8434.919" y1="1329.153" x2="-8434.919" y2="1059.403" gradientTransform="matrix(0.087, -0.087, 0.206, 0.206, 753.794, -726.059)" xlink:href="#linear-gradient-10"/></defs><g id="Layer_2" data-name="Layer 2"><path class="cls-1" d="M254.019,225.914a6.872,6.872,0,0,1-6.872-6.872V199.45a16.2,16.2,0,0,0-16.177-16.177H175.65a29.923,29.923,0,0,1,0-59.845H352.557a6.873,6.873,0,0,1,0,13.745H175.65a16.178,16.178,0,0,0,0,32.355h55.32a29.956,29.956,0,0,1,29.922,29.922v19.592A6.873,6.873,0,0,1,254.019,225.914Z"/><rect class="cls-2" x="238.781" y="203.548" width="32.782" height="12.677" rx="4.426"/><path class="cls-3" d="M323.629,361.656,292.361,283.1a49.133,49.133,0,0,1,30.919-65.041h0a49.133,49.133,0,0,1,62.6,35.823L404.9,336.266A42.7,42.7,0,0,1,376.1,386.6h0A42.7,42.7,0,0,1,323.629,361.656Z"/><path class="cls-4" d="M188.371,361.656l31.268-78.56a49.133,49.133,0,0,0-30.919-65.041h0a49.133,49.133,0,0,0-62.6,35.823L107.1,336.266A42.7,42.7,0,0,0,135.9,386.6h0A42.7,42.7,0,0,0,188.371,361.656Z"/><rect class="cls-5" x="122.636" y="212.896" width="265.071" height="106.029" rx="53.014"/><path class="cls-6" d="M175.65,312.351a46.441,46.441,0,0,1,0-92.882H334.693a46.441,46.441,0,1,1,0,92.882Z"/><rect class="cls-7" x="302.784" y="233.673" width="45.998" height="20.615" rx="10.307" transform="translate(728.666 186.138) rotate(135)"/><rect class="cls-8" x="332.551" y="233.06" width="16.024" height="17.059" transform="translate(-71.081 311.574) rotate(-45)"/><rect class="cls-9" x="320.711" y="251.601" width="45.998" height="20.615" rx="10.307" transform="translate(771.947 204.065) rotate(135)"/><rect class="cls-10" x="355.064" y="248.442" width="16.024" height="31.643" transform="translate(-80.52 334.134) rotate(-45)"/><polygon class="cls-11" points="345.567 323.227 318.927 349.857 306.617 318.927 293.407 318.927 317.337 294.997 340.907 318.567 345.567 323.227"/><polygon class="cls-12" points="262.837 318.927 214.977 318.927 238.907 294.997 262.837 318.927"/><rect class="cls-13" x="174.916" y="253.505" width="36.787" height="40.492" transform="translate(-136.952 216.87) rotate(-45)"/><rect class="cls-14" x="158.082" y="242.598" width="36.787" height="28.638" transform="translate(-129.979 200.037) rotate(-45)"/><rect class="cls-15" x="337.225" y="265.544" width="16.024" height="31.188" transform="translate(-97.677 326.463) rotate(-45)"/><rect class="cls-16" x="315.1" y="250.162" width="16.024" height="17.703" transform="translate(-88.513 304.338) rotate(-45)"/><path class="cls-17" d="M191.572,246.382H180.74A1.387,1.387,0,0,1,179.353,245V234.163a1.387,1.387,0,0,0-1.387-1.387H167.573a1.387,1.387,0,0,0-1.388,1.387V245a1.387,1.387,0,0,1-1.387,1.387H153.966a1.387,1.387,0,0,0-1.387,1.387v10.393a1.387,1.387,0,0,0,1.387,1.387H164.8a1.387,1.387,0,0,1,1.387,1.387v10.832a1.387,1.387,0,0,0,1.388,1.388h10.393a1.387,1.387,0,0,0,1.387-1.388V260.936a1.387,1.387,0,0,1,1.387-1.387h10.832a1.387,1.387,0,0,0,1.387-1.387V247.769A1.387,1.387,0,0,0,191.572,246.382Z"/><circle class="cls-18" cx="218.47" cy="303.558" r="22.666"/><path class="cls-19" d="M218.469,319.65a16.093,16.093,0,1,1,16.093-16.092A16.11,16.11,0,0,1,218.469,319.65Z"/><path class="cls-20" d="M218.469,315.65a12.092,12.092,0,1,1,12.092-12.093A12.106,12.106,0,0,1,218.469,315.65Z"/><circle class="cls-21" cx="296.484" cy="303.558" r="22.666"/><path class="cls-22" d="M296.484,319.65a16.093,16.093,0,1,1,16.092-16.092A16.11,16.11,0,0,1,296.484,319.65Z"/><path class="cls-23" d="M296.484,315.65a12.092,12.092,0,1,1,12.092-12.093A12.107,12.107,0,0,1,296.484,315.65Z"/><rect class="cls-24" x="221.558" y="252.464" width="67.228" height="12.677" rx="6.339"/><path class="cls-25" d="M334.516,243.6a8.031,8.031,0,1,1,8.031-8.031A8.04,8.04,0,0,1,334.516,243.6Z"/><path class="cls-26" d="M334.516,278.4a8.031,8.031,0,1,1,8.031-8.031A8.04,8.04,0,0,1,334.516,278.4Z"/><path class="cls-27" d="M343.883,252.966A8.031,8.031,0,1,1,351.914,261,8.04,8.04,0,0,1,343.883,252.966Z"/><path class="cls-28" d="M309.086,252.966A8.031,8.031,0,1,1,317.117,261,8.04,8.04,0,0,1,309.086,252.966Z"/><rect class="cls-29" x="260.294" y="255.602" width="23.05" height="6.403" rx="3.201"/><rect class="cls-30" x="227" y="255.602" width="23.05" height="6.403" rx="3.201"/><polygon class="cls-31" points="271.257 278.757 258.4 291.614 227.946 261.161 249.375 256.875 271.257 278.757"/><polygon class="cls-32" points="304.525 278.757 291.668 291.614 261.214 261.161 282.643 256.875 304.525 278.757"/></g></svg>