<svg xmlns="http://www.w3.org/2000/svg" xmlns:xlink="http://www.w3.org/1999/xlink" viewBox="0 0 512 512"><defs><style>.cls-1{fill:url(#linear-gradient);}.cls-2,.cls-3,.cls-4,.cls-8{opacity:0.5;}.cls-2{fill:url(#linear-gradient-2);}.cls-3{fill:url(#linear-gradient-3);}.cls-4{fill:url(#linear-gradient-4);}.cls-5{fill:url(#linear-gradient-5);}.cls-6{fill:url(#linear-gradient-6);}.cls-7{fill:url(#linear-gradient-7);}.cls-8{fill:url(#linear-gradient-8);}</style><linearGradient id="linear-gradient" x1="88.05" y1="256" x2="434.09" y2="256" gradientTransform="translate(512 0) rotate(90)" gradientUnits="userSpaceOnUse"><stop offset="0" stop-color="#f5faff"/><stop offset="1" stop-color="#b6d1f1"/></linearGradient><linearGradient id="linear-gradient-2" x1="310.062" y1="256.063" x2="146.067" y2="-20.989" gradientUnits="userSpaceOnUse"><stop offset="0" stop-opacity="0"/><stop offset="1"/></linearGradient><linearGradient id="linear-gradient-3" x1="332.228" y1="332.798" x2="141.68" y2="142.25" xlink:href="#linear-gradient-2"/><linearGradient id="linear-gradient-4" x1="315.611" y1="391.397" x2="151.632" y2="227.418" xlink:href="#linear-gradient-2"/><linearGradient id="linear-gradient-5" x1="178.364" y1="180.089" x2="333.636" y2="180.089" gradientTransform="translate(436.089 -75.911) rotate(90)" gradientUnits="userSpaceOnUse"><stop offset="0" stop-color="#efbd61"/><stop offset="1" stop-color="#f27a46"/></linearGradient><linearGradient id="linear-gradient-6" x1="178.364" y1="256" x2="333.636" y2="256" gradientTransform="translate(512 0) rotate(90)" xlink:href="#linear-gradient-5"/><linearGradient id="linear-gradient-7" x1="178.364" y1="331.911" x2="333.636" y2="331.911" gradientTransform="translate(587.911 75.911) rotate(90)" xlink:href="#linear-gradient-5"/><linearGradient id="linear-gradient-8" x1="256.003" y1="394.778" x2="256.003" y2="420.772" xlink:href="#linear-gradient-2"/></defs><g id="Layer_2" data-name="Layer 2"><rect class="cls-1" x="106" y="140.121" width="300" height="231.757" rx="4.082" transform="translate(0 512) rotate(-90)"/><polygon class="cls-2" points="371.883 211.808 371.883 270.848 363.513 279.219 321.423 321.308 316.543 326.188 186.693 196.339 328.933 168.859 371.883 211.808"/><polygon class="cls-3" points="371.883 287.598 371.883 346.639 363.793 354.719 316.543 401.969 249.733 335.159 186.693 272.129 250.203 259.848 328.933 244.639 363.513 279.219 371.883 287.598"/><path class="cls-4" d="M371.883,362.808v39.111a4.086,4.086,0,0,1-4.09,4.079H245.353l-58.66-58.659,63.04-12.18,63.51-12.27,8.18-1.581,7.51-1.449,34.86,34.86Z"/><rect class="cls-5" x="236.927" y="102.454" width="38.147" height="155.272" rx="19.073" transform="translate(75.911 436.089) rotate(-90)"/><rect class="cls-6" x="236.927" y="178.364" width="38.147" height="155.272" rx="19.073" transform="translate(0 512) rotate(-90)"/><rect class="cls-7" x="236.927" y="254.275" width="38.147" height="155.272" rx="19.073" transform="translate(-75.911 587.911) rotate(-90)"/><path class="cls-8" d="M371.883,383.558v18.361a4.086,4.086,0,0,1-4.09,4.079H144.2a4.083,4.083,0,0,1-4.08-4.079V383.558a4.078,4.078,0,0,0,4.08,4.081h223.59A4.08,4.08,0,0,0,371.883,383.558Z"/></g></svg>