<svg xmlns="http://www.w3.org/2000/svg" xmlns:xlink="http://www.w3.org/1999/xlink" viewBox="0 0 512 512"><defs><style>.cls-1{fill:url(#radial-gradient);}.cls-2{fill:url(#linear-gradient);}.cls-3{fill:url(#linear-gradient-2);}.cls-4{opacity:0.2;fill:url(#linear-gradient-3);}</style><radialGradient id="radial-gradient" cx="255.998" cy="384.102" r="42.879" gradientTransform="translate(0 235.386) scale(1 0.387)" gradientUnits="userSpaceOnUse"><stop offset="0" stop-color="#91314d"/><stop offset="0.282" stop-color="#9b324e"/><stop offset="0.762" stop-color="#b63352"/><stop offset="1" stop-color="#c63454"/></radialGradient><linearGradient id="linear-gradient" x1="183.431" y1="182.295" x2="368.22" y2="305.274" gradientUnits="userSpaceOnUse"><stop offset="0" stop-color="#ea6c88"/><stop offset="1" stop-color="#d8425c"/></linearGradient><linearGradient id="linear-gradient-2" x1="154.998" y1="239.955" x2="372.317" y2="240.101" gradientUnits="userSpaceOnUse"><stop offset="0" stop-color="#c63454"/><stop offset="0.399" stop-color="#d95270"/><stop offset="0.755" stop-color="#e66582"/><stop offset="1" stop-color="#ea6c88"/></linearGradient><linearGradient id="linear-gradient-3" x1="269.572" y1="225.461" x2="326.287" y2="294.242" gradientUnits="userSpaceOnUse"><stop offset="0.389"/><stop offset="1" stop-color="#d8425c" stop-opacity="0"/></linearGradient></defs><g id="Layer_2" data-name="Layer 2"><ellipse class="cls-1" cx="255.998" cy="384.102" rx="47.628" ry="21.898"/><path class="cls-2" d="M256,106a110.985,110.985,0,0,0-110.99,110.98c0,48.66,69.92,123.29,98.77,152.01a17.3,17.3,0,0,0,24.44,0c28.84-28.72,98.76-103.35,98.76-152.01A110.983,110.983,0,0,0,256,106Zm0,156.2a45.215,45.215,0,1,1,45.21-45.22A45.264,45.264,0,0,1,256,262.2Z"/><path class="cls-3" d="M256,364.046a7.259,7.259,0,0,1-5.156-2.138c-22.484-22.384-95.83-98.972-95.83-144.928a100.985,100.985,0,0,1,201.97,0c0,31-35.82,85.175-95.817,144.924A7.276,7.276,0,0,1,256,364.046Zm0-202.276a55.215,55.215,0,1,0,55.21,55.21A55.277,55.277,0,0,0,256,161.77Z"/><path class="cls-4" d="M357.053,254.2c-11.83,25.38-32.45,52.6-52,75.28l-76.91-76.91a45.189,45.189,0,0,0,61.31-65.97Z"/></g></svg>