<svg xmlns="http://www.w3.org/2000/svg" xmlns:xlink="http://www.w3.org/1999/xlink" viewBox="0 0 512 512"><defs><style>.cls-1{fill:url(#linear-gradient);}.cls-2{fill:url(#linear-gradient-2);}.cls-3{fill:url(#linear-gradient-3);}.cls-4{fill:url(#linear-gradient-4);}.cls-5{fill:url(#linear-gradient-5);}.cls-6{opacity:0.5;fill:url(#linear-gradient-6);}</style><linearGradient id="linear-gradient" x1="306.007" y1="222.217" x2="255.592" y2="272.631" gradientTransform="matrix(0.564, 0.772, -0.564, 0.772, 266.4, -135.173)" gradientUnits="userSpaceOnUse"><stop offset="0" stop-color="#1d2844"/><stop offset="1" stop-color="#0a1030"/></linearGradient><linearGradient id="linear-gradient-2" x1="93.919" y1="100.424" x2="193.033" y2="199.538" gradientUnits="userSpaceOnUse"><stop offset="0" stop-color="#efbd61"/><stop offset="1" stop-color="#f27a46"/></linearGradient><linearGradient id="linear-gradient-3" x1="218.04" y1="112.539" x2="304.139" y2="198.638" xlink:href="#linear-gradient-2"/><linearGradient id="linear-gradient-4" x1="89.085" y1="213.291" x2="225.98" y2="350.187" xlink:href="#linear-gradient-2"/><linearGradient id="linear-gradient-5" x1="206.501" y1="169.063" x2="147.144" y2="228.42" gradientTransform="translate(186.4 -81.117) rotate(45)" gradientUnits="userSpaceOnUse"><stop offset="0" stop-color="#f5faff"/><stop offset="1" stop-color="#b6d1f1"/></linearGradient><linearGradient id="linear-gradient-6" x1="306.024" y1="222.199" x2="247.24" y2="280.983" gradientTransform="matrix(0.414, 0.772, -0.414, 0.772, 269.827, -135.173)" gradientUnits="userSpaceOnUse"><stop offset="0.186" stop-color="#bfd7f3" stop-opacity="0"/><stop offset="0.508" stop-color="#f5faff" stop-opacity="0.7"/><stop offset="0.86" stop-color="#b6d1f1" stop-opacity="0"/></linearGradient></defs><g id="Layer_2" data-name="Layer 2"><rect class="cls-1" x="252.255" y="115.636" width="54.185" height="314.083" rx="8.571" transform="translate(-110.993 277.394) rotate(-45)"/><path class="cls-2" d="M150.544,137.143c-11.735,3.861-16.043,8.168-19.9,19.9a1.768,1.768,0,0,1-3.359-.006c-1.748-5.313-3.588-9.1-6.169-12.019-3.118-3.523-7.317-5.769-13.742-7.881a1.766,1.766,0,0,1,.012-3.353c11.734-3.861,16.041-8.168,19.9-19.9a1.766,1.766,0,0,1,3.355,0c1.931,5.868,3.973,9.878,7,12.905s7.037,5.068,12.905,7A1.766,1.766,0,0,1,150.544,137.143Z"/><path class="cls-3" d="M267.229,144.436c-10.194,3.354-13.936,7.095-17.29,17.29a1.535,1.535,0,0,1-2.917-.006c-1.519-4.615-3.117-7.907-5.359-10.44-2.709-3.06-6.357-5.011-11.938-6.846a1.535,1.535,0,0,1,.01-2.913c10.194-3.354,13.935-7.1,17.289-17.29a1.535,1.535,0,0,1,2.915,0c1.677,5.1,3.451,8.582,6.08,11.211s6.113,4.4,11.21,6.079A1.535,1.535,0,0,1,267.229,144.436Z"/><path class="cls-4" d="M167.294,264.007c-16.209,5.332-22.158,11.281-27.49,27.49a2.441,2.441,0,0,1-4.639-.009c-2.415-7.338-4.956-12.573-8.52-16.6-4.307-4.866-10.108-7.968-18.981-10.885a2.44,2.44,0,0,1,.016-4.632c16.208-5.332,22.156-11.281,27.488-27.49a2.44,2.44,0,0,1,4.635,0c2.666,8.1,5.487,13.645,9.667,17.825s9.72,7,17.824,9.666A2.44,2.44,0,0,1,167.294,264.007Z"/><path class="cls-5" d="M172.6,152.182h37.043a8.571,8.571,0,0,1,8.571,8.571v55.958a0,0,0,0,1,0,0H164.025a0,0,0,0,1,0,0V160.753A8.571,8.571,0,0,1,172.6,152.182Z" transform="translate(-74.447 189.163) rotate(-45)"/><rect class="cls-6" x="259.457" y="115.636" width="39.782" height="314.083" transform="translate(-110.993 277.394) rotate(-45)"/></g></svg>