<svg xmlns="http://www.w3.org/2000/svg" xmlns:xlink="http://www.w3.org/1999/xlink" viewBox="0 0 512 512"><defs><style>.cls-1{fill:url(#linear-gradient);}.cls-2{fill:url(#linear-gradient-2);}.cls-12,.cls-3,.cls-5{opacity:0.5;}.cls-3{fill:url(#linear-gradient-3);}.cls-4{fill:url(#linear-gradient-4);}.cls-5{fill:url(#linear-gradient-5);}.cls-6{fill:url(#linear-gradient-6);}.cls-7{fill:#d8425c;}.cls-8{fill:#fff;}.cls-9{fill:url(#linear-gradient-7);}.cls-10{opacity:0.2;fill:url(#linear-gradient-8);}.cls-11{fill:url(#linear-gradient-9);}.cls-12{fill:url(#linear-gradient-10);}</style><linearGradient id="linear-gradient" x1="107.178" y1="256" x2="784.095" y2="256" gradientUnits="userSpaceOnUse"><stop offset="0" stop-color="#f5faff"/><stop offset="1" stop-color="#b6d1f1"/></linearGradient><linearGradient id="linear-gradient-2" x1="107.189" y1="256" x2="256.843" y2="256" gradientUnits="userSpaceOnUse"><stop offset="0" stop-color="#aed87c"/><stop offset="0.155" stop-color="#a4d371"/><stop offset="0.379" stop-color="#9ed16a"/><stop offset="1" stop-color="#9cd068"/></linearGradient><linearGradient id="linear-gradient-3" x1="-2131.68" y1="-252.452" x2="-2131.68" y2="-446.123" gradientTransform="translate(2136.906 549.969) scale(0.886 0.958)" gradientUnits="userSpaceOnUse"><stop offset="0" stop-opacity="0"/><stop offset="1"/></linearGradient><linearGradient id="linear-gradient-4" x1="292.425" y1="194.319" x2="404.811" y2="194.319" xlink:href="#linear-gradient-2"/><linearGradient id="linear-gradient-5" x1="-1948.484" y1="-251.895" x2="-1948.484" y2="-325.878" gradientTransform="translate(2094.516 413.333) scale(0.886 0.877)" xlink:href="#linear-gradient-3"/><linearGradient id="linear-gradient-6" x1="231.119" y1="319.151" x2="404.811" y2="319.151" xlink:href="#linear-gradient-2"/><linearGradient id="linear-gradient-7" x1="121.671" y1="225.388" x2="253.013" y2="225.476" gradientUnits="userSpaceOnUse"><stop offset="0" stop-color="#c63454"/><stop offset="0.399" stop-color="#d95270"/><stop offset="0.755" stop-color="#e66582"/><stop offset="1" stop-color="#ea6c88"/></linearGradient><linearGradient id="linear-gradient-8" x1="190.735" y1="216.453" x2="224.25" y2="257.099" gradientUnits="userSpaceOnUse"><stop offset="0.389"/><stop offset="1" stop-color="#d8425c" stop-opacity="0"/></linearGradient><linearGradient id="linear-gradient-9" x1="352.013" y1="145.109" x2="349.344" y2="202.328" gradientUnits="userSpaceOnUse"><stop offset="0" stop-color="#efbd61"/><stop offset="1" stop-color="#f27a46"/></linearGradient><linearGradient id="linear-gradient-10" x1="256" y1="461.929" x2="256" y2="376.177" gradientUnits="userSpaceOnUse"><stop offset="0"/><stop offset="1" stop-opacity="0"/></linearGradient></defs><g id="Layer_2" data-name="Layer 2"><rect class="cls-1" x="107.178" y="106.001" width="297.644" height="299.997" rx="33.69"/><path class="cls-2" d="M140.88,106H256.843v220.53a8.33,8.33,0,0,1-2.44,5.891L180.83,406H140.88a33.691,33.691,0,0,1-33.691-33.691V139.694A33.691,33.691,0,0,1,140.88,106Z"/><rect class="cls-3" x="182.885" y="213.174" width="130.99" height="141.66" transform="translate(-128.073 258.814) rotate(-45)"/><path class="cls-4" d="M404.811,139.694v42.3l-98.164,98.187a8.331,8.331,0,0,1-14.222-5.89V106H371.12A33.691,33.691,0,0,1,404.811,139.694Z"/><rect class="cls-5" x="343.27" y="149.615" width="50.039" height="49.548" transform="translate(-15.442 311.497) rotate(-45)"/><path class="cls-6" d="M231.119,406,404.811,232.305v140A33.691,33.691,0,0,1,371.12,406Z"/><path class="cls-7" d="M249.093,211.506c0,29.4-42.259,74.512-59.692,91.87a10.458,10.458,0,0,1-14.769,0c-17.433-17.358-59.692-62.466-59.692-91.87a67.077,67.077,0,0,1,134.153,0Z"/><circle class="cls-8" cx="182.016" cy="211.506" r="27.327"/><path class="cls-9" d="M182.714,300.385a4.388,4.388,0,0,1-3.117-1.292c-13.588-13.528-57.916-59.816-57.916-87.59a61.032,61.032,0,0,1,122.064,0c0,18.734-21.648,51.477-57.909,87.588A4.4,4.4,0,0,1,182.714,300.385Zm0-122.25A33.371,33.371,0,1,0,216.083,211.5,33.409,33.409,0,0,0,182.716,178.135Z"/><path class="cls-10" d="M242.431,233.436c-6.991,15-19.176,31.084-30.729,44.487l-45.45-45.45a26.7,26.7,0,0,0,36.231-38.985Z"/><rect class="cls-11" x="326.237" y="131.699" width="50.432" height="50.831" rx="25.216"/><path class="cls-12" d="M404.819,355.952v16.36A33.691,33.691,0,0,1,371.129,406H140.871a33.691,33.691,0,0,1-33.69-33.689v-16.36a33.685,33.685,0,0,0,33.69,33.69H371.129A33.685,33.685,0,0,0,404.819,355.952Z"/></g></svg>