<svg xmlns="http://www.w3.org/2000/svg" xmlns:xlink="http://www.w3.org/1999/xlink" viewBox="0 0 512 512"><defs><style>.cls-1{fill:url(#linear-gradient);}.cls-2,.cls-4,.cls-6{opacity:0.5;}.cls-2{fill:url(#linear-gradient-2);}.cls-3{fill:url(#linear-gradient-3);}.cls-4{fill:url(#linear-gradient-4);}.cls-5{fill:url(#linear-gradient-5);}.cls-6{fill:url(#linear-gradient-6);}.cls-7{fill:url(#linear-gradient-7);}.cls-8{fill:url(#linear-gradient-8);}.cls-12,.cls-9{opacity:0.3;}.cls-9{fill:url(#linear-gradient-9);}.cls-10{fill:url(#linear-gradient-10);}.cls-11{fill:url(#linear-gradient-11);}.cls-13{fill:url(#linear-gradient-12);}</style><linearGradient id="linear-gradient" x1="158.483" y1="155.876" x2="326.084" y2="323.477" gradientUnits="userSpaceOnUse"><stop offset="0" stop-color="#f5faff"/><stop offset="1" stop-color="#b6d1f1"/></linearGradient><linearGradient id="linear-gradient-2" x1="276.401" y1="222.487" x2="207.367" y2="153.453" gradientUnits="userSpaceOnUse"><stop offset="0" stop-opacity="0"/><stop offset="1"/></linearGradient><linearGradient id="linear-gradient-3" x1="167.143" y1="225.023" x2="294.954" y2="225.023" gradientUnits="userSpaceOnUse"><stop offset="0" stop-color="#9cd068"/><stop offset="0.24" stop-color="#a1d26e"/><stop offset="0.571" stop-color="#aed980"/><stop offset="0.952" stop-color="#c3e39d"/><stop offset="1" stop-color="#c6e5a1"/></linearGradient><linearGradient id="linear-gradient-4" x1="180.872" y1="264.476" x2="130.628" y2="215.254" xlink:href="#linear-gradient-2"/><linearGradient id="linear-gradient-5" x1="108.853" y1="246.374" x2="217.233" y2="246.374" xlink:href="#linear-gradient-3"/><linearGradient id="linear-gradient-6" x1="-5852.13" y1="-32.983" x2="-5852.13" y2="-140.164" gradientTransform="translate(2649.505 213.61) scale(0.415 0.781)" xlink:href="#linear-gradient-2"/><linearGradient id="linear-gradient-7" x1="170.827" y1="140.127" x2="209.064" y2="178.365" gradientUnits="userSpaceOnUse"><stop offset="0" stop-color="#efbd61"/><stop offset="1" stop-color="#f27a46"/></linearGradient><linearGradient id="linear-gradient-8" x1="266.678" y1="269.285" x2="434.279" y2="436.886" gradientUnits="userSpaceOnUse"><stop offset="0" stop-color="#93c2ff"/><stop offset="1" stop-color="#6a8fff"/></linearGradient><linearGradient id="linear-gradient-9" x1="261.516" y1="275.124" x2="384.177" y2="397.785" gradientUnits="userSpaceOnUse"><stop offset="0"/><stop offset="1" stop-color="#d7e7f8" stop-opacity="0"/></linearGradient><linearGradient id="linear-gradient-10" x1="281.792" y1="295.183" x2="406.15" y2="419.54" xlink:href="#linear-gradient"/><linearGradient id="linear-gradient-11" x1="307.79" y1="313.668" x2="320.86" y2="336.439" gradientUnits="userSpaceOnUse"><stop offset="0" stop-color="#f5faff" stop-opacity="0"/><stop offset="1" stop-color="#b6d1f1"/></linearGradient><linearGradient id="linear-gradient-12" x1="310.097" y1="389.466" x2="310.097" y2="418.366" gradientUnits="userSpaceOnUse"><stop offset="0" stop-color="#7ba4ff"/><stop offset="1"/></linearGradient></defs><g id="Layer_2" data-name="Layer 2"><rect class="cls-1" x="108.607" y="106" width="186.591" height="186.591" rx="22.043"/><path class="cls-2" d="M294.951,194.18v76.177a21.826,21.826,0,0,1-2.6,10.364l-2.288,2.288-72.131-72.13,46.853-46.862Z"/><path class="cls-3" d="M294.954,221.415v48.951a21.983,21.983,0,0,1-21.983,21.983H167.143L228.065,170.5a23.162,23.162,0,0,1,41.434,0Z"/><polygon class="cls-4" points="241.693 278.751 228.095 292.348 161.575 292.348 122.7 253.473 169.562 206.62 241.693 278.751"/><path class="cls-5" d="M217.233,292.349h-86.4a21.983,21.983,0,0,1-21.983-21.983V257.714L133.3,212.536a23.162,23.162,0,0,1,40.741,0Z"/><rect class="cls-6" x="193.522" y="139.093" width="54.219" height="102.012" transform="translate(-69.799 211.689) rotate(-45)"/><circle class="cls-7" cx="184.346" cy="153.646" r="27.038"/><rect class="cls-8" x="216.802" y="219.409" width="186.591" height="186.591" rx="22.043"/><path class="cls-9" d="M403.4,347.47v36.49A22.045,22.045,0,0,1,381.347,406h-58.49l-47.59-47.59a9.983,9.983,0,0,0,9.92.52l74.46-37.23a10.072,10.072,0,0,0,4.55-13.43Z"/><path class="cls-10" d="M270.63,349.933V275.476a10.06,10.06,0,0,1,14.56-9l74.456,37.228a10.061,10.061,0,0,1,0,18L285.19,358.931A10.06,10.06,0,0,1,270.63,349.933Z"/><path class="cls-11" d="M359.647,321.7l-74.46,37.23a10.059,10.059,0,0,1-14.56-9v-8.35l79.02-39.51a12.924,12.924,0,0,0,2.86-1.93l7.14,3.57A10.058,10.058,0,0,1,359.647,321.7Z"/><g class="cls-12"><path class="cls-13" d="M403.4,367.24v16.72A22.045,22.045,0,0,1,381.347,406h-142.5a22.045,22.045,0,0,1-22.05-22.04V367.24a22.047,22.047,0,0,0,22.05,22.05h142.5A22.047,22.047,0,0,0,403.4,367.24Z"/></g></g></svg>