<svg xmlns="http://www.w3.org/2000/svg" xmlns:xlink="http://www.w3.org/1999/xlink" viewBox="0 0 512 512"><defs><style>.cls-1{fill:url(#linear-gradient);}.cls-2{fill:url(#linear-gradient-2);}.cls-3{fill:url(#linear-gradient-3);}.cls-4{fill:url(#linear-gradient-4);}.cls-5{fill:url(#linear-gradient-5);}.cls-6{fill:url(#linear-gradient-6);}.cls-7{fill:url(#linear-gradient-7);}.cls-10,.cls-17,.cls-8{opacity:0.5;}.cls-8{fill:url(#linear-gradient-8);}.cls-9{fill:url(#linear-gradient-9);}.cls-10{fill:url(#linear-gradient-10);}.cls-11,.cls-12,.cls-13{opacity:0.2;}.cls-11{fill:url(#linear-gradient-11);}.cls-12{fill:url(#linear-gradient-12);}.cls-13{fill:url(#linear-gradient-13);}.cls-14{fill:url(#linear-gradient-14);}.cls-15{fill:url(#linear-gradient-15);}.cls-16{fill:url(#linear-gradient-16);}.cls-18{fill:url(#linear-gradient-17);}</style><linearGradient id="linear-gradient" x1="230.829" y1="351.192" x2="268.448" y2="351.192" gradientUnits="userSpaceOnUse"><stop offset="0" stop-color="#f5faff"/><stop offset="1" stop-color="#b6d1f1"/></linearGradient><linearGradient id="linear-gradient-2" x1="256" y1="193.192" x2="256" y2="363.95" gradientUnits="userSpaceOnUse"><stop offset="0" stop-color="#b6d1f1"/><stop offset="1" stop-color="#f5faff"/></linearGradient><linearGradient id="linear-gradient-3" x1="256.411" y1="358.792" x2="256.411" y2="406.89" gradientUnits="userSpaceOnUse"><stop offset="0" stop-color="#383a44"/><stop offset="1" stop-color="#19223d"/></linearGradient><linearGradient id="linear-gradient-4" x1="76.222" y1="243.944" x2="406.936" y2="243.944" gradientUnits="userSpaceOnUse"><stop offset="0" stop-color="#19223d"/><stop offset="1" stop-color="#040a21"/></linearGradient><linearGradient id="linear-gradient-5" x1="191.588" y1="202.074" x2="320.412" y2="202.074" xlink:href="#linear-gradient"/><linearGradient id="linear-gradient-6" x1="171.83" y1="202.074" x2="326.666" y2="202.074" xlink:href="#linear-gradient-2"/><linearGradient id="linear-gradient-7" x1="216.963" y1="207.72" x2="295.037" y2="285.793" gradientUnits="userSpaceOnUse"><stop offset="0" stop-color="#93c2ff"/><stop offset="1" stop-color="#6a8fff"/></linearGradient><linearGradient id="linear-gradient-8" x1="274.849" y1="284.307" x2="219.949" y2="229.406" gradientUnits="userSpaceOnUse"><stop offset="0" stop-opacity="0"/><stop offset="1"/></linearGradient><linearGradient id="linear-gradient-9" x1="251.002" y1="260.625" x2="270.297" y2="279.92" gradientUnits="userSpaceOnUse"><stop offset="0" stop-color="#c63454"/><stop offset="0.399" stop-color="#d95270"/><stop offset="0.755" stop-color="#e66582"/><stop offset="1" stop-color="#ea6c88"/></linearGradient><linearGradient id="linear-gradient-10" x1="256" y1="295.127" x2="256" y2="270.702" gradientUnits="userSpaceOnUse"><stop offset="0"/><stop offset="1" stop-opacity="0"/></linearGradient><linearGradient id="linear-gradient-11" x1="276.04" y1="188.159" x2="174.776" y2="86.895" xlink:href="#linear-gradient-8"/><linearGradient id="linear-gradient-12" x1="262.224" y1="202.468" x2="207.774" y2="133.256" xlink:href="#linear-gradient-8"/><linearGradient id="linear-gradient-13" x1="280.845" y1="246.801" x2="179.246" y2="145.202" xlink:href="#linear-gradient-8"/><linearGradient id="linear-gradient-14" x1="135.451" y1="160.434" x2="357.209" y2="160.434" xlink:href="#linear-gradient-7"/><linearGradient id="linear-gradient-15" x1="135.451" y1="187.576" x2="357.209" y2="187.576" xlink:href="#linear-gradient-7"/><linearGradient id="linear-gradient-16" x1="135.451" y1="214.718" x2="357.209" y2="214.718" xlink:href="#linear-gradient-7"/><linearGradient id="linear-gradient-17" x1="256" y1="259.745" x2="256" y2="370.161" xlink:href="#linear-gradient-8"/></defs><g id="Layer_2" data-name="Layer 2"><rect class="cls-1" x="239.501" y="316.579" width="32.999" height="69.228"/><path class="cls-2" d="M256,333.67a98.374,98.374,0,0,1-98.264-98.263,10.434,10.434,0,1,1,20.868,0,77.4,77.4,0,0,0,154.792,0,10.435,10.435,0,1,1,20.869,0A98.375,98.375,0,0,1,256,333.67Z"/><path class="cls-3" d="M315.014,386.407l5.641,7.771c4,5.508-2.256,11.822-11.712,11.822H203.88c-9.658,0-15.9-6.562-11.508-12.09l6.178-7.771c2.209-2.778,6.654-4.527,11.508-4.527H303.3C308.324,381.612,312.89,383.482,315.014,386.407Z"/><rect class="cls-4" x="146.827" y="233.092" width="218.346" height="21.703" rx="10.852"/><rect class="cls-5" x="191.588" y="106" width="128.824" height="192.148" rx="64.412"/><path class="cls-6" d="M256,284.849a51.171,51.171,0,0,1-51.114-51.112V170.412a51.114,51.114,0,1,1,102.228,0v63.325A51.171,51.171,0,0,1,256,284.849Z"/><path class="cls-7" d="M320.412,233.1v.643a64.412,64.412,0,1,1-128.824,0V233.1Z"/><path class="cls-8" d="M289.845,280.084l-21.838,16.6-18.968-18.969s2.717-9.926,3.977-12.883L263.8,254.043Z"/><circle class="cls-9" cx="256" cy="265.624" r="14.138"/><path class="cls-10" d="M270.139,265.624a14.139,14.139,0,1,1-28.169-1.77,14.142,14.142,0,0,0,28.06,0A14.162,14.162,0,0,1,270.139,265.624Z"/><path class="cls-11" d="M320.416,170.408v17.728l-111.281.5-17.551-17.552v-.674c0-1.206.033-2.411.1-3.6l128.5-1.888C320.34,166.724,320.416,168.562,320.416,170.408Z"/><polygon class="cls-12" points="320.416 191.475 320.416 214.149 209.135 215.189 191.584 197.638 191.584 193.364 320.416 191.475"/><path class="cls-13" d="M320.416,218.874v14.863a64.425,64.425,0,0,1-56.239,63.893l-72.593-72.593v-4.275Z"/><rect class="cls-14" x="182.795" y="153.297" width="146.41" height="14.275" rx="7.138"/><rect class="cls-15" x="182.795" y="180.439" width="146.41" height="14.275" rx="7.138"/><rect class="cls-16" x="182.795" y="207.58" width="146.41" height="14.275" rx="7.138"/><g class="cls-17"><path class="cls-18" d="M320.416,233.1v.641a64.416,64.416,0,1,1-128.832,0V233.1h7.7a56.881,56.881,0,0,0,113.438,0Z"/></g></g></svg>