<svg xmlns="http://www.w3.org/2000/svg" xmlns:xlink="http://www.w3.org/1999/xlink" viewBox="0 0 512 512"><defs><style>.cls-1{fill:url(#linear-gradient);}.cls-2{opacity:0.5;fill:url(#linear-gradient-2);}.cls-3{fill:url(#linear-gradient-3);}.cls-4{fill:url(#linear-gradient-4);}.cls-5{fill:url(#linear-gradient-5);}.cls-6{fill:url(#linear-gradient-6);}.cls-7{fill:url(#linear-gradient-7);}</style><linearGradient id="linear-gradient" x1="248.444" y1="282.999" x2="211.114" y2="564.34" gradientUnits="userSpaceOnUse"><stop offset="0" stop-color="#efbd61"/><stop offset="1" stop-color="#f27a46"/></linearGradient><linearGradient id="linear-gradient-2" x1="246.515" y1="251.053" x2="255.835" y2="534.708" gradientUnits="userSpaceOnUse"><stop offset="0.3" stop-opacity="0"/><stop offset="1"/></linearGradient><linearGradient id="linear-gradient-3" x1="201.643" y1="289.029" x2="201.643" y2="385.383" xlink:href="#linear-gradient"/><linearGradient id="linear-gradient-4" x1="174.693" y1="241.923" x2="173.455" y2="329.426" xlink:href="#linear-gradient"/><linearGradient id="linear-gradient-5" x1="262.232" y1="317.789" x2="262.232" y2="372.815" xlink:href="#linear-gradient"/><linearGradient id="linear-gradient-6" x1="289.232" y1="344.878" x2="289.232" y2="386.698" xlink:href="#linear-gradient"/><linearGradient id="linear-gradient-7" x1="137.839" y1="221.45" x2="137.839" y2="263.269" xlink:href="#linear-gradient"/></defs><g id="Layer_2" data-name="Layer 2"><path class="cls-1" d="M371.068,316.894a16.324,16.324,0,0,1,15.463,25.89A155.42,155.42,0,1,1,169.239,125.451a16.324,16.324,0,0,1,25.884,15.466,156.641,156.641,0,0,0-1.567,22.2c.041,85.444,69.912,155.307,155.357,155.337A156.428,156.428,0,0,0,371.068,316.894Z"/><path class="cls-2" d="M386.53,342.788a155.426,155.426,0,0,1-280.54-92.169q0-3.871.19-7.7a155.429,155.429,0,0,0,280.35,84.44,16.346,16.346,0,0,0,1.29-2.02A16.084,16.084,0,0,1,386.53,342.788Z"/><circle class="cls-3" cx="201.643" cy="324.107" r="25.714"/><circle class="cls-4" cx="174.321" cy="268.179" r="19.446"/><circle class="cls-5" cx="262.232" cy="334.232" r="12.054"/><circle class="cls-6" cx="289.232" cy="357.375" r="9.161"/><circle class="cls-7" cx="137.839" cy="233.946" r="9.161"/></g></svg>