<svg xmlns="http://www.w3.org/2000/svg" xmlns:xlink="http://www.w3.org/1999/xlink" viewBox="0 0 512 512"><defs><style>.cls-1{fill:url(#linear-gradient);}.cls-2{fill:url(#linear-gradient-2);}.cls-3{fill:url(#linear-gradient-3);}.cls-12,.cls-4,.cls-5{opacity:0.5;}.cls-4{fill:url(#linear-gradient-4);}.cls-5{fill:url(#linear-gradient-5);}.cls-6{fill:url(#linear-gradient-6);}.cls-7{fill:url(#linear-gradient-7);}.cls-8{fill:url(#linear-gradient-8);}.cls-9{fill:url(#linear-gradient-9);}.cls-10{fill:url(#linear-gradient-10);}.cls-11{fill:url(#linear-gradient-11);}.cls-12{fill:url(#linear-gradient-12);}.cls-13{fill:url(#linear-gradient-13);}.cls-14{fill:url(#linear-gradient-14);}.cls-15{fill:url(#linear-gradient-15);}</style><linearGradient id="linear-gradient" x1="118.877" y1="265.173" x2="474.91" y2="265.173" gradientUnits="userSpaceOnUse"><stop offset="0" stop-color="#19223d"/><stop offset="1" stop-color="#0a1030"/></linearGradient><linearGradient id="linear-gradient-2" x1="114.953" y1="265.173" x2="407.965" y2="265.173" gradientUnits="userSpaceOnUse"><stop offset="0" stop-color="#0a1030"/><stop offset="1" stop-color="#19223d"/></linearGradient><linearGradient id="linear-gradient-3" x1="206.702" y1="211.949" x2="326.361" y2="331.608" gradientUnits="userSpaceOnUse"><stop offset="0" stop-color="#93c2ff"/><stop offset="1" stop-color="#6a8fff"/></linearGradient><linearGradient id="linear-gradient-4" x1="371.052" y1="225.751" x2="303.606" y2="154.564" gradientUnits="userSpaceOnUse"><stop offset="0" stop-opacity="0"/><stop offset="1"/></linearGradient><linearGradient id="linear-gradient-5" x1="319.067" y1="322.439" x2="223.791" y2="241.57" xlink:href="#linear-gradient-4"/><linearGradient id="linear-gradient-6" x1="259.926" y1="231.132" x2="259.926" y2="315.875" xlink:href="#linear-gradient"/><linearGradient id="linear-gradient-7" x1="324.014" y1="148.437" x2="343.988" y2="148.437" gradientTransform="translate(185.564 482.438) rotate(-90)" gradientUnits="userSpaceOnUse"><stop offset="0" stop-color="#efbd61"/><stop offset="1" stop-color="#f27a46"/></linearGradient><linearGradient id="linear-gradient-8" x1="383.027" y1="142.273" x2="403" y2="142.273" gradientTransform="translate(250.74 535.287) rotate(-90)" xlink:href="#linear-gradient-7"/><linearGradient id="linear-gradient-9" x1="357.969" y1="178.548" x2="403" y2="178.548" gradientTransform="matrix(1, 0, 0, 1, 0, 0)" xlink:href="#linear-gradient-7"/><linearGradient id="linear-gradient-10" x1="363.507" y1="110.815" x2="363.507" y2="152.426" gradientTransform="matrix(1, 0, 0, 1, 0, 0)" xlink:href="#linear-gradient-7"/><linearGradient id="linear-gradient-11" x1="298.957" y1="190.875" x2="343.988" y2="190.875" gradientTransform="matrix(1, 0, 0, 1, 0, 0)" xlink:href="#linear-gradient-7"/><linearGradient id="linear-gradient-12" x1="-2539.826" y1="879.891" x2="-2539.826" y2="630.112" gradientTransform="matrix(0.501, -0.501, 0.412, 0.412, 1117.19, -1360.099)" xlink:href="#linear-gradient-4"/><linearGradient id="linear-gradient-13" x1="134.058" y1="205.5" x2="154.031" y2="205.5" gradientTransform="translate(-61.456 349.545) rotate(-90)" xlink:href="#linear-gradient-7"/><linearGradient id="linear-gradient-14" x1="134.058" y1="176.739" x2="172.623" y2="176.739" gradientTransform="matrix(1, 0, 0, 1, 0, 0)" xlink:href="#linear-gradient-7"/><linearGradient id="linear-gradient-15" x1="109" y1="237.652" x2="154.031" y2="237.652" gradientTransform="matrix(1, 0, 0, 1, 0, 0)" xlink:href="#linear-gradient-7"/></defs><g id="Layer_2" data-name="Layer 2"><ellipse class="cls-1" cx="259.926" cy="265.173" rx="141.049" ry="140.827"/><ellipse class="cls-2" cx="259.926" cy="265.173" rx="131.579" ry="131.372"/><path class="cls-3" d="M259.926,371.541c-58.744,0-106.535-47.716-106.535-106.369s47.791-106.366,106.535-106.366,106.536,47.716,106.536,106.366S318.67,371.541,259.926,371.541Z"/><path class="cls-4" d="M398.536,238.964l-29.567,29.521-57.63-57.548,20.817-66.74A140.952,140.952,0,0,1,398.536,238.964Z"/><path class="cls-5" d="M385.088,330.156a141.485,141.485,0,0,1-60.338,60.121h-.01l-98.231-98.086,60.272-60.177Z"/><path class="cls-6" d="M259.926,307.545a42.372,42.372,0,1,1,42.438-42.373A42.454,42.454,0,0,1,259.926,307.545Z"/><path class="cls-7" d="M291.564,138.451h84.875a0,0,0,0,1,0,0v19.973a0,0,0,0,1,0,0H302.1a10.532,10.532,0,0,1-10.532-10.532v-9.441A0,0,0,0,1,291.564,138.451Z" transform="translate(482.438 -185.564) rotate(90)"/><path class="cls-8" d="M367.272,132.287h62.015a0,0,0,0,1,0,0V152.26a0,0,0,0,1,0,0H356.74a0,0,0,0,1,0,0v-9.441A10.532,10.532,0,0,1,367.272,132.287Z" transform="translate(535.287 -250.74) rotate(90)"/><path class="cls-9" d="M380.485,201.028A22.48,22.48,0,1,1,403,178.547,22.524,22.524,0,0,1,380.485,201.028Z"/><path class="cls-10" d="M334.546,106h57.922A10.532,10.532,0,0,1,403,116.532V132.65a0,0,0,0,1,0,0H324.014a0,0,0,0,1,0,0V116.532A10.532,10.532,0,0,1,334.546,106Z"/><path class="cls-11" d="M321.472,213.355a22.48,22.48,0,1,1,22.516-22.48A22.523,22.523,0,0,1,321.472,213.355Z"/><polygon class="cls-12" points="297.536 293.608 227.419 363.615 121.075 257.439 167.088 163.365 297.536 293.608"/><rect class="cls-13" x="111.894" y="195.514" width="64.301" height="19.973" transform="translate(349.545 61.456) rotate(90)"/><path class="cls-14" d="M143.7,163.414h23.347a5.58,5.58,0,0,1,5.58,5.58v3.733a17.337,17.337,0,0,1-17.337,17.337H134.058a0,0,0,0,1,0,0V173.053a9.639,9.639,0,0,1,9.639-9.639Z"/><path class="cls-15" d="M131.515,260.132a22.48,22.48,0,1,1,22.516-22.481A22.523,22.523,0,0,1,131.515,260.132Z"/></g></svg>