<svg xmlns="http://www.w3.org/2000/svg" xmlns:xlink="http://www.w3.org/1999/xlink" viewBox="0 0 512 512"><defs><style>.cls-1{fill:url(#linear-gradient);}.cls-10,.cls-2{opacity:0.5;}.cls-2{fill:url(#linear-gradient-2);}.cls-3{fill:url(#linear-gradient-3);}.cls-4{fill:url(#linear-gradient-4);}.cls-5{fill:url(#linear-gradient-5);}.cls-6{fill:url(#linear-gradient-6);}.cls-7{fill:url(#linear-gradient-7);}.cls-8{fill:url(#linear-gradient-8);}.cls-9{fill:url(#linear-gradient-9);}.cls-10{fill:url(#linear-gradient-10);}</style><linearGradient id="linear-gradient" x1="106.9" y1="256" x2="649.404" y2="256" gradientUnits="userSpaceOnUse"><stop offset="0" stop-color="#f5faff"/><stop offset="1" stop-color="#b6d1f1"/></linearGradient><linearGradient id="linear-gradient-2" x1="-40.437" y1="1366.056" x2="-40.437" y2="1059.896" gradientTransform="translate(248.145 -639.087) scale(0.646 0.748)" gradientUnits="userSpaceOnUse"><stop offset="0.387" stop-opacity="0"/><stop offset="0.806"/></linearGradient><linearGradient id="linear-gradient-3" x1="452.095" y1="330.195" x2="327.83" y2="330.195" gradientTransform="translate(740.838 660.389) rotate(180)" xlink:href="#linear-gradient"/><linearGradient id="linear-gradient-4" x1="146.982" y1="162.854" x2="295.656" y2="162.854" gradientUnits="userSpaceOnUse"><stop offset="0" stop-color="#93c2ff"/><stop offset="1" stop-color="#6a8fff"/></linearGradient><linearGradient id="linear-gradient-5" x1="146.982" y1="348.767" x2="295.656" y2="348.767" xlink:href="#linear-gradient-4"/><linearGradient id="linear-gradient-6" x1="146.982" y1="254.105" x2="221.319" y2="254.105" gradientUnits="userSpaceOnUse"><stop offset="0" stop-color="#efbd61"/><stop offset="1" stop-color="#f27a46"/></linearGradient><linearGradient id="linear-gradient-7" x1="290.493" y1="223.262" x2="250.411" y2="223.262" gradientUnits="userSpaceOnUse"><stop offset="0" stop-color="#6a8fff"/><stop offset="1" stop-color="#93c2ff"/></linearGradient><linearGradient id="linear-gradient-8" x1="290.493" y1="284.948" x2="250.411" y2="284.948" xlink:href="#linear-gradient-7"/><linearGradient id="linear-gradient-9" x1="290.493" y1="254.105" x2="250.411" y2="254.105" xlink:href="#linear-gradient-7"/><linearGradient id="linear-gradient-10" x1="255.997" y1="557.366" x2="255.997" y2="259.166" gradientUnits="userSpaceOnUse"><stop offset="0.194"/><stop offset="0.613" stop-opacity="0"/></linearGradient></defs><g id="Layer_2" data-name="Layer 2"><path class="cls-1" d="M335.738,371.319V308.357h0V128.94A22.941,22.941,0,0,0,312.8,106H129.84a22.941,22.941,0,0,0-22.94,22.94V355.45A50.55,50.55,0,0,0,157.45,406H370.419A34.681,34.681,0,0,1,335.738,371.319Z"/><rect class="cls-2" x="174.283" y="237.42" width="95.493" height="110.599" transform="translate(-141.953 242.734) rotate(-45)"/><path class="cls-3" d="M370.419,254.389h0A34.681,34.681,0,0,1,405.1,289.07V406a0,0,0,0,1,0,0H357.093a21.355,21.355,0,0,1-21.355-21.355V289.07a34.681,34.681,0,0,1,34.681-34.681Z" transform="translate(740.838 660.389) rotate(-180)"/><rect class="cls-4" x="146.982" y="141.818" width="148.673" height="42.072" rx="11.026"/><rect class="cls-5" x="146.982" y="327.731" width="148.673" height="42.072" rx="11.026"/><rect class="cls-6" x="146.982" y="216.865" width="74.337" height="74.479" rx="10.719"/><rect class="cls-7" x="255.574" y="216.865" width="40.082" height="12.792" rx="6.396"/><rect class="cls-8" x="255.574" y="278.552" width="40.082" height="12.792" rx="6.396"/><rect class="cls-9" x="255.574" y="247.709" width="40.082" height="12.792" rx="6.396"/><path class="cls-10" d="M405.1,342.747v28.57A34.688,34.688,0,0,1,370.417,406H157.447a50.547,50.547,0,0,1-50.55-50.55v-28.57a50.547,50.547,0,0,0,50.55,50.55h212.97a34.688,34.688,0,0,0,34.68-34.68Z"/></g></svg>