<svg xmlns="http://www.w3.org/2000/svg" xmlns:xlink="http://www.w3.org/1999/xlink" viewBox="0 0 512 512"><defs><style>.cls-1{fill:url(#linear-gradient);}.cls-2{fill:url(#linear-gradient-2);}.cls-3,.cls-4,.cls-5,.cls-6,.cls-7,.cls-8{opacity:0.2;}.cls-3{fill:url(#linear-gradient-3);}.cls-4{fill:url(#linear-gradient-4);}.cls-5{fill:url(#linear-gradient-5);}.cls-6{fill:url(#linear-gradient-6);}.cls-7{fill:url(#linear-gradient-7);}.cls-8{fill:url(#linear-gradient-8);}.cls-9{fill:url(#linear-gradient-9);}.cls-10{fill:url(#linear-gradient-10);}.cls-11{fill:url(#linear-gradient-11);}.cls-12{fill:url(#linear-gradient-12);}.cls-13{fill:url(#linear-gradient-13);}.cls-14{fill:url(#linear-gradient-14);}.cls-15{fill:url(#linear-gradient-15);}.cls-16{fill:url(#linear-gradient-16);}.cls-17{fill:url(#linear-gradient-17);}.cls-18{fill:url(#linear-gradient-18);}.cls-19{fill:url(#linear-gradient-19);}</style><linearGradient id="linear-gradient" x1="224.854" y1="155.421" x2="224.854" y2="480.809" gradientUnits="userSpaceOnUse"><stop offset="0" stop-color="#f5faff"/><stop offset="1" stop-color="#9cc1e5"/></linearGradient><linearGradient id="linear-gradient-2" x1="134.068" y1="145.182" x2="417.861" y2="475.319" gradientUnits="userSpaceOnUse"><stop offset="0" stop-color="#f5faff"/><stop offset="1" stop-color="#b6d1f1"/></linearGradient><linearGradient id="linear-gradient-3" x1="226.27" y1="175.345" x2="226.27" y2="173.305" gradientTransform="matrix(16.322, -16.322, -24.081, -24.081, 698.184, 8094.538)" gradientUnits="userSpaceOnUse"><stop offset="0"/><stop offset="1" stop-color="#f1f7fe" stop-opacity="0"/></linearGradient><linearGradient id="linear-gradient-4" x1="224.113" y1="173.882" x2="224.113" y2="171.843" xlink:href="#linear-gradient-3"/><linearGradient id="linear-gradient-5" x1="221.955" y1="172.42" x2="221.955" y2="170.38" xlink:href="#linear-gradient-3"/><linearGradient id="linear-gradient-6" x1="245.645" y1="165.337" x2="332.601" y2="252.293" gradientUnits="userSpaceOnUse"><stop offset="0"/><stop offset="1" stop-color="#f1f7fe"/></linearGradient><linearGradient id="linear-gradient-7" x1="261.006" y1="250.976" x2="327.945" y2="317.916" xlink:href="#linear-gradient-6"/><linearGradient id="linear-gradient-8" x1="263.705" y1="323.948" x2="314.872" y2="375.116" xlink:href="#linear-gradient-6"/><linearGradient id="linear-gradient-9" x1="260.649" y1="156.137" x2="260.649" y2="183.167" gradientUnits="userSpaceOnUse"><stop offset="0" stop-color="#93c2ff"/><stop offset="1" stop-color="#6a8fff"/></linearGradient><linearGradient id="linear-gradient-10" x1="170.139" y1="156.137" x2="170.139" y2="183.167" xlink:href="#linear-gradient-9"/><linearGradient id="linear-gradient-11" x1="260.649" y1="226.65" x2="260.649" y2="253.68" xlink:href="#linear-gradient-9"/><linearGradient id="linear-gradient-12" x1="170.139" y1="226.65" x2="170.139" y2="253.68" xlink:href="#linear-gradient-9"/><linearGradient id="linear-gradient-13" x1="260.649" y1="297.163" x2="260.649" y2="324.193" xlink:href="#linear-gradient-9"/><linearGradient id="linear-gradient-14" x1="170.139" y1="297.163" x2="170.139" y2="324.193" xlink:href="#linear-gradient-9"/><linearGradient id="linear-gradient-15" x1="293.75" y1="293.936" x2="397.348" y2="397.534" gradientTransform="matrix(0.707, -0.579, 0.707, 0.579, -147.187, 340.665)" gradientUnits="userSpaceOnUse"><stop offset="0" stop-color="#efbd61"/><stop offset="1" stop-color="#f27a46"/></linearGradient><linearGradient id="linear-gradient-16" x1="254.956" y1="384.642" x2="328.359" y2="391.353" gradientUnits="userSpaceOnUse"><stop offset="0" stop-color="#f7c87c"/><stop offset="1" stop-color="#f2855f"/></linearGradient><linearGradient id="linear-gradient-17" x1="254.946" y1="399.079" x2="268.778" y2="399.079" gradientUnits="userSpaceOnUse"><stop offset="0" stop-color="#19223d"/><stop offset="1" stop-color="#0a1030"/></linearGradient><linearGradient id="linear-gradient-18" x1="310.274" y1="350.667" x2="413.871" y2="247.07" gradientTransform="matrix(0.707, -0.128, 0.707, 0.128, -93.428, 284.917)" gradientUnits="userSpaceOnUse"><stop offset="0" stop-color="#c63454"/><stop offset="0.399" stop-color="#d95270"/><stop offset="0.755" stop-color="#e66582"/><stop offset="1" stop-color="#ea6c88"/></linearGradient><linearGradient id="linear-gradient-19" x1="386.609" y1="274.332" x2="236.308" y2="424.633" gradientTransform="matrix(0.707, -0.057, 0.707, 0.057, -107.498, 299.819)" xlink:href="#linear-gradient-2"/></defs><g id="Layer_2" data-name="Layer 2"><rect class="cls-1" x="118.546" y="116.239" width="212.616" height="289.588" rx="23.843"/><rect class="cls-2" x="118.546" y="106" width="212.616" height="289.588" rx="23.843"/><polygon class="cls-3" points="182.039 166.703 157.01 192.662 222.078 257.73 247.572 232.236 182.039 166.703"/><polygon class="cls-4" points="182.039 237.135 157.01 263.094 222.078 328.162 247.572 302.668 182.039 237.135"/><polygon class="cls-5" points="182.039 307.567 157.01 333.526 222.078 398.594 247.572 373.099 182.039 307.567"/><polygon class="cls-6" points="331.164 206.679 331.164 295.032 280.341 244.209 230.29 194.159 293.218 168.733 331.164 206.679"/><polygon class="cls-7" points="331.164 276.952 331.164 365.315 280.331 314.483 230.29 264.442 280.341 244.209 293.218 239.007 331.164 276.952"/><path class="cls-8" d="M331.164,347.226v34.76a23.846,23.846,0,0,1-23.843,23.843H301.4L230.29,334.715l50.041-20.232,12.887-5.2Z"/><rect class="cls-9" x="223.778" y="162.249" width="73.743" height="36.064" rx="18.032"/><rect class="cls-10" x="152.188" y="162.249" width="35.901" height="36.064" rx="17.951"/><rect class="cls-11" x="223.778" y="232.762" width="73.743" height="36.064" rx="18.032"/><rect class="cls-12" x="152.188" y="232.762" width="35.901" height="36.064" rx="17.951"/><rect class="cls-13" x="223.778" y="303.275" width="73.743" height="36.064" rx="18.032"/><rect class="cls-14" x="152.188" y="303.275" width="35.901" height="36.064" rx="17.951"/><rect class="cls-15" x="290.195" y="278.5" width="59.947" height="124.544" transform="translate(334.738 -126.584) rotate(45)"/><path class="cls-16" d="M254.941,363.611v38.621A3.768,3.768,0,0,0,258.709,406H297.33Z"/><path class="cls-17" d="M268.778,406H258.713a3.767,3.767,0,0,1-3.767-3.767V392.158Z"/><path class="cls-18" d="M371.466,273.257h4.925A27.511,27.511,0,0,1,403.9,300.768v0a0,0,0,0,1,0,0H343.955a0,0,0,0,1,0,0v0A27.511,27.511,0,0,1,371.466,273.257Z" transform="translate(312.47 -180.343) rotate(45)"/><rect class="cls-19" x="329.884" y="294.94" width="59.947" height="12.286" transform="translate(318.298 -166.273) rotate(45)"/></g></svg>