<svg xmlns="http://www.w3.org/2000/svg" xmlns:xlink="http://www.w3.org/1999/xlink" viewBox="0 0 512 512"><defs><style>.cls-1{fill:url(#linear-gradient);}.cls-2{fill:url(#linear-gradient-2);}.cls-3{fill:url(#linear-gradient-3);}.cls-4{fill:url(#linear-gradient-4);}.cls-5{fill:url(#linear-gradient-5);}.cls-6{opacity:0.2;fill:url(#linear-gradient-6);}</style><linearGradient id="linear-gradient" x1="146.501" y1="179.287" x2="146.501" y2="200.765" gradientUnits="userSpaceOnUse"><stop offset="0" stop-color="#f5faff"/><stop offset="1" stop-color="#b6d1f1"/></linearGradient><linearGradient id="linear-gradient-2" x1="170.141" y1="245.261" x2="170.141" y2="266.739" xlink:href="#linear-gradient"/><linearGradient id="linear-gradient-3" x1="138.575" y1="310.41" x2="138.575" y2="331.888" xlink:href="#linear-gradient"/><linearGradient id="linear-gradient-4" x1="288.124" y1="134.498" x2="288.124" y2="344.827" gradientUnits="userSpaceOnUse"><stop offset="0" stop-color="#93c2ff"/><stop offset="1" stop-color="#6a8fff"/></linearGradient><linearGradient id="linear-gradient-5" x1="288.124" y1="166.386" x2="288.124" y2="403.872" xlink:href="#linear-gradient-4"/><linearGradient id="linear-gradient-6" x1="311.044" y1="365.074" x2="285.347" y2="296.408" gradientUnits="userSpaceOnUse"><stop offset="0"/><stop offset="1" stop-color="#f1f7fe" stop-opacity="0"/></linearGradient></defs><g id="Layer_2" data-name="Layer 2"><rect class="cls-1" x="106" y="179.287" width="81.001" height="21.478" rx="10.739"/><rect class="cls-2" x="129.641" y="245.261" width="81.001" height="21.478" rx="10.739"/><rect class="cls-3" x="107.558" y="310.41" width="62.034" height="21.478" rx="10.739"/><path class="cls-4" d="M406,256H201.891l-29.718-80.046c-9.305-25.051,16.878-48.546,40.776-36.6L388,226.882A32.19,32.19,0,0,1,406,256Z"/><path class="cls-5" d="M406,256a32.19,32.19,0,0,1-18,29.118l-175.051,87.53c-23.9,11.944-50.081-11.551-40.776-36.6L201.891,256Z"/><path class="cls-6" d="M406,256A32.193,32.193,0,0,1,388,285.121L212.948,372.644c-22.672,11.332-47.4-9.236-41.931-32.763,4.079,17.138,23.672,28.7,41.931,19.576L388,271.925C401.256,265.53,406,256,406,256Z"/></g></svg>