<svg xmlns="http://www.w3.org/2000/svg" xmlns:xlink="http://www.w3.org/1999/xlink" viewBox="0 0 512 512"><defs><style>.cls-1{fill:url(#linear-gradient);}.cls-2{fill:url(#linear-gradient-2);}.cls-3{fill:url(#linear-gradient-3);}.cls-4{fill:url(#linear-gradient-4);}.cls-5{fill:url(#linear-gradient-5);}.cls-14,.cls-16,.cls-18,.cls-20,.cls-6,.cls-7,.cls-8,.cls-9{opacity:0.5;}.cls-6{fill:url(#linear-gradient-6);}.cls-7{fill:url(#linear-gradient-7);}.cls-8{fill:url(#linear-gradient-8);}.cls-9{fill:url(#linear-gradient-9);}.cls-10{fill:url(#linear-gradient-10);}.cls-11{fill:url(#linear-gradient-11);}.cls-12{fill:url(#linear-gradient-12);}.cls-13{fill:url(#linear-gradient-13);}.cls-14{fill:url(#linear-gradient-14);}.cls-15{fill:url(#linear-gradient-15);}.cls-16{fill:url(#linear-gradient-16);}.cls-17{fill:url(#linear-gradient-17);}.cls-18{fill:url(#linear-gradient-18);}.cls-19{fill:url(#linear-gradient-19);}.cls-20{fill:url(#linear-gradient-20);}</style><linearGradient id="linear-gradient" x1="164.517" y1="256" x2="599.749" y2="256" gradientUnits="userSpaceOnUse"><stop offset="0.709" stop-color="#b6d1f1"/><stop offset="1" stop-color="#f5faff"/></linearGradient><linearGradient id="linear-gradient-2" x1="490.928" y1="256" x2="338.883" y2="256" gradientUnits="userSpaceOnUse"><stop offset="0" stop-color="#f5faff"/><stop offset="1" stop-color="#b6d1f1"/></linearGradient><linearGradient id="linear-gradient-3" x1="335.164" y1="256" x2="384.935" y2="256" gradientUnits="userSpaceOnUse"><stop offset="0" stop-color="#b6d1f1"/><stop offset="1" stop-color="#f5faff"/></linearGradient><linearGradient id="linear-gradient-4" x1="126.056" y1="256" x2="584.134" y2="256" gradientUnits="userSpaceOnUse"><stop offset="0" stop-color="#93c2ff"/><stop offset="1" stop-color="#6a8fff"/></linearGradient><linearGradient id="linear-gradient-5" x1="-31.365" y1="217.814" x2="354.423" y2="217.814" gradientUnits="userSpaceOnUse"><stop offset="0" stop-color="#6a8fff"/><stop offset="1" stop-color="#93c2ff"/></linearGradient><linearGradient id="linear-gradient-6" x1="274.234" y1="311.419" x2="197.641" y2="129.418" gradientUnits="userSpaceOnUse"><stop offset="0" stop-opacity="0"/><stop offset="1"/></linearGradient><linearGradient id="linear-gradient-7" x1="266.08" y1="380.565" x2="214.211" y2="230.636" xlink:href="#linear-gradient-6"/><linearGradient id="linear-gradient-8" x1="256.002" y1="474.548" x2="256.002" y2="382.899" gradientUnits="userSpaceOnUse"><stop offset="0"/><stop offset="1" stop-opacity="0"/></linearGradient><linearGradient id="linear-gradient-9" x1="275.226" y1="229.943" x2="160.467" y2="72.304" xlink:href="#linear-gradient-6"/><linearGradient id="linear-gradient-10" x1="236.769" y1="322.791" x2="236.769" y2="384.401" xlink:href="#linear-gradient-2"/><linearGradient id="linear-gradient-11" x1="236.776" y1="235.942" x2="236.776" y2="291.172" xlink:href="#linear-gradient-2"/><linearGradient id="linear-gradient-12" x1="236.769" y1="157.558" x2="236.769" y2="225.689" xlink:href="#linear-gradient-2"/><linearGradient id="linear-gradient-13" x1="357.697" y1="351.848" x2="398.977" y2="351.848" xlink:href="#linear-gradient-4"/><linearGradient id="linear-gradient-14" x1="378.336" y1="393.85" x2="378.336" y2="374.556" xlink:href="#linear-gradient-8"/><linearGradient id="linear-gradient-15" x1="357.697" y1="289.061" x2="398.977" y2="289.061" gradientUnits="userSpaceOnUse"><stop offset="0" stop-color="#c63454"/><stop offset="0.399" stop-color="#d95270"/><stop offset="0.755" stop-color="#e66582"/><stop offset="1" stop-color="#ea6c88"/></linearGradient><linearGradient id="linear-gradient-16" x1="378.337" y1="331.064" x2="378.337" y2="311.77" xlink:href="#linear-gradient-8"/><linearGradient id="linear-gradient-17" x1="357.698" y1="226.275" x2="398.978" y2="226.275" gradientUnits="userSpaceOnUse"><stop offset="0" stop-color="#efbd61"/><stop offset="1" stop-color="#f27a46"/></linearGradient><linearGradient id="linear-gradient-18" x1="378.337" y1="268.278" x2="378.337" y2="248.984" xlink:href="#linear-gradient-8"/><linearGradient id="linear-gradient-19" x1="357.698" y1="163.489" x2="398.978" y2="163.489" gradientUnits="userSpaceOnUse"><stop offset="0" stop-color="#aed87c"/><stop offset="0.155" stop-color="#a4d371"/><stop offset="0.379" stop-color="#9ed16a"/><stop offset="1" stop-color="#9cd068"/></linearGradient><linearGradient id="linear-gradient-20" x1="378.337" y1="205.491" x2="378.337" y2="186.197" xlink:href="#linear-gradient-8"/></defs><g id="Layer_2" data-name="Layer 2"><path class="cls-1" d="M164.517,106H360.395a25.549,25.549,0,0,1,25.549,25.549v248.9A25.549,25.549,0,0,1,360.395,406H164.517a0,0,0,0,1,0,0V106A0,0,0,0,1,164.517,106Z"/><path class="cls-2" d="M152.788,106H348.665a25.549,25.549,0,0,1,25.549,25.549v248.9A25.549,25.549,0,0,1,348.665,406H152.788a0,0,0,0,1,0,0V106A0,0,0,0,1,152.788,106Z"/><path class="cls-3" d="M149.395,106H332.272a25.549,25.549,0,0,1,25.549,25.549v248.9A25.549,25.549,0,0,1,332.272,406H149.395a0,0,0,0,1,0,0V106A0,0,0,0,1,149.395,106Z"/><path class="cls-4" d="M148.064,106H321.934a25.549,25.549,0,0,1,25.549,25.549v248.9A25.549,25.549,0,0,1,321.934,406H148.064a22.008,22.008,0,0,1-22.008-22.008V128.009A22.008,22.008,0,0,1,148.064,106Z"/><circle class="cls-5" cx="236.769" cy="217.814" r="73.351"/><polygon class="cls-6" points="347.486 324.292 347.486 338.082 310.877 338.042 285.047 338.012 253.717 337.982 191.318 275.583 286.637 263.433 347.486 324.292"/><path class="cls-7" d="M347.486,374.652v5.8A25.55,25.55,0,0,1,321.937,406H220.808l-44.92-44.919,109.159-23.07,21.3-4.5,4.53,4.53Z"/><path class="cls-8" d="M385.946,355.382v25.07A25.55,25.55,0,0,1,360.4,406H148.068a22.01,22.01,0,0,1-22.01-22.009v-25.07a22.011,22.011,0,0,0,22.01,22.01H360.4A25.551,25.551,0,0,0,385.946,355.382Z"/><polygon class="cls-9" points="346.793 256.124 253.072 256.014 211.261 214.204 264.978 174.308 346.793 256.124"/><rect class="cls-10" x="163.418" y="325.23" width="146.702" height="36.263" rx="18.132"/><path class="cls-11" d="M279.933,249.98a16.821,16.821,0,0,1,0,27.153,73.352,73.352,0,0,1-86.309,0,16.819,16.819,0,0,1,0-27.159,73.356,73.356,0,0,1,86.309,0Z"/><circle class="cls-12" cx="236.769" cy="191.623" r="34.066"/><path class="cls-13" d="M357.7,320.457H393.93a5.047,5.047,0,0,1,5.047,5.047v52.689a5.047,5.047,0,0,1-5.047,5.047H357.7a0,0,0,0,1,0,0V320.457A0,0,0,0,1,357.7,320.457Z"/><path class="cls-14" d="M398.976,367.9v10.29a5.049,5.049,0,0,1-5.05,5.05H357.7v-10.29h36.23A5.049,5.049,0,0,0,398.976,367.9Z"/><path class="cls-15" d="M357.7,257.671h36.234a5.047,5.047,0,0,1,5.047,5.047v52.689a5.047,5.047,0,0,1-5.047,5.047H357.7a0,0,0,0,1,0,0V257.671A0,0,0,0,1,357.7,257.671Z"/><path class="cls-16" d="M398.976,305.117v10.29a5.049,5.049,0,0,1-5.05,5.05H357.7v-10.29h36.229A5.049,5.049,0,0,0,398.976,305.117Z"/><path class="cls-17" d="M357.7,194.884h36.234a5.047,5.047,0,0,1,5.047,5.047v52.689a5.047,5.047,0,0,1-5.047,5.047H357.7a0,0,0,0,1,0,0V194.884A0,0,0,0,1,357.7,194.884Z"/><path class="cls-18" d="M398.977,242.331v10.29a5.049,5.049,0,0,1-5.05,5.05H357.7v-10.29h36.23A5.049,5.049,0,0,0,398.977,242.331Z"/><path class="cls-19" d="M357.7,132.1h36.234a5.047,5.047,0,0,1,5.047,5.047v52.689a5.047,5.047,0,0,1-5.047,5.047H357.7a0,0,0,0,1,0,0V132.1A0,0,0,0,1,357.7,132.1Z"/><path class="cls-20" d="M398.977,179.544v10.29a5.049,5.049,0,0,1-5.05,5.05H357.7v-10.29h36.229A5.049,5.049,0,0,0,398.977,179.544Z"/></g></svg>