<svg xmlns="http://www.w3.org/2000/svg" xmlns:xlink="http://www.w3.org/1999/xlink" viewBox="0 0 512 512"><defs><style>.cls-1{fill:url(#linear-gradient);}.cls-2{fill:url(#radial-gradient);}.cls-3{fill:url(#linear-gradient-2);}.cls-4{fill:url(#linear-gradient-3);}.cls-5{fill:url(#linear-gradient-4);}.cls-6{fill:url(#linear-gradient-5);}</style><linearGradient id="linear-gradient" x1="160.709" y1="-812.927" x2="151.278" y2="-908.618" gradientTransform="translate(-498.462 798.915) rotate(45)" gradientUnits="userSpaceOnUse"><stop offset="0" stop-color="#83b24b"/><stop offset="0.074" stop-color="#8bbc54"/><stop offset="0.221" stop-color="#95c760"/><stop offset="0.427" stop-color="#9ace66"/><stop offset="1" stop-color="#9cd068"/></linearGradient><radialGradient id="radial-gradient" cx="25.033" cy="-866.451" r="125.957" gradientTransform="translate(-498.462 798.915) rotate(45)" gradientUnits="userSpaceOnUse"><stop offset="0" stop-color="#c6e5a1"/><stop offset="0.059" stop-color="#c2e39c" stop-opacity="0.91"/><stop offset="0.253" stop-color="#b7dd8c" stop-opacity="0.636"/><stop offset="0.439" stop-color="#add97f" stop-opacity="0.409"/><stop offset="0.611" stop-color="#a6d575" stop-opacity="0.232"/><stop offset="0.767" stop-color="#a0d26e" stop-opacity="0.105"/><stop offset="0.902" stop-color="#9dd16a" stop-opacity="0.027"/><stop offset="1" stop-color="#9cd068" stop-opacity="0"/></radialGradient><linearGradient id="linear-gradient-2" x1="35.116" y1="-974.944" x2="30.003" y2="-902.012" gradientTransform="translate(-498.462 798.915) rotate(45)" gradientUnits="userSpaceOnUse"><stop offset="0.659" stop-color="#83b24b"/><stop offset="1" stop-color="#9cd068"/></linearGradient><linearGradient id="linear-gradient-3" x1="259.18" y1="-963.957" x2="270.752" y2="-900.713" gradientTransform="translate(-498.462 798.915) rotate(45)" gradientUnits="userSpaceOnUse"><stop offset="0.685" stop-color="#83b24b"/><stop offset="1" stop-color="#9cd068"/></linearGradient><linearGradient id="linear-gradient-4" x1="30.457" y1="-948.091" x2="39.488" y2="-905.658" gradientTransform="matrix(0.991, -0.131, 0.131, 0.991, 277.185, 1092.74)" gradientUnits="userSpaceOnUse"><stop offset="0" stop-color="#aed87c"/><stop offset="0.155" stop-color="#a4d371"/><stop offset="0.379" stop-color="#9ed16a"/><stop offset="1" stop-color="#9cd068"/></linearGradient><linearGradient id="linear-gradient-5" x1="226.984" y1="-962.57" x2="325.56" y2="-897.392" gradientTransform="translate(738.785 -568.707) rotate(-172.471)" xlink:href="#linear-gradient-4"/></defs><g id="Layer_2" data-name="Layer 2"><path class="cls-1" d="M379.212,318.311a30.571,30.571,0,0,1,1.61,47.205l-5.363,4.724L363.05,381.159a99.653,99.653,0,0,1-136.3-4.348l-91.563-91.564a99.656,99.656,0,0,1-4.347-136.3l10.919-12.409,4.723-5.362a30.571,30.571,0,0,1,47.2,1.61l20.468,26.707a30.571,30.571,0,0,1-6.464,43.451l-9.707,6.952h0a27.929,27.929,0,0,0-3.468,42.441l65.145,65.145a27.928,27.928,0,0,0,42.44-3.468h0l6.952-9.707a30.571,30.571,0,0,1,43.451-6.465Z"/><path class="cls-2" d="M379.212,318.311a30.571,30.571,0,0,1,1.61,47.205l-5.363,4.724L363.05,381.159a99.653,99.653,0,0,1-136.3-4.348l-91.563-91.564a99.656,99.656,0,0,1-4.347-136.3l10.919-12.409,4.723-5.362a30.571,30.571,0,0,1,47.2,1.61l20.468,26.707a30.571,30.571,0,0,1-6.464,43.451l-9.707,6.952h0a27.929,27.929,0,0,0-3.468,42.441l65.145,65.145a27.928,27.928,0,0,0,42.44-3.468h0l6.952-9.707a30.571,30.571,0,0,1,43.451-6.465Z"/><path class="cls-3" d="M197.985,209.9a26.767,26.767,0,0,0-3.523,2.975,27.493,27.493,0,0,0-5.95,8.9,20.4,20.4,0,0,1-1.54-1.751L131.7,147.952l10.064-11.414,4.726-5.358a30.59,30.59,0,0,1,47.216,1.6l20.465,26.71a30.551,30.551,0,0,1-6.477,43.44Z"/><path class="cls-4" d="M380.818,365.514l-5.359,4.726L364.045,380.3,292,325.048a21.534,21.534,0,0,1-1.772-1.561,27.885,27.885,0,0,0,11.878-9.473l6.962-9.7a30.552,30.552,0,0,1,43.441-6.477L379.214,318.3A30.591,30.591,0,0,1,380.818,365.514Z"/><rect class="cls-5" x="132.093" y="138.171" width="109.97" height="43.476" rx="7.353" transform="translate(200.182 -85.849) rotate(52.529)"/><rect class="cls-6" x="297.107" y="303.186" width="109.97" height="43.477" rx="7.353" transform="translate(433.861 797.003) rotate(-142.529)"/></g></svg>