<svg xmlns="http://www.w3.org/2000/svg" xmlns:xlink="http://www.w3.org/1999/xlink" viewBox="0 0 512 512"><defs><style>.cls-1{fill:url(#linear-gradient);}.cls-2{fill:url(#linear-gradient-2);}.cls-3{fill:url(#linear-gradient-3);}.cls-4{fill:url(#linear-gradient-4);}.cls-5{fill:url(#linear-gradient-5);}.cls-6{fill:url(#linear-gradient-6);}.cls-7{fill:url(#linear-gradient-7);}.cls-8{fill:url(#linear-gradient-8);}.cls-9{fill:url(#linear-gradient-9);}.cls-10{fill:url(#linear-gradient-10);}.cls-11{fill:url(#linear-gradient-11);}.cls-12{fill:url(#linear-gradient-12);}.cls-13{fill:url(#linear-gradient-13);}.cls-14{fill:#fff;}</style><linearGradient id="linear-gradient" x1="-5648.547" y1="381.397" x2="-5573.482" y2="381.397" gradientTransform="matrix(-0.959, -0.282, -0.282, 0.959, -4981.845, -1568.48)" gradientUnits="userSpaceOnUse"><stop offset="0" stop-color="#f5faff"/><stop offset="1" stop-color="#b6d1f1"/></linearGradient><linearGradient id="linear-gradient-2" x1="292.946" y1="388.774" x2="292.946" y2="436" gradientTransform="translate(119.967 -67.35) rotate(16.396)" gradientUnits="userSpaceOnUse"><stop offset="0" stop-opacity="0"/><stop offset="1"/></linearGradient><linearGradient id="linear-gradient-3" x1="-5713.672" y1="362.235" x2="-5638.607" y2="362.235" gradientTransform="translate(5561.734 -1568.48) rotate(-16.396)" xlink:href="#linear-gradient"/><linearGradient id="linear-gradient-4" x1="358.07" y1="369.613" x2="358.07" y2="416.839" gradientTransform="matrix(-0.959, 0.282, 0.282, 0.959, 459.923, -67.35)" xlink:href="#linear-gradient-2"/><linearGradient id="linear-gradient-5" x1="1740.127" y1="-7051.343" x2="1699.779" y2="-7051.343" gradientTransform="translate(-1365.442 7362.45)" gradientUnits="userSpaceOnUse"><stop offset="0" stop-color="#19223d"/><stop offset="1" stop-color="#040a21"/></linearGradient><linearGradient id="linear-gradient-6" x1="1740.127" y1="-7019.157" x2="1699.779" y2="-7019.157" gradientTransform="translate(-1397.628 7330.264)" xlink:href="#linear-gradient-5"/><linearGradient id="linear-gradient-7" x1="1740.127" y1="-6886.512" x2="1699.779" y2="-6886.512" gradientTransform="translate(-1530.274 7197.618)" xlink:href="#linear-gradient-5"/><linearGradient id="linear-gradient-8" x1="1740.127" y1="-6854.326" x2="1699.779" y2="-6854.326" gradientTransform="translate(-1562.459 7165.433)" xlink:href="#linear-gradient-5"/><linearGradient id="linear-gradient-9" x1="182.561" y1="201.777" x2="182.561" y2="348.659" gradientTransform="matrix(1, 0, 0, 1, 0, 0)" xlink:href="#linear-gradient"/><linearGradient id="linear-gradient-10" x1="-5588.614" y1="224.771" x2="-5692.474" y2="328.632" gradientTransform="matrix(-1, 0, 0, 1, -5318.071, 0)" xlink:href="#linear-gradient"/><linearGradient id="linear-gradient-11" x1="182.005" y1="298.136" x2="206.091" y2="370.275" gradientTransform="matrix(1, 0, 0, 1, 0, 0)" xlink:href="#linear-gradient-2"/><linearGradient id="linear-gradient-12" x1="329.624" y1="299.176" x2="318.44" y2="335.787" gradientTransform="matrix(1, 0, 0, 1, 0, 0)" xlink:href="#linear-gradient-2"/><linearGradient id="linear-gradient-13" x1="166.619" y1="255.207" x2="346.975" y2="255.207" gradientUnits="userSpaceOnUse"><stop offset="0" stop-color="#6d93ff"/><stop offset="0.525" stop-color="#93c2ff"/><stop offset="1" stop-color="#6a8fff"/></linearGradient></defs><g id="Layer_2" data-name="Layer 2"><path class="cls-1" d="M252.847,385.887l67.718,19.925a4.47,4.47,0,0,0,5.613-5.309l-6-25.6a4.468,4.468,0,0,0-3.09-3.267l-55.262-16.26Z"/><path class="cls-2" d="M320.563,405.813l-67.714-19.924,2.285-7.768,70.673,20.8.372,1.592A4.469,4.469,0,0,1,320.563,405.813Z"/><path class="cls-3" d="M259.158,385.887,191.44,405.812a4.47,4.47,0,0,1-5.614-5.309l6-25.6a4.468,4.468,0,0,1,3.09-3.267l55.262-16.26Z"/><path class="cls-4" d="M191.441,405.813l67.714-19.924-2.285-7.768-70.673,20.8-.371,1.592A4.469,4.469,0,0,0,191.441,405.813Z"/><rect class="cls-5" x="334.336" y="302.083" width="40.349" height="18.048" rx="9.024" transform="translate(665.617 -43.404) rotate(90)"/><rect class="cls-6" x="302.15" y="302.083" width="40.349" height="18.048" rx="9.024" transform="translate(633.432 -11.218) rotate(90)"/><rect class="cls-7" x="169.505" y="302.083" width="40.349" height="18.048" rx="9.024" transform="translate(500.786 121.427) rotate(90)"/><rect class="cls-8" x="137.319" y="302.083" width="40.349" height="18.048" rx="9.024" transform="translate(468.6 153.613) rotate(90)"/><path class="cls-9" d="M256,283.787l-139.787,46a5.4,5.4,0,0,1-7.094-5.134V285.794a5.405,5.405,0,0,1,2.168-4.329L256,173.248Z"/><path class="cls-10" d="M256,283.787l139.787,46a5.4,5.4,0,0,0,7.1-5.134V285.794a5.408,5.408,0,0,0-2.168-4.329L256,173.248Z"/><path class="cls-11" d="M256.005,274.054v9.738l-139.787,46a5.407,5.407,0,0,1-7.1-5.132V322.4Z"/><path class="cls-12" d="M402.884,322.4v2.258a5.4,5.4,0,0,1-7.092,5.132L256.005,283.792v-9.738Z"/><path class="cls-13" d="M280.581,367.651l-15.406,30.861a10.665,10.665,0,0,1-19.085,0l-15.154-30.359a85.353,85.353,0,0,1-8.17-26.327c-7.377-52.8-9.266-110.033-7.652-170.089a85.092,85.092,0,0,1,28.263-61.047h0a18.36,18.36,0,0,1,24.512,0l.471.422a84.822,84.822,0,0,1,28.219,59.942c2.241,60.31.184,117.786-7.968,171.242A85.685,85.685,0,0,1,280.581,367.651Z"/><path class="cls-14" d="M280.679,169.839a3.965,3.965,0,0,1-2.813-1.166,51.17,51.17,0,0,0-12.8-8.633,20.968,20.968,0,0,0-19.266.217,48.761,48.761,0,0,0-11.664,8.417,3.979,3.979,0,1,1-5.626-5.628,56.7,56.7,0,0,1,13.558-9.818,28.947,28.947,0,0,1,26.588-.291c6.339,3.2,11.33,6.6,14.834,10.11a3.979,3.979,0,0,1-2.813,6.792Z"/></g></svg>