<svg xmlns="http://www.w3.org/2000/svg" xmlns:xlink="http://www.w3.org/1999/xlink" viewBox="0 0 512 512"><defs><style>.cls-1{fill:url(#linear-gradient);}.cls-2{fill:url(#linear-gradient-2);}.cls-3{opacity:0.3;fill:url(#linear-gradient-3);}.cls-4{fill:url(#linear-gradient-4);}.cls-5{fill:url(#linear-gradient-5);}.cls-6,.cls-7{opacity:0.5;}.cls-6{fill:url(#linear-gradient-6);}.cls-7{fill:url(#linear-gradient-7);}</style><linearGradient id="linear-gradient" x1="256" y1="202.992" x2="256" y2="492.358" gradientUnits="userSpaceOnUse"><stop offset="0" stop-color="#f5faff"/><stop offset="1" stop-color="#b6d1f1"/></linearGradient><linearGradient id="linear-gradient-2" x1="210.543" y1="256" x2="603.665" y2="256" xlink:href="#linear-gradient"/><linearGradient id="linear-gradient-3" x1="-3584.661" y1="906.113" x2="-3584.661" y2="352.145" gradientTransform="matrix(0.243, -0.243, 0.269, 0.269, 996.045, -779.52)" gradientUnits="userSpaceOnUse"><stop offset="0" stop-color="#d7e7f8" stop-opacity="0"/><stop offset="1"/></linearGradient><linearGradient id="linear-gradient-4" x1="235.955" y1="205.956" x2="313.327" y2="283.327" gradientUnits="userSpaceOnUse"><stop offset="0" stop-color="#93c2ff"/><stop offset="1" stop-color="#6a8fff"/></linearGradient><linearGradient id="linear-gradient-5" x1="229.543" y1="305.492" x2="331.665" y2="407.615" xlink:href="#linear-gradient-4"/><linearGradient id="linear-gradient-6" x1="255.982" y1="431.87" x2="255.982" y2="350.391" gradientUnits="userSpaceOnUse"><stop offset="0"/><stop offset="1" stop-opacity="0"/></linearGradient><linearGradient id="linear-gradient-7" x1="255.998" y1="344.306" x2="255.998" y2="246.363" xlink:href="#linear-gradient-6"/></defs><g id="Layer_2" data-name="Layer 2"><circle class="cls-1" cx="256" cy="256" r="150"/><circle class="cls-2" cx="256" cy="256" r="128.571"/><polygon class="cls-3" points="377.562 268.093 298.768 346.887 211.678 259.797 233.153 205.5 290.472 181.003 377.562 268.093"/><circle class="cls-4" cx="256" cy="226" r="56.694"/><path class="cls-5" d="M345.071,315.194a23.688,23.688,0,0,1-.443,33.941,128.553,128.553,0,0,1-177.26,0,23.622,23.622,0,0,1-.709-33.669l.166-.167a45.324,45.324,0,0,1,32.143-13.32h114.06A45.318,45.318,0,0,1,345.071,315.194Z"/><path class="cls-6" d="M344.631,349.137a128.556,128.556,0,0,1-177.266-.009,23.8,23.8,0,0,1-5.923-25.525,23.71,23.71,0,0,0,5.923,9,128.568,128.568,0,0,0,177.266,0,23.656,23.656,0,0,0,5.9-8.949A23.769,23.769,0,0,1,344.631,349.137Z"/><path class="cls-7" d="M312.694,226a56.7,56.7,0,1,1-112.955-7.1,56.707,56.707,0,0,0,112.517,0A56.953,56.953,0,0,1,312.694,226Z"/></g></svg>