<svg xmlns="http://www.w3.org/2000/svg" xmlns:xlink="http://www.w3.org/1999/xlink" viewBox="0 0 512 512"><defs><style>.cls-1{fill:url(#linear-gradient);}.cls-10,.cls-11,.cls-12,.cls-2,.cls-3,.cls-4,.cls-5,.cls-6,.cls-7,.cls-8,.cls-9{opacity:0.3;}.cls-2{fill:url(#linear-gradient-2);}.cls-3{fill:url(#linear-gradient-3);}.cls-4{fill:url(#linear-gradient-4);}.cls-5{fill:url(#linear-gradient-5);}.cls-6{fill:url(#linear-gradient-6);}.cls-7{fill:url(#linear-gradient-7);}.cls-8{fill:url(#linear-gradient-8);}.cls-9{fill:url(#linear-gradient-9);}.cls-10{fill:url(#linear-gradient-10);}.cls-11{fill:url(#linear-gradient-11);}.cls-12{fill:url(#linear-gradient-12);}.cls-13{fill:url(#linear-gradient-13);}.cls-14{fill:#231f20;}</style><linearGradient id="linear-gradient" x1="90.572" y1="256" x2="390.571" y2="256" gradientUnits="userSpaceOnUse"><stop offset="0" stop-color="#f5faff"/><stop offset="1" stop-color="#b6d1f1"/></linearGradient><linearGradient id="linear-gradient-2" x1="231.8" y1="365.263" x2="231.8" y2="267.217" gradientUnits="userSpaceOnUse"><stop offset="0" stop-color="#d7e7f8" stop-opacity="0"/><stop offset="1"/></linearGradient><linearGradient id="linear-gradient-3" x1="340.068" y1="354.973" x2="270.157" y2="284.176" xlink:href="#linear-gradient-2"/><linearGradient id="linear-gradient-4" x1="-4773.058" y1="-373.525" x2="-4773.058" y2="-534.531" gradientTransform="matrix(0.499, -0.499, 0.552, 0.552, 2856.879, -1885.755)" xlink:href="#linear-gradient-2"/><linearGradient id="linear-gradient-5" x1="342.594" y1="293.274" x2="280.175" y2="202.41" xlink:href="#linear-gradient-2"/><linearGradient id="linear-gradient-6" x1="374.114" y1="192.406" x2="317.77" y2="150.341" xlink:href="#linear-gradient-2"/><linearGradient id="linear-gradient-7" x1="-4505.913" y1="-376.287" x2="-4505.913" y2="-509.539" gradientTransform="matrix(0.268, -0.268, 0.552, 0.552, 1751.953, -780.829)" xlink:href="#linear-gradient-2"/><linearGradient id="linear-gradient-8" x1="-4772.017" y1="-510.571" x2="-4772.017" y2="-654.742" gradientTransform="matrix(0.246, -0.246, 0.531, 0.531, 1640.576, -688.829)" xlink:href="#linear-gradient-2"/><linearGradient id="linear-gradient-9" x1="175.644" y1="388.24" x2="150.433" y2="359.682" xlink:href="#linear-gradient-2"/><linearGradient id="linear-gradient-10" x1="-4652.684" y1="-328.002" x2="-4652.684" y2="-434.163" gradientTransform="matrix(0.223, -0.223, 0.552, 0.552, 1481.828, -510.704)" xlink:href="#linear-gradient-2"/><linearGradient id="linear-gradient-11" x1="-4612.295" y1="-307.668" x2="-4612.295" y2="-404.118" gradientTransform="matrix(0.146, -0.146, 0.552, 0.552, 1131.23, -160.107)" xlink:href="#linear-gradient-2"/><linearGradient id="linear-gradient-12" x1="358.496" y1="373.055" x2="312.543" y2="329.38" xlink:href="#linear-gradient-2"/><linearGradient id="linear-gradient-13" x1="240.57" y1="406" x2="240.57" y2="368.61" gradientUnits="userSpaceOnUse"><stop offset="0" stop-color="#b6d1f1"/><stop offset="1" stop-color="#f5faff" stop-opacity="0"/></linearGradient></defs><g id="Layer_2" data-name="Layer 2"><rect class="cls-1" x="90.572" y="106" width="299.999" height="300" rx="15.678"/><polygon class="cls-2" points="300.31 374.02 268.33 406 233.29 406 163.29 336 206.79 331.07 212.79 286.5 300.31 374.02"/><path class="cls-3" d="M390.569,355.21v35.11a15.715,15.715,0,0,1-.47,3.84l-11.37,11.37a15.715,15.715,0,0,1-3.84.47H341.08l-71.13-71.13,44.68-5.78,2.15-17.45,3.31-26.91Z"/><polygon class="cls-4" points="345.049 287.45 271.343 361.157 162.986 252.8 226.554 242.661 236.693 179.093 345.049 287.45"/><polygon class="cls-5" points="390.569 279.99 390.569 318.47 372.199 336.84 365.169 343.88 357.089 351.95 257.14 252 323.57 247.71 328.16 217.59 390.569 279.99"/><polygon class="cls-6" points="390.569 187.21 390.569 232.43 341.52 183.37 350.09 146.73 390.569 187.21"/><polygon class="cls-7" points="384.856 231.857 345.16 271.554 255.482 181.875 324.091 171.091 384.856 231.857"/><polygon class="cls-8" points="247.321 226.107 211 262.429 132.536 183.964 135.215 151.714 168.857 147.643 247.321 226.107"/><polygon class="cls-9" points="215.71 406 171.68 406 131.201 365.52 169.29 359.57 215.71 406"/><polygon class="cls-10" points="304.803 352.804 271.857 385.75 226.554 340.446 233.357 281.357 304.803 352.804"/><polygon class="cls-11" points="319.16 356.446 297.518 378.089 246.429 327 254.25 291.536 319.16 356.446"/><path class="cls-12" d="M390.569,369.28v21.04A15.646,15.646,0,0,1,374.889,406H355L313.87,364.87,346.71,363l1.889-19.54,1.421-14.73,15.149,15.15Z"/><path class="cls-13" d="M390.569,368.61v21.71A15.68,15.68,0,0,1,374.889,406H106.251a15.68,15.68,0,0,1-15.68-15.68V368.61a15.68,15.68,0,0,0,15.68,15.68H374.889A15.68,15.68,0,0,0,390.569,368.61Z"/><path class="cls-14" d="M135.394,185.188a6,6,0,0,1-6-6V150.821a6,6,0,0,1,6-6h28.365a6,6,0,0,1,0,12H141.394v22.367A6,6,0,0,1,135.394,185.188Z"/><path class="cls-14" d="M163.759,367.179H135.394a6,6,0,0,1-6-6V332.812a6,6,0,0,1,12,0v22.367h22.365a6,6,0,1,1,0,12Z"/><path class="cls-14" d="M345.75,185.188a6,6,0,0,1-6-6V156.821H317.392a6,6,0,0,1,0-12H345.75a6,6,0,0,1,6,6v28.367A6,6,0,0,1,345.75,185.188Z"/><path class="cls-14" d="M345.75,367.179H317.392a6,6,0,1,1,0-12H339.75V332.812a6,6,0,1,1,12,0v28.367A6,6,0,0,1,345.75,367.179Z"/><path class="cls-14" d="M225.269,187.1V241.41H170.963V187.1h54.306m4.97-12H165.993a7.031,7.031,0,0,0-7.03,7.031V246.38a7.03,7.03,0,0,0,7.03,7.03h64.246a7.029,7.029,0,0,0,7.029-7.03V182.135a7.03,7.03,0,0,0-7.029-7.031Z"/><path class="cls-14" d="M203.6,208.772v10.97H192.63v-10.97H203.6m7.132-12H185.5a4.868,4.868,0,0,0-4.868,4.869v25.233a4.867,4.867,0,0,0,4.868,4.868h25.234a4.867,4.867,0,0,0,4.868-4.868V201.641a4.868,4.868,0,0,0-4.868-4.869Z"/><path class="cls-14" d="M201.642,294.217V324.9H170.963V294.217h30.679m4.655-12H166.308a7.345,7.345,0,0,0-7.345,7.345v39.989a7.346,7.346,0,0,0,7.345,7.345H206.3a7.345,7.345,0,0,0,7.344-7.345V289.562a7.344,7.344,0,0,0-7.344-7.345Z"/><rect class="cls-14" x="177.019" y="300.273" width="18.566" height="18.566" rx="3.366"/><path class="cls-14" d="M310.182,294.217V324.9H279.5V294.217h30.679m4.655-12H274.848a7.344,7.344,0,0,0-7.344,7.345v39.989a7.345,7.345,0,0,0,7.344,7.345h39.989a7.346,7.346,0,0,0,7.345-7.345V289.562a7.345,7.345,0,0,0-7.345-7.345Z"/><rect class="cls-14" x="287.004" y="301.718" width="15.677" height="15.677" rx="2.283" transform="translate(604.399 14.714) rotate(90)"/><path class="cls-14" d="M297.188,232.6H282.7a10.909,10.909,0,0,1-10.9-10.9V207.221a10.909,10.909,0,0,1,10.9-10.9h14.485a10.909,10.909,0,0,1,10.9,10.9v14.486A10.909,10.909,0,0,1,297.188,232.6Zm-13.382-12h12.279v-12.28H283.806Z"/><path class="cls-14" d="M223.179,272.248h-45.5a6,6,0,0,1,0-12h45.5a6,6,0,1,1,0,12Z"/><path class="cls-14" d="M251.286,272.248H243a6,6,0,0,1,0-12h8.286a6,6,0,0,1,0,12Z"/><path class="cls-14" d="M315.107,272.248H269.571a6,6,0,0,1,0-12h45.536a6,6,0,0,1,0,12Z"/><path class="cls-14" d="M322.181,253.533H259.245a6,6,0,0,1,0-12h56.936V218.7a6,6,0,0,1,12,0v28.838A6,6,0,0,1,322.181,253.533Z"/><path class="cls-14" d="M322.181,183.007H259.245a6,6,0,0,1,0-12h62.936a6,6,0,0,1,0,12Z"/><path class="cls-14" d="M258.32,234.134a6,6,0,0,1-6-6v-27.34a6,6,0,0,1,12,0v27.34A6,6,0,0,1,258.32,234.134Z"/><path class="cls-14" d="M228.787,340.662a6,6,0,0,1-6-6V284.519a6,6,0,0,1,12,0v50.143A6,6,0,0,1,228.787,340.662Z"/><path class="cls-14" d="M250.215,328.662a6,6,0,0,1-6-6V295.714a6,6,0,1,1,12,0v26.948A6,6,0,0,1,250.215,328.662Z"/><path class="cls-14" d="M322.181,208.956a6,6,0,0,1-6-6v-11.3a6,6,0,1,1,12,0v11.3A6,6,0,0,1,322.181,208.956Z"/></g></svg>