<svg xmlns="http://www.w3.org/2000/svg" xmlns:xlink="http://www.w3.org/1999/xlink" viewBox="0 0 512 512"><defs><style>.cls-1{fill:url(#linear-gradient);}.cls-2{fill:url(#linear-gradient-2);}.cls-3{fill:url(#linear-gradient-3);}.cls-13,.cls-14,.cls-4{opacity:0.5;}.cls-4{fill:url(#linear-gradient-4);}.cls-5{fill:url(#linear-gradient-5);}.cls-6{fill:url(#linear-gradient-6);}.cls-7{fill:url(#linear-gradient-7);}.cls-8{fill:url(#linear-gradient-8);}.cls-9{fill:url(#linear-gradient-9);}.cls-10{fill:url(#linear-gradient-10);}.cls-11{fill:url(#linear-gradient-11);}.cls-12{fill:url(#linear-gradient-12);}.cls-13{fill:url(#linear-gradient-13);}.cls-14{fill:url(#linear-gradient-14);}</style><linearGradient id="linear-gradient" x1="238.502" y1="233.88" x2="294.565" y2="311.958" gradientUnits="userSpaceOnUse"><stop offset="0" stop-color="#93c2ff"/><stop offset="1" stop-color="#6a8fff"/></linearGradient><linearGradient id="linear-gradient-2" x1="281.295" y1="255.591" x2="196.03" y2="255.228" gradientUnits="userSpaceOnUse"><stop offset="0" stop-color="#f5faff"/><stop offset="1" stop-color="#b6d1f1"/></linearGradient><linearGradient id="linear-gradient-3" x1="242.259" y1="362.282" x2="265.76" y2="362.282" xlink:href="#linear-gradient"/><linearGradient id="linear-gradient-4" x1="254.01" y1="348.048" x2="254.01" y2="324.552" gradientUnits="userSpaceOnUse"><stop offset="0" stop-opacity="0"/><stop offset="1"/></linearGradient><linearGradient id="linear-gradient-5" x1="254.01" y1="373.542" x2="254.01" y2="420.556" xlink:href="#linear-gradient"/><linearGradient id="linear-gradient-6" x1="106" y1="253.476" x2="406" y2="253.476" gradientUnits="userSpaceOnUse"><stop offset="0" stop-color="#efbd61"/><stop offset="1" stop-color="#f27a46"/></linearGradient><linearGradient id="linear-gradient-7" x1="140.726" y1="255.124" x2="371.274" y2="255.124" xlink:href="#linear-gradient-6"/><linearGradient id="linear-gradient-8" x1="254.01" y1="293.37" x2="254.01" y2="326.071" xlink:href="#linear-gradient-6"/><linearGradient id="linear-gradient-9" x1="189.625" y1="311.562" x2="318.394" y2="311.562" xlink:href="#linear-gradient"/><linearGradient id="linear-gradient-10" x1="226.802" y1="235.516" x2="243.22" y2="258.382" gradientTransform="translate(22.665 -22.456)" gradientUnits="userSpaceOnUse"><stop offset="0" stop-color="#19223d"/><stop offset="1" stop-color="#0a1030"/></linearGradient><linearGradient id="linear-gradient-11" x1="252.016" y1="235.516" x2="268.435" y2="258.382" gradientTransform="translate(-2.549 2.759)" xlink:href="#linear-gradient-10"/><linearGradient id="linear-gradient-12" x1="276.009" y1="235.516" x2="292.427" y2="258.382" gradientTransform="translate(-26.542 26.751)" xlink:href="#linear-gradient-10"/><linearGradient id="linear-gradient-13" x1="254.01" y1="306.504" x2="254.01" y2="368.966" xlink:href="#linear-gradient-4"/><linearGradient id="linear-gradient-14" x1="254.007" y1="384.843" x2="254.007" y2="419.194" xlink:href="#linear-gradient-4"/></defs><g id="Layer_2" data-name="Layer 2"><rect class="cls-1" x="208.427" y="182.981" width="91.162" height="144.987" rx="45.581"/><path class="cls-2" d="M254.008,320.367a38.022,38.022,0,0,1-37.98-37.98V228.561a37.98,37.98,0,0,1,75.959,0v53.826A38.022,38.022,0,0,1,254.008,320.367Z"/><rect class="cls-3" x="242.259" y="336.364" width="23.501" height="51.836"/><path class="cls-4" d="M265.757,336.366v14.213a68.958,68.958,0,0,1-23.5,0V336.366Z"/><path class="cls-5" d="M287.96,396.14h-67.9a6.229,6.229,0,0,1-5.266-9.557l.274-.433a20.511,20.511,0,0,1,17.339-9.554h43.217a20.51,20.51,0,0,1,17.717,10.176h0A6.229,6.229,0,0,1,287.96,396.14Z"/><path class="cls-6" d="M256,115.86c-82.71,0-150,67.289-150,150a150.182,150.182,0,0,0,64.763,123.371,10.451,10.451,0,1,0,11.9-17.182,129.1,129.1,0,1,1,146.669,0,10.451,10.451,0,1,0,11.9,17.183A150.183,150.183,0,0,0,406,265.86C406,183.149,338.711,115.86,256,115.86Z"/><path class="cls-7" d="M256,150.585a115.271,115.271,0,0,0-69.915,206.921,10.45,10.45,0,1,0,12.686-16.61,94.366,94.366,0,1,1,114.458.009,10.45,10.45,0,1,0,12.684,16.612A115.277,115.277,0,0,0,256,150.585Z"/><path class="cls-8" d="M299.589,282.39a45.58,45.58,0,0,1-91.159,0Z"/><path class="cls-9" d="M254,346.839a64.453,64.453,0,0,1-64.379-64.38,6.174,6.174,0,0,1,12.347,0,52.038,52.038,0,0,0,104.075,0,6.174,6.174,0,0,1,12.347,0A64.458,64.458,0,0,1,254,346.839Z"/><rect class="cls-10" x="249.975" y="196" width="8.065" height="46.768" rx="4.033" transform="translate(473.392 -34.623) rotate(90)"/><rect class="cls-11" x="249.975" y="221.215" width="8.065" height="46.768" rx="4.033" transform="translate(498.606 -9.409) rotate(90)"/><rect class="cls-12" x="249.975" y="245.207" width="8.065" height="46.768" rx="4.033" transform="translate(522.599 14.584) rotate(90)"/><path class="cls-13" d="M296.189,299.693a45.6,45.6,0,0,1-84.359,0,53.365,53.365,0,0,0,84.359,0Z"/><path class="cls-14" d="M294.194,389.894a6.23,6.23,0,0,1-6.233,6.242h-67.9a6.229,6.229,0,0,1-5.263-9.558l.133-.209h78.163c.086.133.171.266.248.4A6.159,6.159,0,0,1,294.194,389.894Z"/></g></svg>