<svg xmlns="http://www.w3.org/2000/svg" xmlns:xlink="http://www.w3.org/1999/xlink" viewBox="0 0 512 512"><defs><style>.cls-1{fill:url(#linear-gradient);}.cls-2{opacity:0.2;fill:url(#linear-gradient-2);}.cls-3{fill:url(#linear-gradient-3);}.cls-4{fill:url(#linear-gradient-4);}.cls-5{fill:url(#linear-gradient-5);}.cls-6{fill:url(#linear-gradient-6);}.cls-7{fill:url(#linear-gradient-7);}.cls-8{fill:url(#linear-gradient-8);}</style><linearGradient id="linear-gradient" x1="84.287" y1="139.386" x2="410.727" y2="361.083" gradientUnits="userSpaceOnUse"><stop offset="0" stop-color="#f5faff"/><stop offset="0.685" stop-color="#b6d1f1"/><stop offset="0.941" stop-color="#7badd6"/></linearGradient><linearGradient id="linear-gradient-2" x1="254.27" y1="254.11" x2="366.956" y2="366.797" gradientUnits="userSpaceOnUse"><stop offset="0"/><stop offset="1" stop-color="#f1f7fe" stop-opacity="0"/></linearGradient><linearGradient id="linear-gradient-3" x1="164.097" y1="256.003" x2="320" y2="256.003" gradientUnits="userSpaceOnUse"><stop offset="0" stop-color="#93c2ff"/><stop offset="1" stop-color="#6a8fff"/></linearGradient><linearGradient id="linear-gradient-4" x1="336.38" y1="139.335" x2="371.936" y2="174.892" gradientUnits="userSpaceOnUse"><stop offset="0" stop-color="#f5faff" stop-opacity="0"/><stop offset="0.547" stop-color="#b6d1f1" stop-opacity="0.2"/><stop offset="0.941" stop-color="#7badd6"/></linearGradient><linearGradient id="linear-gradient-5" x1="144.937" y1="341.988" x2="180.429" y2="377.264" xlink:href="#linear-gradient-4"/><linearGradient id="linear-gradient-6" x1="359.571" y1="223.166" x2="408.079" y2="271.673" xlink:href="#linear-gradient-4"/><linearGradient id="linear-gradient-7" x1="224.837" y1="361.214" x2="269.516" y2="405.893" xlink:href="#linear-gradient-4"/><linearGradient id="linear-gradient-8" x1="325.476" y1="325.475" x2="361.261" y2="361.26" xlink:href="#linear-gradient-4"/></defs><g id="Layer_2" data-name="Layer 2"><path class="cls-1" d="M396,231.043h-11.26a130.554,130.554,0,0,0-20.1-48.39l8-8a9.989,9.989,0,0,0,0-14.14l-21.15-21.15a9.989,9.989,0,0,0-14.14,0l-8,8a130.554,130.554,0,0,0-48.39-20.1V116a10,10,0,0,0-10-10h-29.91a10,10,0,0,0-10,10v11.26a130.6,130.6,0,0,0-48.4,20.1l-8-8a9.989,9.989,0,0,0-14.14,0l-21.15,21.15a10.007,10.007,0,0,0,0,14.14l8,8a130.37,130.37,0,0,0-20.09,48.39H116a10,10,0,0,0-10,10v29.91a10,10,0,0,0,10,10h11.27a130.417,130.417,0,0,0,20.09,48.4l-8,8a10.007,10.007,0,0,0,0,14.14l21.15,21.15a10.007,10.007,0,0,0,14.14,0l8-8a130.417,130.417,0,0,0,48.4,20.09V396a10,10,0,0,0,10,10h29.91a10,10,0,0,0,10-10v-11.27a130.37,130.37,0,0,0,48.39-20.09l8,8a10.007,10.007,0,0,0,14.14,0l21.15-21.15a9.989,9.989,0,0,0,0-14.14l-8-8a130.6,130.6,0,0,0,20.1-48.4H396a10,10,0,0,0,10-10v-29.91A10,10,0,0,0,396,231.043ZM256,312.9A56.9,56.9,0,1,1,312.9,256,56.971,56.971,0,0,1,256,312.9Z"/><path class="cls-2" d="M405.047,275.193a9.984,9.984,0,0,1-9.05,5.76h-11.26a130.6,130.6,0,0,1-20.1,48.4l8,8a9.989,9.989,0,0,1,0,14.14l-21.15,21.15a10.007,10.007,0,0,1-14.14,0l-8-8a130.37,130.37,0,0,1-48.39,20.09V396a10,10,0,0,1-5.54,8.95l-80.67-80.67,24.24-25.11a56.865,56.865,0,0,0,78.87-81.67l24.32-25.18Z"/><path class="cls-3" d="M256,164.1A91.9,91.9,0,1,0,347.9,256,92,92,0,0,0,256,164.1Zm0,148.8A56.9,56.9,0,1,1,312.9,256,56.971,56.971,0,0,1,256,312.9Z"/><path class="cls-4" d="M372.636,174.654l-8.009,8.009a132.523,132.523,0,0,0-35.28-35.3l8-8a10,10,0,0,1,14.142,0l21.148,21.148A10,10,0,0,1,372.636,174.654Z"/><path class="cls-5" d="M182.727,364.563l-8.079,8.079a10,10,0,0,1-14.142,0l-21.148-21.148a10,10,0,0,1,0-14.142l8.069-8.069A132.233,132.233,0,0,0,182.727,364.563Z"/><path class="cls-6" d="M406,241.043v29.91a10,10,0,0,1-10,10h-11.33a131.75,131.75,0,0,0,.03-49.91H396A10,10,0,0,1,406,241.043Z"/><path class="cls-7" d="M280.957,384.613V396a10,10,0,0,1-10,10h-29.91a10,10,0,0,1-10-10v-11.38a131.749,131.749,0,0,0,49.91-.01Z"/><path class="cls-8" d="M372.638,351.492l-21.147,21.147a10,10,0,0,1-14.145,0l-8.069-8.074a132.378,132.378,0,0,0,35.3-35.28l8.064,8.069A10,10,0,0,1,372.638,351.492Z"/></g></svg>