<svg xmlns="http://www.w3.org/2000/svg" xmlns:xlink="http://www.w3.org/1999/xlink" viewBox="0 0 512 512"><defs><style>.cls-1{fill:url(#linear-gradient);}.cls-10,.cls-11,.cls-14,.cls-2,.cls-3,.cls-4,.cls-9{opacity:0.5;}.cls-2{fill:url(#linear-gradient-2);}.cls-3{fill:url(#linear-gradient-3);}.cls-4{fill:url(#linear-gradient-4);}.cls-5{fill:url(#linear-gradient-5);}.cls-6{fill:url(#linear-gradient-6);}.cls-7{fill:url(#linear-gradient-7);}.cls-8{fill:url(#linear-gradient-8);}.cls-9{fill:url(#linear-gradient-9);}.cls-10{fill:url(#linear-gradient-10);}.cls-11{fill:url(#linear-gradient-11);}.cls-12{fill:url(#linear-gradient-12);}.cls-13{fill:url(#linear-gradient-13);}.cls-14{fill:url(#linear-gradient-14);}</style><linearGradient id="linear-gradient" x1="153.187" y1="200.774" x2="353.756" y2="401.343" gradientUnits="userSpaceOnUse"><stop offset="0" stop-color="#efbd61"/><stop offset="1" stop-color="#f27a46"/></linearGradient><linearGradient id="linear-gradient-2" x1="-3473.898" y1="1431.71" x2="-3473.898" y2="1204.129" gradientTransform="translate(1348.091 -614.804) scale(0.316 0.646)" gradientUnits="userSpaceOnUse"><stop offset="0" stop-opacity="0"/><stop offset="1"/></linearGradient><linearGradient id="linear-gradient-3" x1="-3348.8" y1="1493.938" x2="-3348.8" y2="1266.357" gradientTransform="matrix(0.224, -0.224, 0.457, 0.457, 381.418, -1124.229)" xlink:href="#linear-gradient-2"/><linearGradient id="linear-gradient-4" x1="-3598.986" y1="1297.116" x2="-3598.986" y2="1084.739" gradientTransform="translate(1331.478 -535.281) scale(0.316 0.652)" xlink:href="#linear-gradient-2"/><linearGradient id="linear-gradient-5" x1="149.725" y1="271.686" x2="186.687" y2="271.686" gradientUnits="userSpaceOnUse"><stop offset="0" stop-color="#f5faff"/><stop offset="1" stop-color="#b6d1f1"/></linearGradient><linearGradient id="linear-gradient-6" x1="205.618" y1="271.686" x2="242.58" y2="271.686" xlink:href="#linear-gradient-5"/><linearGradient id="linear-gradient-7" x1="261.511" y1="271.686" x2="298.473" y2="271.686" xlink:href="#linear-gradient-5"/><linearGradient id="linear-gradient-8" x1="180.346" y1="157.401" x2="180.346" y2="219.279" xlink:href="#linear-gradient"/><linearGradient id="linear-gradient-9" x1="224.097" y1="341.166" x2="224.097" y2="390.535" gradientTransform="matrix(1, 0, 0, 1, 0, 0)" xlink:href="#linear-gradient-2"/><linearGradient id="linear-gradient-10" x1="180.346" y1="173.503" x2="180.346" y2="214.884" gradientTransform="matrix(1, 0, 0, 1, 0, 0)" xlink:href="#linear-gradient-2"/><linearGradient id="linear-gradient-11" x1="324.646" y1="346.119" x2="244.117" y2="265.591" gradientTransform="matrix(1, 0, 0, 1, 0, 0)" xlink:href="#linear-gradient-2"/><linearGradient id="linear-gradient-12" x1="312.483" y1="288.866" x2="365.548" y2="341.932" gradientUnits="userSpaceOnUse"><stop offset="0" stop-color="#93c2ff"/><stop offset="1" stop-color="#6a8fff"/></linearGradient><linearGradient id="linear-gradient-13" x1="276.435" y1="359.025" x2="278.999" y2="361.59" xlink:href="#linear-gradient-12"/><linearGradient id="linear-gradient-14" x1="332.352" y1="286.1" x2="363.373" y2="397.789" gradientTransform="matrix(1, 0, 0, 1, 0, 0)" xlink:href="#linear-gradient-2"/></defs><g id="Layer_2" data-name="Layer 2"><rect class="cls-1" x="106.002" y="182.049" width="236.193" height="179.274" rx="12.231"/><rect class="cls-2" x="231.422" y="259.758" width="36.803" height="75.206" transform="translate(-137.095 263.747) rotate(-45)"/><polygon class="cls-3" points="337.938 303.52 319.795 337.424 266.616 284.245 292.639 258.222 337.938 303.52"/><rect class="cls-4" x="175.263" y="259.198" width="36.803" height="75.862" transform="translate(-153.379 223.969) rotate(-45)"/><circle class="cls-5" cx="168.206" cy="271.686" r="18.481"/><circle class="cls-6" cx="224.099" cy="271.686" r="18.481"/><circle class="cls-7" cx="279.992" cy="271.686" r="18.481"/><path class="cls-8" d="M216.2,150.676H144.5a15.773,15.773,0,0,0-14.572,9.736l-8.964,21.637H239.73l-8.964-21.637A15.77,15.77,0,0,0,216.2,150.676Z"/><path class="cls-9" d="M342.193,329.351v19.738a12.23,12.23,0,0,1-12.227,12.234H118.235A12.237,12.237,0,0,1,106,349.089V329.351a12.238,12.238,0,0,0,12.235,12.235H329.966A12.231,12.231,0,0,0,342.193,329.351Z"/><polygon class="cls-10" points="239.733 182.046 120.959 182.046 125.462 171.173 235.229 171.173 239.733 182.046"/><path class="cls-11" d="M342.193,303.071v46.018a12.231,12.231,0,0,1-12.227,12.235h-50.71l-.567-.567a2.583,2.583,0,0,0,2.551-1.771,87.1,87.1,0,0,1,60.953-55.915Z"/><path class="cls-12" d="M404.966,274.646l-44.331-33.969a2.639,2.639,0,0,0-4.243,2.095v6.771c-54.044,2.489-93.219,53.577-80.742,106.911l.529,2.265a2.639,2.639,0,0,0,5.062.264h0A87.16,87.16,0,0,1,356.392,300.7v10.013a2.638,2.638,0,0,0,4.243,2.094l44.331-33.968A2.637,2.637,0,0,0,404.966,274.646Z"/><path class="cls-13" d="M278.689,360.757a2.6,2.6,0,0,1-2.512-2.039l-.142-.622Z"/><path class="cls-14" d="M404.966,278.838,360.632,312.8a2.633,2.633,0,0,1-4.236-2.094V300.693a87.152,87.152,0,0,0-75.156,58.293,2.64,2.64,0,0,1-5.063-.268l-.527-2.267c-.481-2.063-.89-4.126-1.213-6.181a2.913,2.913,0,0,0,4.181-1.6A96.344,96.344,0,0,1,361.7,284.231V295.3a2.917,2.917,0,0,0,4.692,2.315l34.272-26.257,4.3,3.291A2.64,2.64,0,0,1,404.966,278.838Z"/></g></svg>