<svg xmlns="http://www.w3.org/2000/svg" xmlns:xlink="http://www.w3.org/1999/xlink" viewBox="0 0 512 512"><defs><style>.cls-1{fill:url(#linear-gradient);}.cls-2{fill:url(#linear-gradient-2);}.cls-3,.cls-4,.cls-5,.cls-6{opacity:0.5;}.cls-3{fill:url(#linear-gradient-3);}.cls-4{fill:url(#linear-gradient-4);}.cls-5{fill:url(#linear-gradient-5);}.cls-6{fill:url(#linear-gradient-6);}.cls-7{fill:url(#linear-gradient-7);}.cls-8{fill:url(#linear-gradient-8);}.cls-9{fill:url(#linear-gradient-9);}.cls-10{fill:url(#linear-gradient-10);}.cls-11{fill:url(#linear-gradient-11);}.cls-12{fill:url(#linear-gradient-12);}</style><linearGradient id="linear-gradient" x1="256" y1="208.576" x2="256" y2="480.622" gradientUnits="userSpaceOnUse"><stop offset="0" stop-color="#f5faff"/><stop offset="1" stop-color="#b6d1f1"/></linearGradient><linearGradient id="linear-gradient-2" x1="189.811" y1="190.723" x2="475.312" y2="483.979" xlink:href="#linear-gradient"/><linearGradient id="linear-gradient-3" x1="-189.801" y1="774.854" x2="-189.801" y2="599.228" gradientTransform="translate(350.539 -291.051) scale(0.512 0.748)" gradientUnits="userSpaceOnUse"><stop offset="0" stop-opacity="0"/><stop offset="1"/></linearGradient><linearGradient id="linear-gradient-4" x1="-80.838" y1="864.526" x2="-80.838" y2="630.604" gradientTransform="translate(373.656 -346.86) scale(0.512 0.748)" xlink:href="#linear-gradient-3"/><linearGradient id="linear-gradient-5" x1="258.351" y1="360.464" x2="170.98" y2="273.093" gradientTransform="matrix(1, 0, 0, 1, 0, 0)" xlink:href="#linear-gradient-3"/><linearGradient id="linear-gradient-6" x1="351.071" y1="374.259" x2="140.714" y2="163.902" gradientTransform="matrix(1, 0, 0, 1, 0, 0)" xlink:href="#linear-gradient-3"/><linearGradient id="linear-gradient-7" x1="256" y1="138.531" x2="256" y2="279.441" gradientUnits="userSpaceOnUse"><stop offset="0" stop-color="#93c2ff"/><stop offset="1" stop-color="#6a8fff"/></linearGradient><linearGradient id="linear-gradient-8" x1="256.003" y1="102.296" x2="256.003" y2="135.612" gradientUnits="userSpaceOnUse"><stop offset="0" stop-color="#6a8fff"/><stop offset="1" stop-color="#93c2ff"/></linearGradient><linearGradient id="linear-gradient-9" x1="200.753" y1="215.643" x2="233.364" y2="255.192" xlink:href="#linear-gradient-7"/><linearGradient id="linear-gradient-10" x1="279.973" y1="215.643" x2="312.584" y2="255.192" gradientUnits="userSpaceOnUse"><stop offset="0" stop-color="#efbd61"/><stop offset="1" stop-color="#f27a46"/></linearGradient><linearGradient id="linear-gradient-11" x1="200.753" y1="299.92" x2="233.364" y2="339.469" gradientUnits="userSpaceOnUse"><stop offset="0" stop-color="#c6e5a1"/><stop offset="0.048" stop-color="#c3e39d"/><stop offset="0.429" stop-color="#aed980"/><stop offset="0.76" stop-color="#a1d26e"/><stop offset="1" stop-color="#9cd068"/></linearGradient><linearGradient id="linear-gradient-12" x1="279.973" y1="299.92" x2="312.584" y2="339.469" xlink:href="#linear-gradient-7"/></defs><g id="Layer_2" data-name="Layer 2"><rect class="cls-1" x="119.977" y="172.047" width="272.046" height="233.953" rx="27.826"/><rect class="cls-2" x="119.977" y="141.733" width="272.046" height="233.953" rx="27.826"/><rect class="cls-3" x="218.99" y="221.349" width="68.673" height="100.294" transform="translate(-117.779 258.648) rotate(-45)"/><rect class="cls-4" x="297.916" y="221.349" width="68.673" height="100.294" transform="translate(-94.662 314.457) rotate(-45)"/><polygon class="cls-5" points="313.069 366.622 303.973 375.717 273.695 405.996 255.322 405.996 193.586 344.259 242.146 295.699 313.069 366.622"/><polygon class="cls-6" points="391.989 366.622 352.615 405.996 334.243 405.996 303.973 375.717 272.516 344.259 281.611 335.164 321.076 295.699 391.989 366.622"/><path class="cls-7" d="M314.657,171.062h0a11.8,11.8,0,0,1-11.8-11.8V131.588a1.99,1.99,0,0,0-1.991-1.991H211.133a1.991,1.991,0,0,0-1.992,1.991v27.675a11.8,11.8,0,0,1-11.8,11.8h0a11.8,11.8,0,0,1-11.8-11.8V117.8a11.8,11.8,0,0,1,11.8-11.8H314.657a11.8,11.8,0,0,1,11.8,11.8v41.465A11.8,11.8,0,0,1,314.657,171.062Z"/><path class="cls-8" d="M317.775,123.6v47.046a11.807,11.807,0,0,1-14.917-11.39V131.592a1.989,1.989,0,0,0-2-2h-89.73a2,2,0,0,0-2,2v27.667a11.8,11.8,0,0,1-14.908,11.39V123.6a9.238,9.238,0,0,1,9.24-9.241H308.526A9.245,9.245,0,0,1,317.775,123.6Z"/><rect class="cls-9" x="189.253" y="207.469" width="54.274" height="54.274" rx="8.965"/><rect class="cls-10" x="268.473" y="207.469" width="54.274" height="54.274" rx="8.965"/><rect class="cls-11" x="189.253" y="291.746" width="54.274" height="54.274" rx="8.965"/><rect class="cls-12" x="268.473" y="291.746" width="54.274" height="54.274" rx="8.965"/></g></svg>