<svg xmlns="http://www.w3.org/2000/svg" xmlns:xlink="http://www.w3.org/1999/xlink" viewBox="0 0 512 512"><defs><style>.cls-1{fill:url(#linear-gradient);}.cls-2{fill:url(#linear-gradient-2);}.cls-3{fill:url(#linear-gradient-3);}.cls-4{fill:url(#linear-gradient-4);}.cls-5{fill:url(#linear-gradient-5);}.cls-6{fill:url(#linear-gradient-6);}.cls-11,.cls-12,.cls-7{opacity:0.5;}.cls-7{fill:url(#linear-gradient-7);}.cls-8{fill:url(#linear-gradient-8);}.cls-9{fill:url(#linear-gradient-9);}.cls-10{fill:url(#linear-gradient-10);}.cls-11{fill:url(#linear-gradient-11);}.cls-12{fill:url(#linear-gradient-12);}.cls-13{fill:url(#linear-gradient-13);}.cls-14{fill:url(#linear-gradient-14);}.cls-15{fill:url(#linear-gradient-15);}</style><linearGradient id="linear-gradient" x1="372.261" y1="1.647" x2="460.533" y2="89.919" gradientTransform="translate(624.587 382.288) rotate(180)" gradientUnits="userSpaceOnUse"><stop offset="0" stop-color="#9cd068"/><stop offset="0.24" stop-color="#a1d26e"/><stop offset="0.571" stop-color="#aed980"/><stop offset="0.952" stop-color="#c3e39d"/><stop offset="1" stop-color="#c6e5a1"/></linearGradient><linearGradient id="linear-gradient-2" x1="440.088" y1="63.628" x2="480.406" y2="103.946" xlink:href="#linear-gradient"/><linearGradient id="linear-gradient-3" x1="259.674" y1="131.359" x2="347.946" y2="219.631" gradientTransform="matrix(1, 0, 0, 1, 0, 0)" xlink:href="#linear-gradient"/><linearGradient id="linear-gradient-4" x1="327.501" y1="193.341" x2="367.819" y2="233.658" gradientTransform="matrix(1, 0, 0, 1, 0, 0)" xlink:href="#linear-gradient"/><linearGradient id="linear-gradient-5" x1="157.49" y1="156.319" x2="540.22" y2="539.05" gradientUnits="userSpaceOnUse"><stop offset="0" stop-color="#f5faff"/><stop offset="1" stop-color="#b6d1f1"/></linearGradient><linearGradient id="linear-gradient-6" x1="364.117" y1="365.288" x2="227.314" y2="228.484" gradientTransform="translate(657.352 659.693) rotate(-180)" gradientUnits="userSpaceOnUse"><stop offset="0" stop-color="#93c2ff"/><stop offset="1" stop-color="#6a8fff"/></linearGradient><linearGradient id="linear-gradient-7" x1="380.112" y1="380.705" x2="296.776" y2="297.368" gradientUnits="userSpaceOnUse"><stop offset="0" stop-opacity="0"/><stop offset="1"/></linearGradient><linearGradient id="linear-gradient-8" x1="328.676" y1="369.7" x2="328.676" y2="264.489" xlink:href="#linear-gradient-5"/><linearGradient id="linear-gradient-9" x1="349.481" y1="317.352" x2="315.279" y2="283.15" xlink:href="#linear-gradient-5"/><linearGradient id="linear-gradient-10" x1="147.427" y1="182.153" x2="219.22" y2="182.153" gradientTransform="matrix(1, 0, 0, 1, 0, 0)" xlink:href="#linear-gradient-6"/><linearGradient id="linear-gradient-11" x1="193.072" y1="187.466" x2="149.631" y2="161.68" xlink:href="#linear-gradient-7"/><linearGradient id="linear-gradient-12" x1="221.337" y1="233.78" x2="124.852" y2="137.294" xlink:href="#linear-gradient-7"/><linearGradient id="linear-gradient-13" x1="183.326" y1="222.01" x2="183.326" y2="298.72" gradientUnits="userSpaceOnUse"><stop offset="0.3" stop-opacity="0"/><stop offset="0.874"/></linearGradient><linearGradient id="linear-gradient-14" x1="328.681" y1="369.706" x2="328.681" y2="446.416" xlink:href="#linear-gradient-13"/><linearGradient id="linear-gradient-15" x1="147.431" y1="219.873" x2="147.621" y2="219.873" gradientTransform="matrix(1, 0, 0, 1, 0, 0)" xlink:href="#linear-gradient-6"/></defs><g id="Layer_2" data-name="Layer 2"><path class="cls-1" d="M158.189,298.234h33.324v11.227a29.988,29.988,0,0,0,29.954,29.954h38.76v33.324h-38.76a63.349,63.349,0,0,1-63.278-63.278Z"/><path class="cls-2" d="M178.912,271.369l28.735,37.5a6.12,6.12,0,0,1-4.858,9.843H145.318a6.121,6.121,0,0,1-4.858-9.843l28.736-37.5A6.12,6.12,0,0,1,178.912,271.369Z"/><path class="cls-3" d="M353.811,213.766H320.487V202.539a29.988,29.988,0,0,0-29.954-29.954h-38.76V139.261h38.76a63.349,63.349,0,0,1,63.278,63.278Z"/><path class="cls-4" d="M333.088,240.631l-28.735-37.5a6.12,6.12,0,0,1,4.858-9.843h57.471a6.121,6.121,0,0,1,4.858,9.843l-28.736,37.5A6.12,6.12,0,0,1,333.088,240.631Z"/><rect class="cls-5" x="107.172" y="106.001" width="152.304" height="152.304" rx="17.992"/><rect class="cls-6" x="252.524" y="253.695" width="152.304" height="152.304" rx="17.992" transform="translate(657.352 659.693) rotate(180)"/><path class="cls-7" d="M404.829,330.582V388a17.63,17.63,0,0,1-.23,2.83l-14.95,14.95a17.463,17.463,0,0,1-2.81.219h-56.27L284.79,360.212,340.5,303.53l23.94-13.332Z"/><path class="cls-8" d="M308.883,372.838c-11.587,0-22.355-7.311-25.425-18.055-1.921-6.726.057-15.568,5.038-22.528,6.078-8.492,16.073-13.5,28.143-14.109a74.643,74.643,0,0,1,8.611.07l-.35-18.983a9.134,9.134,0,0,1,18.264-.336l.422,22.958A64.524,64.524,0,0,1,372.5,341.371a9.133,9.133,0,0,1-14.025,11.7,45.379,45.379,0,0,0-16.592-12.232,46.2,46.2,0,0,1-2.649,9.68c-4.855,11.4-14.115,19.524-24.771,21.743A27.324,27.324,0,0,1,308.883,372.838Zm11.366-36.515q-1.346,0-2.694.067c-6.293.316-10.95,2.339-13.841,6.013a11.382,11.382,0,0,0-2.669,7.453c.881,3.071,5.689,5.355,9.692,4.526,4.734-.986,9.213-5.208,11.688-11.017a31.953,31.953,0,0,0,1.664-6.906Q322.178,336.324,320.249,336.323Z"/><path class="cls-9" d="M306.869,313.617A9.135,9.135,0,0,1,303.74,295.9a148.609,148.609,0,0,1,54.346-9.009,9.133,9.133,0,0,1-.186,18.264c-.066,0-.13,0-.195,0A131.077,131.077,0,0,0,310,313.062,9.124,9.124,0,0,1,306.869,313.617Z"/><path class="cls-10" d="M174.849,144.368H191.8l27.421,75.571H203.405l-4.535-12.523H167.778l-4.534,12.523H147.427Zm-1.619,48.149h20.188L183.27,164.826Z"/><polygon class="cls-11" points="193.421 192.514 173.231 192.514 183.271 164.824 193.421 192.514"/><path class="cls-12" d="M259.48,212.043v28.27a17.993,17.993,0,0,1-18,17.99h-55.5l-38.36-38.36h15.62l4.54-12.53h31.09l4.53,12.53H219.22L191.8,144.364Z"/><path class="cls-13" d="M259.48,227.673v12.64a17.993,17.993,0,0,1-18,17.99H125.161a17.991,17.991,0,0,1-17.99-17.99v-12.64a18,18,0,0,0,17.99,17.99H241.48A18,18,0,0,0,259.48,227.673Z"/><path class="cls-14" d="M404.835,375.369v12.64a17.993,17.993,0,0,1-18,17.99H270.517a17.991,17.991,0,0,1-17.99-17.99v-12.64a18,18,0,0,0,17.99,17.99H386.835A18,18,0,0,0,404.835,375.369Z"/><path class="cls-15" d="M147.481,219.8l-.05.14h.19Z"/></g></svg>