<svg xmlns="http://www.w3.org/2000/svg" xmlns:xlink="http://www.w3.org/1999/xlink" viewBox="0 0 512 512"><defs><style>.cls-1{fill:url(#linear-gradient);}.cls-14,.cls-2,.cls-3,.cls-7,.cls-9{opacity:0.5;}.cls-2{fill:url(#linear-gradient-2);}.cls-3{fill:url(#linear-gradient-3);}.cls-4{fill:url(#linear-gradient-4);}.cls-5{fill:url(#linear-gradient-5);}.cls-6{fill:url(#linear-gradient-6);}.cls-7{fill:url(#linear-gradient-7);}.cls-8{fill:#fff;}.cls-9{fill:url(#linear-gradient-8);}.cls-10{fill:url(#linear-gradient-9);}.cls-11{fill:url(#linear-gradient-10);}.cls-12{fill:url(#linear-gradient-11);}.cls-13{fill:url(#linear-gradient-12);}.cls-14{fill:url(#linear-gradient-13);}</style><linearGradient id="linear-gradient" x1="106" y1="256" x2="405.996" y2="256" gradientUnits="userSpaceOnUse"><stop offset="0" stop-color="#93c2ff"/><stop offset="1" stop-color="#6a8fff"/></linearGradient><linearGradient id="linear-gradient-2" x1="-4715.319" y1="1920.052" x2="-4715.319" y2="1650.303" gradientTransform="matrix(0.695, 0, 0, 1.623, 3552.348, -2799.517)" gradientUnits="userSpaceOnUse"><stop offset="0" stop-opacity="0"/><stop offset="1"/></linearGradient><linearGradient id="linear-gradient-3" x1="316.591" y1="344.877" x2="76.078" y2="69.278" gradientTransform="matrix(1, 0, 0, 1, 0, 0)" xlink:href="#linear-gradient-2"/><linearGradient id="linear-gradient-4" x1="168.177" y1="253.196" x2="371.06" y2="253.196" gradientTransform="translate(117.85 -86.043) rotate(22.9)" gradientUnits="userSpaceOnUse"><stop offset="0" stop-color="#f5faff"/><stop offset="1" stop-color="#b6d1f1"/></linearGradient><linearGradient id="linear-gradient-5" x1="168.177" y1="268.855" x2="275.279" y2="268.855" gradientTransform="translate(122.094 -65.09) rotate(22.9)" gradientUnits="userSpaceOnUse"><stop offset="0" stop-color="#c63454"/><stop offset="0.399" stop-color="#d95270"/><stop offset="0.755" stop-color="#e66582"/><stop offset="1" stop-color="#ea6c88"/></linearGradient><linearGradient id="linear-gradient-6" x1="136.555" y1="314.62" x2="240.068" y2="314.62" gradientTransform="matrix(1, 0, 0, 1, 0, 0)" xlink:href="#linear-gradient-5"/><linearGradient id="linear-gradient-7" x1="222.362" y1="241.117" x2="362.417" y2="381.172" gradientUnits="userSpaceOnUse"><stop offset="0.127" stop-opacity="0"/><stop offset="1"/></linearGradient><linearGradient id="linear-gradient-8" x1="256.002" y1="383.537" x2="256.002" y2="440.833" gradientTransform="matrix(1, 0, 0, 1, 0, 0)" xlink:href="#linear-gradient-2"/><linearGradient id="linear-gradient-9" x1="270.305" y1="353.984" x2="270.305" y2="153.16" gradientTransform="translate(-85.955 141.776) rotate(-25.357)" xlink:href="#linear-gradient-4"/><linearGradient id="linear-gradient-10" x1="169.894" y1="238.874" x2="277.06" y2="238.874" gradientTransform="translate(-80.768 118.717) rotate(-25.357)" xlink:href="#linear-gradient-5"/><linearGradient id="linear-gradient-11" x1="140.297" y1="191.718" x2="243.808" y2="191.718" gradientTransform="matrix(1, 0, 0, 1, 0, 0)" xlink:href="#linear-gradient-5"/><linearGradient id="linear-gradient-12" x1="230.498" y1="250.954" x2="261.484" y2="250.954" gradientUnits="userSpaceOnUse"><stop offset="0" stop-color="#1d2844"/><stop offset="1" stop-color="#0a1030"/></linearGradient><linearGradient id="linear-gradient-13" x1="256.305" y1="239.16" x2="218.919" y2="306.106" gradientTransform="matrix(1, 0, 0, 1, 0, 0)" xlink:href="#linear-gradient-2"/></defs><g id="Layer_2" data-name="Layer 2"><rect class="cls-1" x="106" y="106" width="299.996" height="300" rx="20.377"/><rect class="cls-2" x="224.712" y="155.47" width="102.732" height="239.935" transform="translate(-113.902 275.893) rotate(-45)"/><polygon class="cls-3" points="406 252.997 406 354.907 354.911 405.997 207.673 405.997 150.054 348.377 223.563 267.147 358.501 205.497 406 252.997"/><path class="cls-4" d="M168.893,225.314H339.619a34.145,34.145,0,0,1,34.145,34.145v0a11.032,11.032,0,0,1-11.032,11.032H168.893a0,0,0,0,1,0,0V225.314a0,0,0,0,1,0,0Z" transform="translate(-75.081 125.12) rotate(-22.9)"/><rect class="cls-5" x="173.137" y="246.266" width="97.182" height="45.177" transform="translate(-87.143 107.47) rotate(-22.9)"/><circle class="cls-6" cx="188.312" cy="314.62" r="51.743"/><path class="cls-7" d="M364.32,233.147l-131.3,55.46a50.591,50.591,0,0,1,2.949,5.88,51.732,51.732,0,0,1-62.979,69.55,56.013,56.013,0,0,0,50.41-77.78,54.874,54.874,0,0,0-3.19-6.37L362.3,219.867a11.932,11.932,0,0,0,5.829-5.27,33.278,33.278,0,0,1,2.06,4.09A11.04,11.04,0,0,1,364.32,233.147Z"/><path class="cls-8" d="M197.058,335.324a22.474,22.474,0,1,1,11.956-29.449A22.5,22.5,0,0,1,197.058,335.324Z"/><path class="cls-9" d="M405.99,386.147A20.369,20.369,0,0,1,385.62,406H126.374a20.361,20.361,0,0,1-20.36-19.85Z"/><path class="cls-10" d="M169.7,239.344H363.538a11.032,11.032,0,0,1,11.032,11.032v0a34.145,34.145,0,0,1-34.145,34.145H169.7a0,0,0,0,1,0,0V239.344a0,0,0,0,1,0,0Z" transform="translate(138.39 -91.307) rotate(25.357)"/><rect class="cls-11" x="174.886" y="216.285" width="97.182" height="45.177" transform="translate(123.828 -72.691) rotate(25.357)"/><circle class="cls-12" cx="192.052" cy="191.718" r="51.743"/><path class="cls-8" d="M201.678,171.408a22.475,22.475,0,1,0,10.683,29.935A22.5,22.5,0,0,0,201.678,171.408Z"/><path class="cls-13" d="M252.627,236.953a15.494,15.494,0,1,0,7.365,20.637A15.512,15.512,0,0,0,252.627,236.953Z"/><path class="cls-14" d="M370.72,290.637a11.045,11.045,0,0,1-1.07,4.72,34.144,34.144,0,0,1-45.479,16.23l-154.278-73.11a51.776,51.776,0,0,1-29.409-51.24,51.689,51.689,0,0,0,29.409,42.45l154.278,73.12a34.148,34.148,0,0,0,45.479-16.24l.151-.33A11.067,11.067,0,0,1,370.72,290.637Z"/></g></svg>