<svg xmlns="http://www.w3.org/2000/svg" xmlns:xlink="http://www.w3.org/1999/xlink" viewBox="0 0 512 512"><defs><style>.cls-1{fill:url(#linear-gradient);}.cls-2{fill:url(#linear-gradient-2);}.cls-3{fill:url(#linear-gradient-3);}.cls-4{fill:url(#linear-gradient-4);}.cls-5,.cls-8{opacity:0.2;}.cls-5{fill:url(#linear-gradient-5);}.cls-6{opacity:0.5;fill:url(#linear-gradient-6);}.cls-7{fill:url(#linear-gradient-7);}.cls-8{fill:url(#linear-gradient-8);}</style><linearGradient id="linear-gradient" x1="456.935" y1="256" x2="286.972" y2="256" gradientUnits="userSpaceOnUse"><stop offset="0" stop-color="#93c2ff"/><stop offset="1" stop-color="#6a8fff"/></linearGradient><linearGradient id="linear-gradient-2" x1="65.092" y1="256" x2="325.024" y2="256" gradientUnits="userSpaceOnUse"><stop offset="0" stop-color="#383a44"/><stop offset="1" stop-color="#19223d"/></linearGradient><linearGradient id="linear-gradient-3" x1="108.854" y1="194.528" x2="373.932" y2="350.985" xlink:href="#linear-gradient"/><linearGradient id="linear-gradient-4" x1="198.156" y1="150.714" x2="-63.692" y2="150.714" gradientTransform="matrix(0.348, 0, 0, -1, 115.845, 345.107)" gradientUnits="userSpaceOnUse"><stop offset="0" stop-color="#fff"/><stop offset="1" stop-color="#7474ff"/></linearGradient><linearGradient id="linear-gradient-5" x1="213.005" y1="360.315" x2="213.005" y2="318.435" gradientUnits="userSpaceOnUse"><stop offset="0"/><stop offset="1" stop-color="#eaf3fd" stop-opacity="0"/></linearGradient><linearGradient id="linear-gradient-6" x1="-301.558" y1="-192.294" x2="-301.558" y2="-291.072" gradientTransform="translate(271.116 446.107) scale(0.399 0.636)" gradientUnits="userSpaceOnUse"><stop offset="0" stop-color="#7ea8ff"/><stop offset="1"/></linearGradient><linearGradient id="linear-gradient-7" x1="138.214" y1="314.741" x2="138.214" y2="294.698" gradientUnits="userSpaceOnUse"><stop offset="0" stop-color="#c63454"/><stop offset="0.399" stop-color="#d95270"/><stop offset="0.755" stop-color="#e66582"/><stop offset="1" stop-color="#ea6c88"/></linearGradient><linearGradient id="linear-gradient-8" x1="351.036" y1="333.796" x2="365.804" y2="288.827" xlink:href="#linear-gradient-5"/></defs><g id="Layer_2" data-name="Layer 2"><path class="cls-1" d="M379.918,329.737l-59.911-29.274V211.537l59.911-29.274A18.124,18.124,0,0,1,406,198.547V313.453A18.124,18.124,0,0,1,379.918,329.737Z"/><rect class="cls-2" x="157.286" y="190.464" width="180.721" height="131.071" rx="17.678"/><rect class="cls-3" x="106" y="169.518" width="214.007" height="172.964" rx="22.098"/><rect class="cls-4" x="148.429" y="158.589" width="17.107" height="71.608" rx="8.553" transform="translate(351.375 37.411) rotate(90)"/><path class="cls-5" d="M320.01,303.993v16.39a22.1,22.1,0,0,1-22.1,22.1H128.1a22.094,22.094,0,0,1-22.1-22.1v-16.39a22.1,22.1,0,0,0,22.1,22.1H297.91A22.107,22.107,0,0,0,320.01,303.993Z"/><rect class="cls-6" x="138.886" y="298.539" width="24.092" height="38.428" transform="translate(-180.478 199.792) rotate(-45)"/><circle class="cls-7" cx="138.214" cy="304.929" r="12.214"/><path class="cls-8" d="M406,291.273v22.18a18.119,18.119,0,0,1-26.08,16.28l-59.91-29.27v-22.18l59.91,29.28A18.128,18.128,0,0,0,406,291.273Z"/></g></svg>