<svg xmlns="http://www.w3.org/2000/svg" xmlns:xlink="http://www.w3.org/1999/xlink" viewBox="0 0 512 512"><defs><style>.cls-1{fill:url(#linear-gradient);}.cls-2,.cls-3,.cls-6{opacity:0.5;}.cls-2{fill:url(#linear-gradient-2);}.cls-3{fill:url(#linear-gradient-3);}.cls-4{fill:url(#linear-gradient-4);}.cls-5{fill:url(#linear-gradient-5);}.cls-6{fill:url(#linear-gradient-6);}.cls-7{fill:url(#linear-gradient-7);}.cls-8{fill:url(#linear-gradient-8);}.cls-9{fill:url(#linear-gradient-9);}.cls-10{fill:url(#linear-gradient-10);}.cls-11{fill:url(#linear-gradient-11);}</style><linearGradient id="linear-gradient" x1="106.001" y1="296.223" x2="405.999" y2="296.223" gradientUnits="userSpaceOnUse"><stop offset="0" stop-color="#93c2ff"/><stop offset="1" stop-color="#6a8fff"/></linearGradient><linearGradient id="linear-gradient-2" x1="255.997" y1="425.205" x2="255.997" y2="385.531" gradientUnits="userSpaceOnUse"><stop offset="0"/><stop offset="1" stop-opacity="0"/></linearGradient><linearGradient id="linear-gradient-3" x1="315.038" y1="367.141" x2="254.071" y2="226.179" gradientUnits="userSpaceOnUse"><stop offset="0" stop-opacity="0"/><stop offset="1"/></linearGradient><linearGradient id="linear-gradient-4" x1="106.001" y1="161.224" x2="405.999" y2="161.224" gradientUnits="userSpaceOnUse"><stop offset="0" stop-color="#0a1030"/><stop offset="1" stop-color="#19223d"/></linearGradient><linearGradient id="linear-gradient-5" x1="217.453" y1="294.689" x2="315.929" y2="294.689" gradientUnits="userSpaceOnUse"><stop offset="0" stop-color="#f5faff"/><stop offset="1" stop-color="#b6d1f1"/></linearGradient><linearGradient id="linear-gradient-6" x1="326.976" y1="394.149" x2="266.366" y2="317.277" gradientUnits="userSpaceOnUse"><stop offset="0.614"/><stop offset="1" stop-opacity="0"/></linearGradient><linearGradient id="linear-gradient-7" x1="138.358" y1="142.902" x2="138.358" y2="179.545" xlink:href="#linear-gradient-5"/><linearGradient id="linear-gradient-8" x1="197.179" y1="142.902" x2="197.179" y2="179.545" xlink:href="#linear-gradient-5"/><linearGradient id="linear-gradient-9" x1="256" y1="142.902" x2="256" y2="179.545" xlink:href="#linear-gradient-5"/><linearGradient id="linear-gradient-10" x1="314.821" y1="142.902" x2="314.821" y2="179.545" xlink:href="#linear-gradient-5"/><linearGradient id="linear-gradient-11" x1="373.642" y1="142.902" x2="373.642" y2="179.545" xlink:href="#linear-gradient-5"/></defs><g id="Layer_2" data-name="Layer 2"><path class="cls-1" d="M106,186.445H406a0,0,0,0,1,0,0V383.7A22.3,22.3,0,0,1,383.7,406H128.3A22.3,22.3,0,0,1,106,383.7V186.445A0,0,0,0,1,106,186.445Z"/><path class="cls-2" d="M406,365.986v17.72A22.291,22.291,0,0,1,383.706,406H128.3a22.3,22.3,0,0,1-22.3-22.29v-17.72a22.3,22.3,0,0,0,22.3,22.3H383.706A22.293,22.293,0,0,0,406,365.986Z"/><polygon class="cls-3" points="404.026 377.026 375.056 405.996 275.817 405.996 225.267 355.446 315.747 288.746 404.026 377.026"/><path class="cls-4" d="M123.991,121H388.009A17.99,17.99,0,0,1,406,138.99v62.457a0,0,0,0,1,0,0H106a0,0,0,0,1,0,0V138.99A17.99,17.99,0,0,1,123.991,121Z"/><path class="cls-5" d="M217.453,342.123V247.254a14.812,14.812,0,0,1,23.04-12.317l68.851,45.989a14.813,14.813,0,0,1,.347,24.4L240.84,354.2A14.812,14.812,0,0,1,217.453,342.123Z"/><path class="cls-6" d="M309.687,305.326l-68.85,48.88a14.825,14.825,0,0,1-22.8-7.9,14.675,14.675,0,0,0,15.73-.89l68.85-48.88a14.777,14.777,0,0,0,5.62-16.35l1.11.74A14.813,14.813,0,0,1,309.687,305.326Z"/><rect class="cls-7" x="120.037" y="142.902" width="36.643" height="36.643" rx="4.339"/><rect class="cls-8" x="178.858" y="142.902" width="36.643" height="36.643" rx="4.339"/><rect class="cls-9" x="237.679" y="142.902" width="36.643" height="36.643" rx="4.339"/><rect class="cls-10" x="296.5" y="142.902" width="36.643" height="36.643" rx="4.339"/><rect class="cls-11" x="355.32" y="142.902" width="36.643" height="36.643" rx="4.339"/></g></svg>