<svg xmlns="http://www.w3.org/2000/svg" xmlns:xlink="http://www.w3.org/1999/xlink" viewBox="0 0 512 512"><defs><style>.cls-1{fill:url(#linear-gradient);}.cls-2{fill:url(#linear-gradient-2);}.cls-3{fill:url(#linear-gradient-3);}.cls-4{fill:url(#linear-gradient-4);}.cls-5{fill:url(#linear-gradient-5);}.cls-6{fill:url(#linear-gradient-6);}</style><linearGradient id="linear-gradient" x1="106.003" y1="255.999" x2="176.602" y2="255.999" gradientUnits="userSpaceOnUse"><stop offset="0" stop-color="#93c2ff"/><stop offset="1" stop-color="#6a8fff"/></linearGradient><linearGradient id="linear-gradient-2" x1="176.602" y1="255.999" x2="281.31" y2="255.999" xlink:href="#linear-gradient"/><linearGradient id="linear-gradient-3" x1="323.965" y1="301.818" x2="323.965" y2="207.018" gradientUnits="userSpaceOnUse"><stop offset="0" stop-color="#efbd61"/><stop offset="1" stop-color="#f27a46"/></linearGradient><linearGradient id="linear-gradient-4" x1="358.861" y1="363.564" x2="358.861" y2="145.272" xlink:href="#linear-gradient-3"/><linearGradient id="linear-gradient-5" x1="228.695" y1="336.072" x2="180.792" y2="434.034" gradientUnits="userSpaceOnUse"><stop offset="0" stop-opacity="0"/><stop offset="1"/></linearGradient><linearGradient id="linear-gradient-6" x1="141.302" y1="312.091" x2="141.302" y2="385.676" xlink:href="#linear-gradient-5"/></defs><g id="Layer_2" data-name="Layer 2"><path class="cls-1" d="M127.356,183.814H176.6a0,0,0,0,1,0,0V328.184a0,0,0,0,1,0,0H127.356A21.354,21.354,0,0,1,106,306.831V205.167A21.354,21.354,0,0,1,127.356,183.814Z"/><path class="cls-2" d="M176.6,328.184l71.89,45.749a21.354,21.354,0,0,0,32.818-18.015V156.08a21.354,21.354,0,0,0-32.818-18.015L176.6,183.814Z"/><path class="cls-3" d="M311.279,301.818a12.639,12.639,0,0,1-3.835-24.68,23.861,23.861,0,0,0,0-45.441,12.636,12.636,0,1,1,7.676-24.079,49.134,49.134,0,0,1,0,93.6A12.622,12.622,0,0,1,311.279,301.818Z"/><path class="cls-4" d="M324.362,363.564a12.639,12.639,0,0,1-4.081-24.6,89.352,89.352,0,0,0,0-169.095,12.637,12.637,0,1,1,8.165-23.918,114.625,114.625,0,0,1,0,216.931A12.638,12.638,0,0,1,324.362,363.564Z"/><path class="cls-5" d="M281.309,337.863v18.056a21.355,21.355,0,0,1-32.817,18.018l-71.887-45.753V310.128l71.887,45.753A21.356,21.356,0,0,0,281.309,337.863Z"/><path class="cls-6" d="M176.605,310.128v18.056H127.36A21.356,21.356,0,0,1,106,306.833V288.777a21.356,21.356,0,0,0,21.36,21.351Z"/></g></svg>