<svg xmlns="http://www.w3.org/2000/svg" xmlns:xlink="http://www.w3.org/1999/xlink" viewBox="0 0 512 512"><defs><style>.cls-1{fill:url(#linear-gradient);}.cls-2,.cls-4,.cls-6,.cls-9{opacity:0.5;}.cls-2{fill:url(#linear-gradient-2);}.cls-3{fill:url(#linear-gradient-3);}.cls-4{fill:url(#linear-gradient-4);}.cls-5{fill:url(#linear-gradient-5);}.cls-7{fill:url(#linear-gradient-6);}.cls-8{fill:url(#linear-gradient-7);}.cls-9{fill:url(#linear-gradient-8);}.cls-10{fill:url(#linear-gradient-9);}</style><linearGradient id="linear-gradient" x1="117.455" y1="256" x2="367.955" y2="256" gradientUnits="userSpaceOnUse"><stop offset="0" stop-color="#efbd61"/><stop offset="1" stop-color="#f27a46"/></linearGradient><linearGradient id="linear-gradient-2" x1="349.307" y1="333.187" x2="242.463" y2="210.894" gradientUnits="userSpaceOnUse"><stop offset="0" stop-opacity="0"/><stop offset="1"/></linearGradient><linearGradient id="linear-gradient-3" x1="228.455" x2="394.545" xlink:href="#linear-gradient"/><linearGradient id="linear-gradient-4" x1="309.337" y1="287.333" x2="224.736" y2="202.732" xlink:href="#linear-gradient-2"/><linearGradient id="linear-gradient-5" x1="252.314" y1="256" x2="303.912" y2="256" gradientUnits="userSpaceOnUse"><stop offset="0" stop-color="#f5faff"/><stop offset="1" stop-color="#b6d1f1"/></linearGradient><linearGradient id="linear-gradient-6" x1="311.499" y1="288.304" x2="311.499" y2="350.9" xlink:href="#linear-gradient-2"/><linearGradient id="linear-gradient-7" x1="242.705" y1="375.989" x2="242.705" y2="495.194" xlink:href="#linear-gradient-2"/><linearGradient id="linear-gradient-8" x1="273.973" y1="161.426" x2="38.351" y2="-74.196" xlink:href="#linear-gradient-2"/><linearGradient id="linear-gradient-9" x1="136.145" y1="129.809" x2="349.266" y2="129.809" xlink:href="#linear-gradient-5"/></defs><g id="Layer_2" data-name="Layer 2"><rect class="cls-1" x="117.455" y="106" width="250.5" height="300" rx="32.826"/><path class="cls-2" d="M367.959,256.956V373.178a32.842,32.842,0,0,1-27.793,32.437L238.594,304.043l88.226-88.226Z"/><rect class="cls-3" x="228.455" y="206.5" width="166.089" height="99" rx="19.866"/><polygon class="cls-4" points="363.673 305.503 291.343 305.503 261.934 276.095 298.094 239.923 363.673 305.503"/><circle class="cls-5" cx="278.113" cy="256" r="25.799"/><g class="cls-6"><path class="cls-7" d="M394.542,271.1v14.53A19.865,19.865,0,0,1,374.674,305.5H248.325a19.866,19.866,0,0,1-19.869-19.869V271.1a19.863,19.863,0,0,0,19.869,19.857H374.674A19.863,19.863,0,0,0,394.542,271.1Z"/></g><path class="cls-8" d="M367.947,373.681A32.815,32.815,0,0,1,335.127,406H150.284a32.814,32.814,0,0,1-32.82-32.317Z"/><path class="cls-9" d="M367.959,146.658V269.38l-94.618.168L137.919,134.126l94.8-14.279H339.3a9.821,9.821,0,0,1,2.059.215l7.684,7.685Z"/><rect class="cls-10" x="136.145" y="119.85" width="213.121" height="19.917" rx="9.958"/></g></svg>