<svg xmlns="http://www.w3.org/2000/svg" xmlns:xlink="http://www.w3.org/1999/xlink" viewBox="0 0 512 512"><defs><style>.cls-1{fill:url(#radial-gradient);}.cls-2{fill:url(#linear-gradient);}.cls-3{fill:url(#linear-gradient-2);}.cls-4{fill:url(#linear-gradient-3);}.cls-5{fill:url(#linear-gradient-4);}.cls-6{fill:url(#linear-gradient-5);}.cls-7{fill:url(#linear-gradient-6);}.cls-8{fill:url(#linear-gradient-7);}.cls-9{fill:url(#linear-gradient-8);}.cls-10{fill:url(#linear-gradient-9);}.cls-11{fill:#f5faff;}.cls-12{fill:url(#linear-gradient-10);}.cls-13{fill:url(#linear-gradient-11);}.cls-14{fill:url(#linear-gradient-12);}.cls-15{fill:url(#linear-gradient-13);}.cls-16{fill:url(#linear-gradient-14);}</style><radialGradient id="radial-gradient" cx="280" cy="190.722" r="120.856" gradientUnits="userSpaceOnUse"><stop offset="0" stop-color="#efdb61"/><stop offset="0.205" stop-color="#efbd61"/><stop offset="0.231" stop-color="#efb95f"/><stop offset="0.419" stop-color="#f09d54"/><stop offset="0.61" stop-color="#f18a4c"/><stop offset="0.803" stop-color="#f27e48"/><stop offset="1" stop-color="#f27a46"/></radialGradient><linearGradient id="linear-gradient" x1="310.02" y1="183.19" x2="299.383" y2="257.255" gradientUnits="userSpaceOnUse"><stop offset="0.24" stop-color="#efbd61" stop-opacity="0"/><stop offset="0.32" stop-color="#f0af5c" stop-opacity="0.202"/><stop offset="0.414" stop-color="#f0a156" stop-opacity="0.412"/><stop offset="0.511" stop-color="#f19551" stop-opacity="0.592"/><stop offset="0.607" stop-color="#f18b4d" stop-opacity="0.739"/><stop offset="0.704" stop-color="#f2844a" stop-opacity="0.854"/><stop offset="0.801" stop-color="#f27e48" stop-opacity="0.935"/><stop offset="0.9" stop-color="#f27b46" stop-opacity="0.984"/><stop offset="1" stop-color="#f27a46"/></linearGradient><linearGradient id="linear-gradient-2" x1="300.274" y1="295.74" x2="322.107" y2="303.81" gradientUnits="userSpaceOnUse"><stop offset="0" stop-color="#efbd61"/><stop offset="1" stop-color="#f27a46"/></linearGradient><linearGradient id="linear-gradient-3" x1="305.792" y1="127.488" x2="324.533" y2="146.229" xlink:href="#linear-gradient-2"/><linearGradient id="linear-gradient-4" x1="215.579" y1="205.512" x2="231.339" y2="227.673" xlink:href="#linear-gradient-2"/><linearGradient id="linear-gradient-5" x1="389.85" y1="209.337" x2="399.405" y2="237.881" gradientUnits="userSpaceOnUse"><stop offset="0" stop-color="#efbd61"/><stop offset="0.747" stop-color="#f27a46"/></linearGradient><linearGradient id="linear-gradient-6" x1="243.905" y1="148.157" x2="255.914" y2="178.461" xlink:href="#linear-gradient-2"/><linearGradient id="linear-gradient-7" x1="354.825" y1="268.844" x2="386.684" y2="280.07" xlink:href="#linear-gradient-2"/><linearGradient id="linear-gradient-8" x1="363.564" y1="147.67" x2="376.82" y2="173.708" xlink:href="#linear-gradient-2"/><linearGradient id="linear-gradient-9" x1="233.279" y1="271.355" x2="273.463" y2="276.11" xlink:href="#linear-gradient-2"/><linearGradient id="linear-gradient-10" x1="253.971" y1="346.786" x2="253.971" y2="437.13" gradientUnits="userSpaceOnUse"><stop offset="0" stop-color="#f5faff"/><stop offset="1" stop-color="#b6d1f1"/></linearGradient><linearGradient id="linear-gradient-11" x1="278.512" y1="303.394" x2="402.643" y2="269.409" gradientUnits="userSpaceOnUse"><stop offset="0.316" stop-color="#f5faff"/><stop offset="1" stop-color="#b6d1f1"/></linearGradient><linearGradient id="linear-gradient-12" x1="299.86" y1="263.912" x2="299.835" y2="264.087" xlink:href="#linear-gradient-2"/><linearGradient id="linear-gradient-13" x1="223.171" y1="218.76" x2="335.439" y2="256.855" xlink:href="#linear-gradient-11"/><linearGradient id="linear-gradient-14" x1="359.3" y1="314.202" x2="367.391" y2="307.451" gradientUnits="userSpaceOnUse"><stop offset="0.316" stop-color="#fff"/><stop offset="1" stop-color="#b6d1f1"/></linearGradient></defs><g id="Layer_2" data-name="Layer 2"><path class="cls-1" d="M305.792,268.973a56.339,56.339,0,1,1,56.338-56.34A56.4,56.4,0,0,1,305.792,268.973Z"/><path class="cls-2" d="M305.792,268.973a56.339,56.339,0,1,1,56.338-56.34A56.4,56.4,0,0,1,305.792,268.973Z"/><path class="cls-3" d="M305.792,312.83a6.272,6.272,0,0,1-6.272-6.271V289a6.272,6.272,0,0,1,12.543,0v17.559A6.271,6.271,0,0,1,305.792,312.83Z"/><path class="cls-4" d="M305.792,142.538a6.272,6.272,0,0,1-6.272-6.271V118.709a6.272,6.272,0,1,1,12.543,0v17.558A6.271,6.271,0,0,1,305.792,142.538Z"/><path class="cls-5" d="M229.413,218.892H211.855a6.272,6.272,0,1,1,0-12.543h17.558a6.272,6.272,0,0,1,0,12.543Z"/><path class="cls-6" d="M399.729,218.892H382.17a6.272,6.272,0,0,1,0-12.543h17.559a6.272,6.272,0,0,1,0,12.543Z"/><path class="cls-7" d="M251.812,164.913a6.254,6.254,0,0,1-4.434-1.837L235.262,150.96a6.2,6.2,0,0,1-1.475-1.905,6.277,6.277,0,0,1,10.093-7.214l12.367,12.366a6.272,6.272,0,0,1-4.435,10.706Z"/><path class="cls-8" d="M372.138,285.238A6.254,6.254,0,0,1,367.7,283.4l-12.117-12.116a6.208,6.208,0,0,1-1.475-1.905,6.276,6.276,0,0,1,10.093-7.213l12.367,12.365a6.272,6.272,0,0,1-4.434,10.706Z"/><path class="cls-9" d="M359.771,164.913a6.272,6.272,0,0,1-4.434-10.706l12.391-12.391a6.277,6.277,0,0,1,10.093,7.189l-.025.05a6.241,6.241,0,0,1-1.52,1.951l-12.071,12.07A6.252,6.252,0,0,1,359.771,164.913Z"/><path class="cls-10" d="M239.377,285.294a6.266,6.266,0,0,1-4.441-10.687l12.442-12.44a6.271,6.271,0,0,1,8.869,8.868L243.83,283.451A6.282,6.282,0,0,1,239.377,285.294Z"/><path class="cls-11" d="M363.9,315.8a67.816,67.816,0,0,0-65.894-51.843c-.12,0-.237.009-.357.009a74.443,74.443,0,0,0-148.869,1.575c0,1.065.036,2.122.081,3.176a67.8,67.8,0,0,0,24.949,130.842H359.95A41.973,41.973,0,0,0,363.9,315.8Z"/><path class="cls-12" d="M401.942,357.572a42,42,0,0,1-41.99,41.991H173.805A67.82,67.82,0,0,1,106,331.757a66.5,66.5,0,0,1,.414-7.333,67.806,67.806,0,0,0,62.66,41.872H355.191a41.958,41.958,0,0,0,40.453-30.813A41.692,41.692,0,0,1,401.942,357.572Z"/><path class="cls-13" d="M363.914,315.789a46.675,46.675,0,0,0-24.721,6.831c-7.54-31.227-30.162-54.232-63.724-54.232,14.933-4.111,22.178-4.436,22.178-4.436H298A67.846,67.846,0,0,1,363.914,315.789Z"/><path class="cls-14" d="M300.988,264.011c-.769-.029-1.508-.059-2.277-.059h.562A16.658,16.658,0,0,1,300.988,264.011Z"/><path class="cls-15" d="M275.469,268.388s-1.538-75.346-69.166-75.346a74.427,74.427,0,0,1,91.344,70.91S290.406,264.273,275.469,268.388Z"/><path class="cls-16" d="M363.914,315.789l-.236.059a66.134,66.134,0,0,0-2.484-8.664A64.648,64.648,0,0,1,363.914,315.789Z"/></g></svg>